GeoramaExtraExtended-SemiBold.ufo
<glyph name="exclam" format="2">
  <advance width="365.7"/>
  <unicode hex="0021"/>
  <outline>
    <contour>
      <point x="111.25" y="261.25" type="line"/>
      <point x="258.3" y="261.25" type="line"/>
      <point x="269.3" y="740.0" type="line"/>
      <point x="100.25" y="740.0" type="line"/>
    </contour>
    <contour>
      <point x="85.54999999999998" y="64.3" type="curve" smooth="yes"/>
      <point x="85.54999999999998" y="15.850000000000001"/>
      <point x="111.20000000000002" y="-6.05"/>
      <point x="182.85" y="-6.05" type="curve" smooth="yes"/>
      <point x="254.95" y="-6.05"/>
      <point x="280.15000000000003" y="15.850000000000001"/>
      <point x="280.15000000000003" y="64.3" type="curve" smooth="yes"/>
      <point x="280.15000000000003" y="113.30000000000001"/>
      <point x="254.95" y="135.20000000000002"/>
      <point x="182.85" y="135.20000000000002" type="curve" smooth="yes"/>
      <point x="110.75" y="135.20000000000002"/>
      <point x="85.54999999999998" y="113.30000000000001"/>
    </contour>
  </outline>
</glyph>
<glyph name="numbersign" format="2">
  <advance width="1042.8"/>
  <unicode hex="0023"/>
  <outline>
    <contour>
      <point x="138.29999999999998" y="443.65000000000003" type="line"/>
      <point x="271.8" y="443.65000000000003" type="line"/>
      <point x="222.54999999999995" y="253.65" type="line"/>
      <point x="95.65" y="253.65" type="line"/>
      <point x="95.65" y="156.45" type="line"/>
      <point x="198.95000000000002" y="156.45" type="line"/>
      <point x="159.59999999999997" y="0.0" type="line"/>
      <point x="339.09999999999997" y="0.0" type="line"/>
      <point x="378.45000000000005" y="156.45" type="line"/>
      <point x="570.8" y="156.45" type="line"/>
      <point x="531.45" y="0.0" type="line"/>
      <point x="710.95" y="0.0" type="line"/>
      <point x="750.3" y="156.45" type="line"/>
      <point x="905.05" y="156.45" type="line"/>
      <point x="905.05" y="253.65" type="line"/>
      <point x="773.9" y="253.65" type="line"/>
      <point x="823.15" y="443.65000000000003" type="line"/>
      <point x="947.6999999999999" y="443.65000000000003" type="line"/>
      <point x="947.6999999999999" y="539.75" type="line"/>
      <point x="845.75" y="539.75" type="line"/>
      <point x="887.25" y="700.0" type="line"/>
      <point x="707.75" y="700.0" type="line"/>
      <point x="666.25" y="539.75" type="line"/>
      <point x="473.9" y="539.75" type="line"/>
      <point x="515.4" y="700.0" type="line"/>
      <point x="335.9" y="700.0" type="line"/>
      <point x="294.4" y="539.75" type="line"/>
      <point x="138.29999999999998" y="539.75" type="line"/>
    </contour>
    <contour>
      <point x="451.3" y="443.65000000000003" type="line"/>
      <point x="643.65" y="443.65000000000003" type="line"/>
      <point x="594.4" y="253.65" type="line"/>
      <point x="402.04999999999995" y="253.65" type="line"/>
    </contour>
  </outline>
</glyph>
<glyph name="dollar" format="2">
  <advance width="1042.8"/>
  <unicode hex="0024"/>
  <outline>
    <contour>
      <point x="493.99999999999994" y="-10.0" type="curve" smooth="yes"/>
      <point x="794.6" y="-16.5"/>
      <point x="964.4000000000001" y="49.2"/>
      <point x="964.4000000000001" y="209.79999999999998" type="curve" smooth="yes"/>
      <point x="964.4000000000001" y="347.8"/>
      <point x="830.2" y="393.6"/>
      <point x="617.8000000000001" y="417.2" type="curve" smooth="yes"/>
      <point x="417.1" y="439.7"/>
      <point x="302.20000000000005" y="437.20000000000005"/>
      <point x="302.20000000000005" y="505.1" type="curve" smooth="yes"/>
      <point x="302.20000000000005" y="561.3000000000001"/>
      <point x="382.90000000000003" y="584.2"/>
      <point x="533.6" y="584.2" type="curve" smooth="yes"/>
      <point x="645.5" y="584.2"/>
      <point x="790.0" y="565.3000000000001"/>
      <point x="882.4" y="538.4000000000001" type="curve"/>
      <point x="910.4000000000001" y="666.4" type="line"/>
      <point x="806.8000000000001" y="692.1000000000001"/>
      <point x="670.4" y="710.0"/>
      <point x="550.0000000000001" y="710.0" type="curve" smooth="yes"/>
      <point x="282.7" y="709.1"/>
      <point x="122.89999999999999" y="647.7"/>
      <point x="122.89999999999999" y="486.7" type="curve" smooth="yes"/>
      <point x="122.89999999999999" y="348.9"/>
      <point x="246.4" y="307.99999999999994"/>
      <point x="426.7" y="286.90000000000003" type="curve" smooth="yes"/>
      <point x="645.5" y="261.0"/>
      <point x="781.6" y="263.3"/>
      <point x="781.6" y="193.2" type="curve" smooth="yes"/>
      <point x="781.6" y="132.70000000000002"/>
      <point x="707.0" y="111.6"/>
      <point x="543.6999999999999" y="111.6" type="curve" smooth="yes"/>
      <point x="414.29999999999995" y="111.6"/>
      <point x="239.29999999999998" y="139.3"/>
      <point x="109.6" y="179.60000000000002" type="curve"/>
      <point x="79.39999999999999" y="52.400000000000006" type="line"/>
      <point x="198.0" y="16.800000000000004"/>
      <point x="360.7" y="-7.7"/>
    </contour>
    <contour>
      <point x="483.8" y="-105.0" type="line"/>
      <point x="603.8" y="-105.0" type="line"/>
      <point x="603.8" y="4.8" type="line"/>
      <point x="483.8" y="1.6000000000000005" type="line"/>
    </contour>
    <contour>
      <point x="483.8" y="697.3" type="line"/>
      <point x="603.8" y="698.3000000000001" type="line"/>
      <point x="603.8" y="805.0" type="line"/>
      <point x="483.8" y="805.0" type="line"/>
    </contour>
  </outline>
</glyph>
<glyph name="ampersand" format="2">
  <advance width="1074.8"/>
  <unicode hex="0026"/>
  <outline>
    <contour>
      <point x="850.8000000000001" y="-4.5" type="line"/>
      <point x="1069.1000000000001" y="4.5" type="line"/>
      <point x="450.70000000000005" y="423.3" type="line" smooth="yes"/>
      <point x="390.0" y="464.90000000000003"/>
      <point x="359.4" y="490.9"/>
      <point x="359.4" y="526.0999999999999" type="curve" smooth="yes"/>
      <point x="359.4" y="576.1"/>
      <point x="419.30000000000007" y="603.3"/>
      <point x="525.8" y="603.3" type="curve" smooth="yes"/>
      <point x="614.1999999999999" y="603.3"/>
      <point x="682.8" y="574.9"/>
      <point x="682.8" y="520.0" type="curve" smooth="yes"/>
      <point x="682.8" y="476.6"/>
      <point x="646.5" y="446.5"/>
      <point x="578.6999999999999" y="431.99999999999994" type="curve"/>
      <point x="674.3" y="367.29999999999995" type="line"/>
      <point x="795.9" y="402.3"/>
      <point x="847.1" y="457.4"/>
      <point x="847.1" y="535.8999999999999" type="curve" smooth="yes"/>
      <point x="847.1" y="648.5"/>
      <point x="732.9999999999999" y="710.0"/>
      <point x="520.0" y="710.0" type="curve" smooth="yes"/>
      <point x="279.59999999999997" y="710.0"/>
      <point x="183.6" y="629.7"/>
      <point x="183.6" y="525.6999999999999" type="curve" smooth="yes"/>
      <point x="183.6" y="462.3"/>
      <point x="204.20000000000002" y="420.9"/>
      <point x="272.4" y="374.2" type="curve" smooth="yes"/>
    </contour>
    <contour>
      <point x="444.40000000000003" y="-10.0" type="curve" smooth="yes"/>
      <point x="559.6" y="-10.0"/>
      <point x="673.3" y="14.600000000000003"/>
      <point x="761.3000000000001" y="64.69999999999999" type="curve"/>
      <point x="668.9" y="147.4" type="line"/>
      <point x="625.0" y="117.20000000000002"/>
      <point x="557.0999999999999" y="99.80000000000001"/>
      <point x="465.90000000000003" y="99.80000000000001" type="curve" smooth="yes"/>
      <point x="320.5" y="99.80000000000001"/>
      <point x="221.29999999999998" y="149.60000000000002"/>
      <point x="221.29999999999998" y="231.4" type="curve" smooth="yes"/>
      <point x="221.29999999999998" y="284.4"/>
      <point x="263.59999999999997" y="319.69999999999993"/>
      <point x="341.8" y="339.40000000000003" type="curve"/>
      <point x="253.29999999999998" y="406.00000000000006" type="line"/>
      <point x="121.49999999999999" y="375.5"/>
      <point x="57.9" y="309.8"/>
      <point x="57.9" y="212.6" type="curve" smooth="yes"/>
      <point x="57.9" y="74.99999999999999"/>
      <point x="193.60000000000002" y="-10.0"/>
    </contour>
    <contour>
      <point x="860.9000000000001" y="111.19999999999997" type="line"/>
      <point x="931.9000000000001" y="167.00000000000003"/>
      <point x="979.9000000000001" y="237.10000000000002"/>
      <point x="979.9000000000001" y="319.99999999999994" type="curve" smooth="yes"/>
      <point x="979.9000000000001" y="341.0"/>
      <point x="977.1" y="352.3"/>
      <point x="973.4000000000001" y="368.79999999999995" type="curve"/>
      <point x="845.3" y="366.1" type="line"/>
      <point x="848.9000000000001" y="348.5"/>
      <point x="849.6999999999999" y="332.7"/>
      <point x="847.5" y="318.90000000000003" type="curve" smooth="yes"/>
      <point x="840.4000000000001" y="269.69999999999993"/>
      <point x="823.1" y="229.10000000000002"/>
      <point x="759.3" y="181.2" type="curve"/>
    </contour>
  </outline>
</glyph>
<glyph name="quotesingle" format="2">
  <advance width="255.1"/>
  <unicode hex="0027"/>
  <outline>
    <contour>
      <point x="61.599999999999994" y="427.0" type="line"/>
      <point x="193.5" y="427.0" type="line"/>
      <point x="201.25" y="700.0" type="line"/>
      <point x="53.849999999999994" y="700.0" type="line"/>
    </contour>
  </outline>
</glyph>
<glyph name="parenleft" format="2">
  <advance width="484.7"/>
  <unicode hex="0028"/>
  <outline>
    <contour>
      <point x="92.44999999999999" y="265.0" type="curve" smooth="yes"/>
      <point x="92.44999999999999" y="30.900000000000002"/>
      <point x="194.79999999999998" y="-189.35"/>
      <point x="448.5" y="-220.0" type="curve"/>
      <point x="448.5" y="-118.6" type="line"/>
      <point x="290.7" y="-79.19999999999999"/>
      <point x="234.54999999999998" y="66.30000000000001"/>
      <point x="234.54999999999998" y="265.0" type="curve" smooth="yes"/>
      <point x="234.54999999999998" y="463.69999999999993"/>
      <point x="290.7" y="609.1999999999999"/>
      <point x="448.5" y="648.5999999999999" type="curve"/>
      <point x="448.5" y="750.0" type="line"/>
      <point x="194.79999999999998" y="719.35"/>
      <point x="92.44999999999999" y="499.09999999999997"/>
    </contour>
  </outline>
</glyph>
<glyph name="parenright" format="2">
  <advance width="484.7"/>
  <unicode hex="0029"/>
  <outline>
    <contour>
      <point x="36.199999999999996" y="-118.6" type="curve"/>
      <point x="36.199999999999996" y="-220.0" type="line"/>
      <point x="289.90000000000003" y="-189.35"/>
      <point x="392.25" y="30.900000000000002"/>
      <point x="392.25" y="265.0" type="curve" smooth="yes"/>
      <point x="392.25" y="499.09999999999997"/>
      <point x="289.90000000000003" y="719.35"/>
      <point x="36.199999999999996" y="750.0" type="curve"/>
      <point x="36.199999999999996" y="648.5999999999999" type="line"/>
      <point x="194.0" y="609.1999999999999"/>
      <point x="250.15" y="463.69999999999993"/>
      <point x="250.15" y="265.0" type="curve" smooth="yes"/>
      <point x="250.15" y="66.30000000000001"/>
      <point x="194.0" y="-79.19999999999999"/>
    </contour>
  </outline>
</glyph>
<glyph name="asterisk" format="2">
  <advance width="484.7"/>
  <unicode hex="002A"/>
  <outline>
    <contour>
      <point x="135.45000000000002" y="295.05" type="line"/>
      <point x="242.79999999999998" y="424.84999999999997" type="line"/>
      <point x="348.35" y="294.6" type="line"/>
      <point x="406.45" y="334.95" type="line"/>
      <point x="315.65000000000003" y="478.09999999999997" type="line"/>
      <point x="471.15000000000003" y="537.7" type="line"/>
      <point x="449.1" y="603.85" type="line"/>
      <point x="288.0" y="564.95" type="line"/>
      <point x="279.75" y="730.0" type="line"/>
      <point x="205.85" y="730.0" type="line"/>
      <point x="197.60000000000002" y="564.95" type="line"/>
      <point x="35.6" y="603.85" type="line"/>
      <point x="13.55" y="537.7" type="line"/>
      <point x="169.95" y="478.09999999999997" type="line"/>
      <point x="76.9" y="335.85" type="line"/>
    </contour>
  </outline>
</glyph>
<glyph name="comma" format="2">
  <advance width="313.95"/>
  <unicode hex="002C"/>
  <outline>
    <contour>
      <point x="81.25" y="73.64999999999999" type="line"/>
      <point x="86.85" y="52.550000000000004"/>
      <point x="90.10000000000001" y="30.000000000000004"/>
      <point x="90.10000000000001" y="7.550000000000004" type="curve" smooth="yes"/>
      <point x="90.10000000000001" y="-59.8"/>
      <point x="66.55" y="-130.3"/>
      <point x="7.649999999999999" y="-179.70000000000002" type="curve"/>
      <point x="138.85000000000002" y="-200.0" type="line"/>
      <point x="215.45" y="-146.85"/>
      <point x="254.20000000000002" y="-71.4"/>
      <point x="254.20000000000002" y="4.600000000000003" type="curve" smooth="yes"/>
      <point x="254.20000000000002" y="32.15"/>
      <point x="249.29999999999998" y="57.7"/>
      <point x="239.95000000000002" y="78.25000000000001" type="curve"/>
    </contour>
  </outline>
</glyph>
<glyph name="hyphen" format="2">
  <advance width="464.70000000000005"/>
  <unicode hex="002D"/>
  <outline>
    <contour>
      <point x="55.85" y="243.45" type="line"/>
      <point x="408.84999999999997" y="243.45" type="line"/>
      <point x="408.84999999999997" y="366.84999999999997" type="line"/>
      <point x="55.85" y="366.84999999999997" type="line"/>
    </contour>
  </outline>
</glyph>
<glyph name="period" format="2">
  <advance width="322.75"/>
  <unicode hex="002E"/>
  <outline>
    <contour>
      <point x="64.3" y="64.30000000000001" type="curve" smooth="yes"/>
      <point x="64.3" y="15.850000000000001"/>
      <point x="89.95" y="-6.050000000000001"/>
      <point x="161.6" y="-6.050000000000001" type="curve" smooth="yes"/>
      <point x="233.70000000000002" y="-6.050000000000001"/>
      <point x="258.9" y="15.850000000000001"/>
      <point x="258.9" y="64.30000000000001" type="curve" smooth="yes"/>
      <point x="258.9" y="113.30000000000001"/>
      <point x="233.70000000000002" y="135.2"/>
      <point x="161.6" y="135.2" type="curve" smooth="yes"/>
      <point x="89.5" y="135.2"/>
      <point x="64.3" y="113.30000000000001"/>
    </contour>
  </outline>
</glyph>
<glyph name="slash" format="2">
  <advance width="553.65"/>
  <unicode hex="002F"/>
  <outline>
    <contour>
      <point x="10.0" y="-210.0" type="line"/>
      <point x="143.65" y="-210.0" type="line"/>
      <point x="543.65" y="740.0" type="line"/>
      <point x="410.0" y="740.0" type="line"/>
    </contour>
  </outline>
</glyph>
<glyph name="zero" format="2">
  <advance width="1042.8"/>
  <unicode hex="0030"/>
  <outline>
    <contour>
      <point x="46.4" y="350.0" type="curve" smooth="yes"/>
      <point x="46.4" y="69.0"/>
      <point x="271.8" y="-10.0"/>
      <point x="521.4" y="-10.0" type="curve" smooth="yes"/>
      <point x="771.9000000000001" y="-10.0"/>
      <point x="996.4" y="69.0"/>
      <point x="996.4" y="350.0" type="curve" smooth="yes"/>
      <point x="996.4" y="631.0"/>
      <point x="771.9000000000001" y="710.0"/>
      <point x="521.4" y="710.0" type="curve" smooth="yes"/>
      <point x="271.8" y="710.0"/>
      <point x="46.4" y="631.0"/>
    </contour>
    <contour>
      <point x="229.10000000000002" y="350.0" type="curve" smooth="yes"/>
      <point x="229.10000000000002" y="537.4"/>
      <point x="367.59999999999997" y="594.4000000000001"/>
      <point x="521.4" y="594.4000000000001" type="curve" smooth="yes"/>
      <point x="676.1" y="594.4000000000001"/>
      <point x="814.6" y="537.4"/>
      <point x="814.6" y="350.0" type="curve" smooth="yes"/>
      <point x="814.6" y="162.6"/>
      <point x="676.1" y="105.60000000000002"/>
      <point x="521.4" y="105.60000000000002" type="curve" smooth="yes"/>
      <point x="367.59999999999997" y="105.60000000000002"/>
      <point x="229.10000000000002" y="162.6"/>
    </contour>
  </outline>
</glyph>
<glyph name="one" format="2">
  <advance width="1042.8"/>
  <unicode hex="0031"/>
  <outline>
    <contour>
      <point x="135.55" y="0.0" type="line"/>
      <point x="976.9" y="0.0" type="line"/>
      <point x="976.9" y="124.5" type="line"/>
      <point x="676.8" y="124.5" type="line"/>
      <point x="676.8" y="704.5" type="line"/>
      <point x="587.8" y="704.5" type="line"/>
      <point x="120.75" y="524.85" type="line"/>
      <point x="163.4" y="404.0" type="line"/>
      <point x="498.40000000000003" y="535.4" type="line"/>
      <point x="498.40000000000003" y="124.5" type="line"/>
      <point x="135.55" y="124.5" type="line"/>
    </contour>
  </outline>
</glyph>
<glyph name="two" format="2">
  <advance width="1042.8"/>
  <unicode hex="0032"/>
  <outline>
    <contour>
      <point x="94.9" y="95.00000000000001" type="curve"/>
      <point x="98.5" y="0.0" type="line"/>
      <point x="960.0000000000001" y="0.0" type="line"/>
      <point x="960.0000000000001" y="124.5" type="line"/>
      <point x="425.1" y="124.5" type="line"/>
      <point x="746.3" y="257.8"/>
      <point x="864.4999999999999" y="334.6"/>
      <point x="864.4999999999999" y="481.4" type="curve" smooth="yes"/>
      <point x="864.4999999999999" y="619.8000000000001"/>
      <point x="739.0" y="710.0"/>
      <point x="490.29999999999995" y="710.0" type="curve" smooth="yes"/>
      <point x="367.90000000000003" y="710.0"/>
      <point x="217.60000000000002" y="678.3000000000001"/>
      <point x="121.99999999999999" y="631.7" type="curve"/>
      <point x="167.3" y="512.5" type="line"/>
      <point x="262.9" y="554.1"/>
      <point x="368.5" y="576.7"/>
      <point x="470.9" y="576.7" type="curve" smooth="yes"/>
      <point x="629.7" y="576.7"/>
      <point x="685.3" y="529.3"/>
      <point x="685.3" y="462.3" type="curve" smooth="yes"/>
      <point x="685.3" y="359.59999999999997"/>
      <point x="581.9" y="307.0"/>
    </contour>
  </outline>
</glyph>
<glyph name="three" format="2">
  <advance width="1042.8"/>
  <unicode hex="0033"/>
  <outline>
    <contour>
      <point x="49.10000000000001" y="62.8" type="line"/>
      <point x="166.79999999999998" y="14.299999999999997"/>
      <point x="296.5" y="-9.0"/>
      <point x="473.3" y="-9.0" type="curve" smooth="yes"/>
      <point x="796.1999999999999" y="-9.0"/>
      <point x="961.0" y="69.7"/>
      <point x="961.0" y="209.9" type="curve" smooth="yes"/>
      <point x="961.0" y="296.90000000000003"/>
      <point x="884.4999999999999" y="353.59999999999997"/>
      <point x="744.4" y="366.6" type="curve"/>
      <point x="853.3" y="382.0"/>
      <point x="913.8" y="434.5"/>
      <point x="913.8" y="519.0" type="curve" smooth="yes"/>
      <point x="913.8" y="642.8000000000001"/>
      <point x="795.8" y="710.0"/>
      <point x="493.2" y="710.0" type="curve" smooth="yes"/>
      <point x="336.8" y="710.0"/>
      <point x="188.1" y="691.2"/>
      <point x="103.19999999999999" y="660.0000000000001" type="curve"/>
      <point x="128.00000000000003" y="538.9" type="line"/>
      <point x="224.70000000000002" y="568.7"/>
      <point x="343.6" y="584.3000000000001"/>
      <point x="464.79999999999995" y="584.3000000000001" type="curve" smooth="yes"/>
      <point x="654.3" y="584.3000000000001"/>
      <point x="740.8" y="553.8000000000001"/>
      <point x="740.8" y="496.1" type="curve" smooth="yes"/>
      <point x="740.8" y="438.7"/>
      <point x="668.0" y="411.90000000000003"/>
      <point x="488.20000000000005" y="411.90000000000003" type="curve" smooth="yes"/>
      <point x="275.79999999999995" y="411.90000000000003" type="line"/>
      <point x="275.79999999999995" y="304.0" type="line"/>
      <point x="465.30000000000007" y="304.0" type="line" smooth="yes"/>
      <point x="676.8" y="304.0"/>
      <point x="781.5" y="279.5"/>
      <point x="781.5" y="218.7" type="curve" smooth="yes"/>
      <point x="781.5" y="150.9"/>
      <point x="686.4" y="115.4"/>
      <point x="466.8" y="115.4" type="curve" smooth="yes"/>
      <point x="320.2" y="115.4"/>
      <point x="181.5" y="136.7"/>
      <point x="80.1" y="176.5" type="curve"/>
    </contour>
  </outline>
</glyph>
<glyph name="four" format="2">
  <advance width="1042.8"/>
  <unicode hex="0034"/>
  <outline>
    <contour>
      <point x="29.199999999999996" y="143.8" type="line"/>
      <point x="630.0" y="143.8" type="line"/>
      <point x="630.0" y="0.0" type="line"/>
      <point x="803.7" y="0.0" type="line"/>
      <point x="803.7" y="143.8" type="line"/>
      <point x="993.4000000000001" y="143.8" type="line"/>
      <point x="993.4000000000001" y="251.70000000000002" type="line"/>
      <point x="803.7" y="251.70000000000002" type="line"/>
      <point x="803.7" y="700.0" type="line"/>
      <point x="695.2" y="704.5" type="line"/>
      <point x="27.400000000000006" y="247.0" type="line"/>
    </contour>
    <contour>
      <point x="222.0" y="251.70000000000002" type="line"/>
      <point x="630.0" y="526.6999999999999" type="line"/>
      <point x="630.0" y="251.70000000000002" type="line"/>
    </contour>
  </outline>
</glyph>
<glyph name="five" format="2">
  <advance width="1042.8"/>
  <unicode hex="0035"/>
  <outline>
    <contour>
      <point x="66.75" y="62.25" type="line"/>
      <point x="184.2" y="12.7"/>
      <point x="308.40000000000003" y="-9.55"/>
      <point x="482.0" y="-9.55" type="curve" smooth="yes"/>
      <point x="789.85" y="-9.55"/>
      <point x="959.5999999999999" y="65.65"/>
      <point x="959.5999999999999" y="230.8" type="curve" smooth="yes"/>
      <point x="959.5999999999999" y="390.45000000000005"/>
      <point x="830.1999999999999" y="431.15000000000003"/>
      <point x="570.4000000000001" y="431.15" type="curve" smooth="yes"/>
      <point x="275.0" y="431.15000000000003" type="line"/>
      <point x="303.25" y="575.5" type="line"/>
      <point x="893.95" y="575.5" type="line"/>
      <point x="893.95" y="700.0" type="line"/>
      <point x="183.3" y="700.0" type="line"/>
      <point x="118.25" y="329.75" type="line"/>
      <point x="128.8" y="320.95" type="line"/>
      <point x="511.40000000000003" y="320.95" type="line" smooth="yes"/>
      <point x="736.0" y="320.95"/>
      <point x="785.5999999999999" y="288.8"/>
      <point x="785.5999999999999" y="223.65" type="curve" smooth="yes"/>
      <point x="785.5999999999999" y="148.8"/>
      <point x="702.1" y="111.10000000000001"/>
      <point x="475.4" y="111.10000000000001" type="curve" smooth="yes"/>
      <point x="313.5" y="111.10000000000001"/>
      <point x="190.0" y="135.55"/>
      <point x="99.85" y="172.65" type="curve"/>
    </contour>
  </outline>
</glyph>
<glyph name="six" format="2">
  <advance width="1042.8"/>
  <unicode hex="0036"/>
  <outline>
    <contour>
      <point x="549.9" y="-10.0" type="curve" smooth="yes"/>
      <point x="838.8" y="-10.0"/>
      <point x="996.8000000000001" y="73.0"/>
      <point x="996.8000000000001" y="227.4" type="curve" smooth="yes"/>
      <point x="996.8000000000001" y="374.79999999999995"/>
      <point x="862.5" y="447.7"/>
      <point x="614.8000000000001" y="447.7" type="curve" smooth="yes"/>
      <point x="456.8" y="447.7"/>
      <point x="301.70000000000005" y="417.1"/>
      <point x="205.00000000000003" y="366.09999999999997" type="curve"/>
      <point x="207.1" y="254.2" type="line"/>
      <point x="305.8" y="291.7"/>
      <point x="437.20000000000005" y="327.4"/>
      <point x="561.0" y="327.4" type="curve" smooth="yes"/>
      <point x="728.1" y="327.4"/>
      <point x="818.6999999999999" y="299.09999999999997"/>
      <point x="818.6999999999999" y="225.2" type="curve" smooth="yes"/>
      <point x="818.6999999999999" y="152.9"/>
      <point x="730.1999999999999" y="112.0"/>
      <point x="569.3" y="112.0" type="curve" smooth="yes"/>
      <point x="332.79999999999995" y="112.0"/>
      <point x="227.8" y="190.1"/>
      <point x="227.8" y="342.5" type="curve" smooth="yes"/>
      <point x="227.8" y="507.40000000000003"/>
      <point x="353.70000000000005" y="581.5"/>
      <point x="607.2" y="581.5" type="curve" smooth="yes"/>
      <point x="737.8" y="581.5"/>
      <point x="821.3000000000001" y="568.9000000000001"/>
      <point x="927.9999999999999" y="545.0" type="curve"/>
      <point x="953.9999999999999" y="669.0" type="line"/>
      <point x="867.1" y="694.1"/>
      <point x="753.0000000000001" y="710.0"/>
      <point x="587.2" y="710.0" type="curve" smooth="yes"/>
      <point x="239.5" y="710.0"/>
      <point x="50.5" y="577.5"/>
      <point x="50.5" y="337.79999999999995" type="curve" smooth="yes"/>
      <point x="50.5" y="107.6"/>
      <point x="213.1" y="-10.0"/>
    </contour>
  </outline>
</glyph>
<glyph name="seven" format="2">
  <advance width="1042.8"/>
  <unicode hex="0037"/>
  <outline>
    <contour>
      <point x="321.9" y="0.0" type="curve"/>
      <point x="507.0" y="0.0" type="line"/>
      <point x="511.40000000000003" y="114.30000000000001"/>
      <point x="569.3" y="210.39999999999998"/>
      <point x="692.1999999999999" y="333.7" type="curve" smooth="yes"/>
      <point x="953.2" y="597.1000000000001" type="line"/>
      <point x="953.2" y="700.0" type="line"/>
      <point x="99.2" y="700.0" type="line"/>
      <point x="99.2" y="571.0" type="line"/>
      <point x="731.7" y="571.0" type="line"/>
      <point x="517.3000000000001" y="359.6" type="line" smooth="yes"/>
      <point x="368.79999999999995" y="214.1"/>
      <point x="321.9" y="128.4"/>
    </contour>
  </outline>
</glyph>
<glyph name="eight" format="2">
  <advance width="1042.8"/>
  <unicode hex="0038"/>
  <outline>
    <contour>
      <point x="659.6" y="391.0" type="curve"/>
      <point x="802.0" y="359.4" type="line"/>
      <point x="909.0" y="399.09999999999997"/>
      <point x="950.0999999999999" y="465.09999999999997"/>
      <point x="950.0999999999999" y="526.7" type="curve" smooth="yes"/>
      <point x="950.0999999999999" y="644.4"/>
      <point x="798.8" y="710.0"/>
      <point x="520.7" y="710.0" type="curve" smooth="yes"/>
      <point x="245.0" y="710.0"/>
      <point x="94.69999999999999" y="639.1999999999999"/>
      <point x="94.69999999999999" y="506.29999999999995" type="curve" smooth="yes"/>
      <point x="94.69999999999999" y="191.9"/>
      <point x="820.6999999999999" y="371.09999999999997"/>
      <point x="820.6999999999999" y="197.1" type="curve" smooth="yes"/>
      <point x="820.6999999999999" y="127.6"/>
      <point x="719.0" y="96.20000000000002"/>
      <point x="534.7" y="96.20000000000002" type="curve" smooth="yes"/>
      <point x="328.4" y="96.20000000000002"/>
      <point x="217.1" y="137.9"/>
      <point x="217.1" y="213.6" type="curve" smooth="yes"/>
      <point x="217.1" y="263.09999999999997"/>
      <point x="265.40000000000003" y="303.9"/>
      <point x="356.8" y="336.09999999999997" type="curve"/>
      <point x="224.99999999999997" y="390.4" type="line"/>
      <point x="96.6" y="352.49999999999994"/>
      <point x="35.9" y="280.0"/>
      <point x="35.9" y="202.6" type="curve" smooth="yes"/>
      <point x="35.9" y="65.0"/>
      <point x="201.0" y="-10.0"/>
      <point x="514.3000000000001" y="-10.0" type="curve" smooth="yes"/>
      <point x="841.6999999999999" y="-10.0"/>
      <point x="1007.9000000000001" y="59.199999999999996"/>
      <point x="1007.9000000000001" y="216.7" type="curve" smooth="yes"/>
      <point x="1007.9000000000001" y="506.30000000000007"/>
      <point x="265.40000000000003" y="356.0"/>
      <point x="265.40000000000003" y="511.2" type="curve" smooth="yes"/>
      <point x="265.40000000000003" y="569.0"/>
      <point x="343.2" y="598.5000000000001"/>
      <point x="512.1999999999999" y="598.5000000000001" type="curve" smooth="yes"/>
      <point x="689.0" y="598.5000000000001"/>
      <point x="780.3" y="564.7"/>
      <point x="780.3" y="505.2" type="curve" smooth="yes"/>
      <point x="780.3" y="462.3"/>
      <point x="752.1999999999999" y="429.3"/>
    </contour>
  </outline>
</glyph>
<glyph name="nine" format="2">
  <advance width="1042.8"/>
  <unicode hex="0039"/>
  <outline>
    <contour>
      <point x="465.5" y="-10.0" type="curve" smooth="yes"/>
      <point x="813.1999999999999" y="-10.0"/>
      <point x="993.2" y="119.20000000000002"/>
      <point x="993.2" y="354.3" type="curve" smooth="yes"/>
      <point x="993.2" y="590.0"/>
      <point x="830.6" y="710.0"/>
      <point x="511.8" y="710.0" type="curve" smooth="yes"/>
      <point x="215.7" y="710.0"/>
      <point x="46.699999999999996" y="627.8000000000001"/>
      <point x="46.699999999999996" y="472.6" type="curve" smooth="yes"/>
      <point x="46.699999999999996" y="326.0"/>
      <point x="184.0" y="252.40000000000003"/>
      <point x="420.9" y="252.40000000000003" type="curve" smooth="yes"/>
      <point x="588.5999999999999" y="252.40000000000003"/>
      <point x="742.8" y="278.4"/>
      <point x="838.7" y="330.29999999999995" type="curve"/>
      <point x="836.6" y="439.8" type="line"/>
      <point x="737.9" y="401.79999999999995"/>
      <point x="607.0999999999999" y="367.3"/>
      <point x="484.3" y="367.3" type="curve" smooth="yes"/>
      <point x="322.2" y="367.3"/>
      <point x="224.9" y="404.1"/>
      <point x="224.9" y="476.0" type="curve" smooth="yes"/>
      <point x="224.9" y="551.3000000000001"/>
      <point x="325.79999999999995" y="588.9000000000001"/>
      <point x="493.1" y="588.9000000000001" type="curve" smooth="yes"/>
      <point x="706.7" y="588.9000000000001"/>
      <point x="817.5999999999999" y="513.3"/>
      <point x="817.5999999999999" y="357.70000000000005" type="curve" smooth="yes"/>
      <point x="817.5999999999999" y="192.8"/>
      <point x="699.6" y="114.9"/>
      <point x="444.09999999999997" y="114.9" type="curve" smooth="yes"/>
      <point x="333.5" y="114.9"/>
      <point x="240.0" y="131.10000000000002"/>
      <point x="115.39999999999999" y="154.20000000000002" type="curve"/>
      <point x="89.60000000000001" y="31.900000000000002" type="line"/>
      <point x="194.5" y="5.900000000000001"/>
      <point x="317.7" y="-10.0"/>
    </contour>
  </outline>
</glyph>
<glyph name="less" format="2">
  <advance width="682.1"/>
  <unicode hex="003C"/>
  <outline>
    <contour>
      <point x="620.75" y="42.6" type="line"/>
      <point x="620.75" y="169.65000000000003" type="line"/>
      <point x="206.55" y="304.95000000000005" type="line"/>
      <point x="620.75" y="440.6" type="line"/>
      <point x="620.75" y="568.3" type="line"/>
      <point x="61.349999999999994" y="365.0" type="line"/>
      <point x="61.349999999999994" y="243.25" type="line"/>
    </contour>
  </outline>
</glyph>
<glyph name="equal" format="2">
  <advance width="682.1"/>
  <unicode hex="003D"/>
  <outline>
    <contour>
      <point x="620.75" y="250.89999999999998" type="line"/>
      <point x="61.35000000000001" y="250.89999999999998" type="line"/>
      <point x="61.35000000000001" y="129.14999999999998" type="line"/>
      <point x="620.75" y="129.14999999999998" type="line"/>
    </contour>
    <contour>
      <point x="620.75" y="482.65" type="line"/>
      <point x="61.35000000000001" y="482.65" type="line"/>
      <point x="61.35000000000001" y="360.9" type="line"/>
      <point x="620.75" y="360.9" type="line"/>
    </contour>
  </outline>
</glyph>
<glyph name="greater" format="2">
  <advance width="682.1"/>
  <unicode hex="003E"/>
  <outline>
    <contour>
      <point x="620.75" y="243.25" type="line"/>
      <point x="620.75" y="365.0" type="line"/>
      <point x="61.349999999999994" y="568.3" type="line"/>
      <point x="61.349999999999994" y="440.15" type="line"/>
      <point x="475.55" y="304.95" type="line"/>
      <point x="61.349999999999994" y="169.64999999999998" type="line"/>
      <point x="61.349999999999994" y="42.6" type="line"/>
    </contour>
  </outline>
</glyph>
<glyph name="question" format="2">
  <advance width="718.0"/>
  <unicode hex="003F"/>
  <outline>
    <contour>
      <point x="260.59999999999997" y="259.9" type="line"/>
      <point x="407.65000000000003" y="259.9" type="line"/>
      <point x="408.75" y="313.8" type="line"/>
      <point x="608.3499999999999" y="355.8"/>
      <point x="687.7" y="419.2"/>
      <point x="687.7" y="529.05" type="curve" smooth="yes"/>
      <point x="687.7" y="695.55"/>
      <point x="521.15" y="750.0"/>
      <point x="366.2" y="750.0" type="curve" smooth="yes"/>
      <point x="254.75" y="750.0"/>
      <point x="110.4" y="718.85"/>
      <point x="17.5" y="664.5" type="curve"/>
      <point x="58.85" y="549.15" type="line"/>
      <point x="149.2" y="594.35"/>
      <point x="250.5" y="621.1"/>
      <point x="338.15" y="621.1" type="curve" smooth="yes"/>
      <point x="425.9" y="621.1"/>
      <point x="507.09999999999997" y="599.25"/>
      <point x="507.09999999999997" y="521.9" type="curve" smooth="yes"/>
      <point x="507.09999999999997" y="468.85"/>
      <point x="465.79999999999995" y="428.40000000000003"/>
      <point x="256.75" y="393.59999999999997" type="curve"/>
    </contour>
    <contour>
      <point x="239.14999999999998" y="64.3" type="curve" smooth="yes"/>
      <point x="239.14999999999998" y="15.850000000000001"/>
      <point x="264.8" y="-6.05"/>
      <point x="336.45" y="-6.05" type="curve" smooth="yes"/>
      <point x="408.55" y="-6.05"/>
      <point x="433.75" y="15.850000000000001"/>
      <point x="433.75" y="64.3" type="curve" smooth="yes"/>
      <point x="433.75" y="113.30000000000001"/>
      <point x="408.55" y="135.20000000000002"/>
      <point x="336.45" y="135.20000000000002" type="curve" smooth="yes"/>
      <point x="264.34999999999997" y="135.20000000000002"/>
      <point x="239.14999999999998" y="113.30000000000001"/>
    </contour>
  </outline>
</glyph>
<glyph name="at" format="2">
  <advance width="1152.2"/>
  <unicode hex="0040"/>
  <outline>
    <contour>
      <point x="528.4" y="-124.00000000000001" type="curve" smooth="yes"/>
      <point x="629.0" y="-124.00000000000001"/>
      <point x="730.6" y="-107.70000000000002"/>
      <point x="818.4000000000001" y="-83.40000000000002" type="curve"/>
      <point x="796.8000000000001" y="1.2000000000000002" type="line"/>
      <point x="724.5000000000001" y="-21.9"/>
      <point x="632.5000000000001" y="-37.19999999999998"/>
      <point x="543.9999999999999" y="-37.19999999999998" type="curve" smooth="yes"/>
      <point x="323.90000000000003" y="-37.19999999999998"/>
      <point x="155.8" y="44.99999999999999"/>
      <point x="155.8" y="266.90000000000003" type="curve" smooth="yes"/>
      <point x="155.8" y="464.4"/>
      <point x="314.29999999999995" y="626.3"/>
      <point x="587.7" y="626.3" type="curve" smooth="yes"/>
      <point x="854.5" y="626.3"/>
      <point x="1000.4" y="518.4999999999999"/>
      <point x="1000.4" y="329.6" type="curve" smooth="yes"/>
      <point x="1000.4" y="204.70000000000002"/>
      <point x="951.4" y="143.8"/>
      <point x="900.3000000000001" y="144.3" type="curve" smooth="yes"/>
      <point x="859.6999999999999" y="144.3"/>
      <point x="836.3" y="173.20000000000002"/>
      <point x="841.2" y="239.19999999999996" type="curve" smooth="yes"/>
      <point x="858.3000000000001" y="477.7999999999999" type="line"/>
      <point x="782.5" y="500.99999999999994"/>
      <point x="682.4" y="518.0999999999999"/>
      <point x="611.5" y="518.0999999999999" type="curve" smooth="yes"/>
      <point x="406.19999999999993" y="518.0999999999999"/>
      <point x="281.90000000000003" y="409.40000000000003"/>
      <point x="281.90000000000003" y="260.8" type="curve" smooth="yes"/>
      <point x="281.90000000000003" y="141.10000000000002"/>
      <point x="361.40000000000003" y="62.999999999999986"/>
      <point x="487.80000000000007" y="62.999999999999986" type="curve" smooth="yes"/>
      <point x="587.7" y="62.999999999999986"/>
      <point x="672.9" y="120.0"/>
      <point x="715.6" y="200.39999999999998" type="curve"/>
      <point x="730.6" y="117.59999999999998"/>
      <point x="771.4" y="54.89999999999999"/>
      <point x="875.4999999999999" y="54.89999999999999" type="curve" smooth="yes"/>
      <point x="1024.8" y="53.89999999999999"/>
      <point x="1095.4999999999998" y="188.39999999999998"/>
      <point x="1095.4999999999998" y="329.7" type="curve" smooth="yes"/>
      <point x="1095.4999999999998" y="565.9"/>
      <point x="913.4000000000001" y="710.0"/>
      <point x="601.3000000000001" y="710.0" type="curve" smooth="yes"/>
      <point x="261.5" y="710.0"/>
      <point x="57.60000000000001" y="514.0"/>
      <point x="57.60000000000001" y="264.90000000000003" type="curve" smooth="yes"/>
      <point x="57.60000000000001" y="-14.899999999999999"/>
      <point x="258.79999999999995" y="-124.00000000000001"/>
    </contour>
    <contour>
      <point x="537.5999999999999" y="171.1" type="curve" smooth="yes"/>
      <point x="480.0999999999999" y="171.1"/>
      <point x="437.59999999999997" y="209.10000000000002"/>
      <point x="437.59999999999997" y="280.4" type="curve" smooth="yes"/>
      <point x="437.59999999999997" y="363.2"/>
      <point x="504.10000000000014" y="415.29999999999995"/>
      <point x="595.0000000000001" y="415.29999999999995" type="curve" smooth="yes"/>
      <point x="631.6" y="415.29999999999995"/>
      <point x="668.8000000000001" y="411.59999999999997"/>
      <point x="708.8000000000001" y="399.59999999999997" type="curve"/>
      <point x="699.7" y="303.6" type="line" smooth="yes"/>
      <point x="669.8000000000001" y="215.49999999999997"/>
      <point x="603.9000000000001" y="171.1"/>
    </contour>
  </outline>
</glyph>
<glyph name="A" format="2">
  <advance width="1045.5"/>
  <unicode hex="0041"/>
  <anchor x="1038.7" y="0.0" name="ogonek"/>
  <anchor x="514.5" y="0.0" name="bottom"/>
  <anchor x="524.3" y="700.0" name="top"/>
  <outline>
    <contour>
      <point x="7.7" y="0.0" type="line"/>
      <point x="206.90000000000003" y="0.0" type="line"/>
      <point x="292.7" y="149.5" type="line"/>
      <point x="737.6" y="149.5" type="line"/>
      <point x="824.3000000000001" y="0.0" type="line"/>
      <point x="1038.7" y="0.0" type="line"/>
      <point x="615.3000000000001" y="704.5" type="line"/>
      <point x="430.2" y="704.5" type="line"/>
    </contour>
    <contour>
      <point x="348.5" y="272.0" type="line"/>
      <point x="515.5999999999999" y="563.0" type="line"/>
      <point x="681.8000000000001" y="272.0" type="line"/>
    </contour>
  </outline>
</glyph>
<glyph name="B" format="2">
  <advance width="1076.0"/>
  <unicode hex="0042"/>
  <anchor x="538.6" y="700.0" name="top"/>
  <anchor x="538.6" y="0.0" name="bottom"/>
  <outline>
    <contour>
      <point x="105.6" y="5.0" type="line"/>
      <point x="350.4" y="-7.999999999999999"/>
      <point x="398.59999999999997" y="-10.0"/>
      <point x="563.1" y="-10.0" type="curve" smooth="yes"/>
      <point x="917.1000000000001" y="-10.0"/>
      <point x="1027.1000000000001" y="42.5"/>
      <point x="1027.1000000000001" y="202.7" type="curve" smooth="yes"/>
      <point x="1027.1000000000001" y="302.90000000000003"/>
      <point x="942.3" y="368.9"/>
      <point x="803.1" y="383.0" type="curve"/>
      <point x="803.1" y="385.0" type="line"/>
      <point x="913.1" y="410.7"/>
      <point x="964.0000000000001" y="461.5"/>
      <point x="964.0000000000001" y="545.5" type="curve" smooth="yes"/>
      <point x="964.0000000000001" y="668.2"/>
      <point x="859.1" y="710.0"/>
      <point x="553.1999999999999" y="710.0" type="curve" smooth="yes"/>
      <point x="436.59999999999997" y="710.0"/>
      <point x="307.79999999999995" y="705.9000000000001"/>
      <point x="105.6" y="695.0" type="curve"/>
    </contour>
    <contour>
      <point x="290.59999999999997" y="417.0" type="line"/>
      <point x="290.59999999999997" y="577.1" type="line"/>
      <point x="429.7" y="584.6"/>
      <point x="440.4" y="585.6"/>
      <point x="534.4000000000001" y="585.6" type="curve" smooth="yes"/>
      <point x="723.6" y="585.6"/>
      <point x="782.3000000000001" y="563.2"/>
      <point x="782.3000000000001" y="500.9" type="curve" smooth="yes"/>
      <point x="782.3000000000001" y="451.4"/>
      <point x="723.5" y="417.0"/>
      <point x="629.4000000000001" y="417.0" type="curve" smooth="yes"/>
    </contour>
    <contour>
      <point x="290.59999999999997" y="122.90000000000002" type="curve"/>
      <point x="290.59999999999997" y="299.29999999999995" type="line"/>
      <point x="631.5" y="299.29999999999995" type="line" smooth="yes"/>
      <point x="770.2" y="299.29999999999995"/>
      <point x="831.2" y="269.8"/>
      <point x="831.2" y="211.00000000000003" type="curve" smooth="yes"/>
      <point x="831.2" y="139.3"/>
      <point x="765.7" y="114.4"/>
      <point x="542.0" y="114.4" type="curve" smooth="yes"/>
      <point x="478.09999999999997" y="114.4"/>
      <point x="411.6" y="116.40000000000002"/>
    </contour>
  </outline>
</glyph>
<glyph name="C" format="2">
  <advance width="1065.45"/>
  <unicode hex="0043"/>
  <anchor x="582.65" y="700.0" name="top"/>
  <anchor x="571.65" y="0.0" name="bottom"/>
  <outline>
    <contour>
      <point x="61.199999999999996" y="331.5" type="curve" smooth="yes"/>
      <point x="61.199999999999996" y="95.95000000000002"/>
      <point x="246.35000000000002" y="-10.0"/>
      <point x="581.45" y="-10.0" type="curve" smooth="yes"/>
      <point x="776.4499999999999" y="-10.0"/>
      <point x="899.0" y="12.3"/>
      <point x="1013.5999999999999" y="43.35" type="curve"/>
      <point x="980.0999999999999" y="162.9" type="line"/>
      <point x="864.95" y="135.7"/>
      <point x="732.8499999999999" y="119.45000000000002"/>
      <point x="607.3" y="119.45000000000002" type="curve" smooth="yes"/>
      <point x="365.5" y="119.45000000000002"/>
      <point x="251.15" y="194.75"/>
      <point x="251.15" y="337.55" type="curve" smooth="yes"/>
      <point x="251.15" y="494.34999999999997"/>
      <point x="367.15" y="577.8"/>
      <point x="620.05" y="577.8" type="curve" smooth="yes"/>
      <point x="728.55" y="577.8"/>
      <point x="829.05" y="566.8"/>
      <point x="943.25" y="543.9499999999999" type="curve"/>
      <point x="980.0500000000001" y="669.0" type="line"/>
      <point x="860.9000000000001" y="699.0"/>
      <point x="774.25" y="710.0"/>
      <point x="611.8" y="710.0" type="curve" smooth="yes"/>
      <point x="256.25" y="710.0"/>
      <point x="61.199999999999996" y="585.45"/>
    </contour>
  </outline>
</glyph>
<glyph name="D" format="2">
  <advance width="1145.3000000000002"/>
  <unicode hex="0044"/>
  <anchor x="568.8" y="700.0" name="top"/>
  <outline>
    <contour>
      <point x="557.1000000000001" y="-10.0" type="curve" smooth="yes"/>
      <point x="891.8000000000001" y="-10.0"/>
      <point x="1084.1" y="112.30000000000001"/>
      <point x="1084.1" y="343.09999999999997" type="curve" smooth="yes"/>
      <point x="1084.1" y="595.2"/>
      <point x="908.4000000000001" y="710.0"/>
      <point x="530.6" y="710.0" type="curve" smooth="yes"/>
      <point x="388.8" y="710.0"/>
      <point x="265.2" y="707.0"/>
      <point x="105.6" y="700.0" type="curve"/>
      <point x="105.6" y="0.0" type="line"/>
      <point x="253.6" y="-4.0"/>
      <point x="393.9" y="-10.0"/>
    </contour>
    <contour>
      <point x="563.6" y="108.90000000000002" type="curve" smooth="yes"/>
      <point x="480.8" y="108.90000000000002"/>
      <point x="371.7" y="112.80000000000001"/>
      <point x="290.59999999999997" y="115.7" type="curve"/>
      <point x="290.59999999999997" y="585.4" type="line"/>
      <point x="365.9" y="590.2"/>
      <point x="468.4" y="592.1"/>
      <point x="548.1" y="592.1" type="curve" smooth="yes"/>
      <point x="776.9000000000001" y="592.1"/>
      <point x="895.9" y="507.49999999999994"/>
      <point x="895.9" y="345.2" type="curve" smooth="yes"/>
      <point x="895.9" y="195.5"/>
      <point x="768.7" y="108.90000000000002"/>
    </contour>
  </outline>
</glyph>
<glyph name="E" format="2">
  <advance width="999.0"/>
  <unicode hex="0045"/>
  <anchor x="951.5000000000001" y="0.0" name="ogonek"/>
  <anchor x="528.6" y="0.0" name="bottom"/>
  <anchor x="531.8000000000001" y="700.0" name="top"/>
  <outline>
    <contour>
      <point x="105.6" y="0.0" type="line"/>
      <point x="951.5000000000001" y="0.0" type="line"/>
      <point x="951.5000000000001" y="137.5" type="line"/>
      <point x="289.59999999999997" y="137.5" type="line"/>
      <point x="289.59999999999997" y="300.59999999999997" type="line"/>
      <point x="890.5" y="300.59999999999997" type="line"/>
      <point x="890.5" y="431.09999999999997" type="line"/>
      <point x="289.59999999999997" y="431.09999999999997" type="line"/>
      <point x="289.59999999999997" y="562.5" type="line"/>
      <point x="922.5" y="562.5" type="line"/>
      <point x="922.5" y="700.0" type="line"/>
      <point x="105.6" y="700.0" type="line"/>
    </contour>
  </outline>
</glyph>
<glyph name="F" format="2">
  <advance width="948.3000000000001"/>
  <unicode hex="0046"/>
  <outline>
    <contour>
      <point x="105.6" y="0.0" type="line"/>
      <point x="290.6" y="0.0" type="line"/>
      <point x="290.6" y="229.09999999999997" type="line"/>
      <point x="844.0000000000001" y="229.09999999999997" type="line"/>
      <point x="844.0000000000001" y="362.6" type="line"/>
      <point x="290.59999999999997" y="362.6" type="line"/>
      <point x="290.59999999999997" y="561.0" type="line"/>
      <point x="917.0" y="561.0" type="line"/>
      <point x="917.0" y="700.0" type="line"/>
      <point x="105.6" y="700.0" type="line"/>
    </contour>
  </outline>
</glyph>
<glyph name="G" format="2">
  <advance width="1104.4499999999998"/>
  <unicode hex="0047"/>
  <anchor x="572.55" y="700.0" name="top"/>
  <anchor x="568.45" y="0.0" name="bottom"/>
  <outline>
    <contour>
      <point x="61.199999999999996" y="331.5" type="curve" smooth="yes"/>
      <point x="61.199999999999996" y="107.55"/>
      <point x="233.35000000000002" y="-10.0"/>
      <point x="559.9499999999999" y="-10.0" type="curve" smooth="yes"/>
      <point x="741.0" y="-10.0"/>
      <point x="900.15" y="12.899999999999999"/>
      <point x="1022.45" y="58.0" type="curve"/>
      <point x="1022.45" y="378.2" type="line"/>
      <point x="593.15" y="378.2" type="line"/>
      <point x="593.15" y="264.7" type="line"/>
      <point x="859.45" y="264.7" type="line"/>
      <point x="859.45" y="142.4" type="line"/>
      <point x="788.1999999999999" y="121.30000000000001"/>
      <point x="698.25" y="110.65"/>
      <point x="595.15" y="110.65" type="curve" smooth="yes"/>
      <point x="372.84999999999997" y="110.65"/>
      <point x="251.15000000000003" y="185.45"/>
      <point x="251.15000000000003" y="337.55" type="curve" smooth="yes"/>
      <point x="251.15000000000003" y="492.25"/>
      <point x="370.85" y="577.8"/>
      <point x="605.2" y="577.8" type="curve" smooth="yes"/>
      <point x="710.5" y="577.8"/>
      <point x="823.6" y="565.1999999999999"/>
      <point x="945.8000000000001" y="538.1" type="curve"/>
      <point x="980.9499999999999" y="662.25" type="line"/>
      <point x="855.75" y="696.5"/>
      <point x="751.6999999999999" y="710.0"/>
      <point x="596.9499999999999" y="710.0" type="curve" smooth="yes"/>
      <point x="247.75" y="710.0"/>
      <point x="61.199999999999996" y="574.6500000000001"/>
    </contour>
  </outline>
</glyph>
<glyph name="H" format="2">
  <advance width="1170.85"/>
  <unicode hex="0048"/>
  <anchor x="585.65" y="700.0" name="top"/>
  <outline>
    <contour>
      <point x="105.14999999999999" y="0.0" type="line"/>
      <point x="290.15" y="0.0" type="line"/>
      <point x="290.15" y="246.55" type="line"/>
      <point x="880.6999999999999" y="246.55" type="line"/>
      <point x="880.6999999999999" y="0.0" type="line"/>
      <point x="1065.7" y="0.0" type="line"/>
      <point x="1065.7" y="700.0" type="line"/>
      <point x="880.6999999999999" y="700.0" type="line"/>
      <point x="880.6999999999999" y="387.54999999999995" type="line"/>
      <point x="290.15" y="387.54999999999995" type="line"/>
      <point x="290.15" y="700.0" type="line"/>
      <point x="105.14999999999999" y="700.0" type="line"/>
    </contour>
  </outline>
</glyph>
<glyph name="I" format="2">
  <advance width="395.29999999999995"/>
  <unicode hex="0049"/>
  <anchor x="290.15" y="0.0" name="ogonek"/>
  <anchor x="197.65" y="0.0" name="bottom"/>
  <anchor x="197.65" y="700.0" name="top"/>
  <outline>
    <contour>
      <point x="105.14999999999999" y="0.0" type="line"/>
      <point x="290.15" y="0.0" type="line"/>
      <point x="290.15" y="700.0" type="line"/>
      <point x="105.14999999999999" y="700.0" type="line"/>
    </contour>
  </outline>
</glyph>
<glyph name="J" format="2">
  <advance width="851.5500000000001"/>
  <unicode hex="004A"/>
  <anchor x="426.2" y="700.0" name="top"/>
  <outline>
    <contour>
      <point x="19.65" y="40.55" type="line"/>
      <point x="149.60000000000002" y="5.25"/>
      <point x="288.35" y="-10.45"/>
      <point x="399.4" y="-10.45" type="curve" smooth="yes"/>
      <point x="650.0" y="-10.45"/>
      <point x="763.75" y="83.14999999999999"/>
      <point x="763.75" y="296.55" type="curve" smooth="yes"/>
      <point x="763.75" y="700.0" type="line"/>
      <point x="96.64999999999999" y="700.0" type="line"/>
      <point x="96.64999999999999" y="562.85" type="line"/>
      <point x="578.75" y="562.85" type="line"/>
      <point x="578.75" y="314.7" type="line" smooth="yes"/>
      <point x="578.75" y="178.0"/>
      <point x="504.35" y="121.75000000000001"/>
      <point x="360.35" y="121.75000000000001" type="curve" smooth="yes"/>
      <point x="279.8" y="121.75000000000001"/>
      <point x="170.9" y="139.10000000000002"/>
      <point x="57.0" y="167.8" type="curve"/>
    </contour>
  </outline>
</glyph>
<glyph name="K" format="2">
  <advance width="1069.9"/>
  <unicode hex="004B"/>
  <anchor x="533.1999999999999" y="700.0" name="top"/>
  <anchor x="522.5000000000001" y="0.0" name="bottom"/>
  <outline>
    <contour>
      <point x="1013.4" y="-10.0" type="curve" smooth="yes"/>
      <point x="1020.8" y="-10.0"/>
      <point x="1030.9999999999998" y="-9.9"/>
      <point x="1040.3" y="-8.9" type="curve"/>
      <point x="1040.3" y="144.9" type="line"/>
      <point x="1031.0" y="143.9"/>
      <point x="1022.6999999999999" y="143.9"/>
      <point x="1014.4000000000002" y="143.9" type="curve" smooth="yes"/>
      <point x="931.8000000000001" y="143.90000000000003"/>
      <point x="857.4000000000001" y="170.0"/>
      <point x="724.2" y="242.5" type="curve" smooth="yes"/>
      <point x="289.59999999999997" y="478.7" type="line"/>
      <point x="289.59999999999997" y="700.0" type="line"/>
      <point x="105.6" y="700.0" type="line"/>
      <point x="105.6" y="0.0" type="line"/>
      <point x="289.59999999999997" y="0.0" type="line"/>
      <point x="289.59999999999997" y="312.9" type="line"/>
      <point x="701.1" y="85.09999999999998" type="line" smooth="yes"/>
      <point x="828.8" y="15.299999999999999"/>
      <point x="925.8" y="-10.0"/>
    </contour>
    <contour>
      <point x="494.5" y="320.40000000000003" type="line"/>
      <point x="695.6" y="376.7"/>
      <point x="902.0" y="481.09999999999997"/>
      <point x="1016.1" y="615.9" type="curve"/>
      <point x="884.6999999999999" y="713.7" type="line"/>
      <point x="746.4" y="556.9"/>
      <point x="527.9" y="446.00000000000006"/>
      <point x="361.2" y="379.5" type="curve"/>
    </contour>
  </outline>
</glyph>
<glyph name="L" format="2">
  <advance width="922.35"/>
  <unicode hex="004C"/>
  <anchor x="461.4" y="350.0" name="center"/>
  <anchor x="197.65" y="700.0" name="top"/>
  <anchor x="557.8" y="700.0" name="topright"/>
  <anchor x="493.05" y="0.0" name="bottom"/>
  <outline>
    <contour>
      <point x="105.14999999999999" y="0.0" type="line"/>
      <point x="890.05" y="0.0" type="line"/>
      <point x="890.05" y="141.0" type="line"/>
      <point x="290.15" y="141.0" type="line"/>
      <point x="290.15" y="700.0" type="line"/>
      <point x="105.14999999999999" y="700.0" type="line"/>
    </contour>
  </outline>
</glyph>
<glyph name="M" format="2">
  <advance width="1287.8"/>
  <unicode hex="004D"/>
  <outline>
    <contour>
      <point x="105.14999999999999" y="0.0" type="line"/>
      <point x="276.40000000000003" y="0.0" type="line"/>
      <point x="276.40000000000003" y="494.49999999999994" type="line"/>
      <point x="601.9499999999999" y="181.89999999999998" type="line"/>
      <point x="680.9" y="181.89999999999998" type="line"/>
      <point x="1011.4000000000001" y="500.65000000000003" type="line"/>
      <point x="1011.4000000000001" y="0.0" type="line"/>
      <point x="1182.65" y="0.0" type="line"/>
      <point x="1182.65" y="700.0" type="line"/>
      <point x="1007.9000000000001" y="700.0" type="line"/>
      <point x="647.2" y="340.4" type="line"/>
      <point x="290.90000000000003" y="700.0" type="line"/>
      <point x="105.14999999999999" y="700.0" type="line"/>
    </contour>
  </outline>
</glyph>
<glyph name="N" format="2">
  <advance width="1120.8"/>
  <unicode hex="004E"/>
  <anchor x="560.9000000000001" y="700.0" name="top"/>
  <anchor x="560.9000000000001" y="0.0" name="bottom"/>
  <outline>
    <contour>
      <point x="105.14999999999999" y="0.0" type="line"/>
      <point x="273.65000000000003" y="0.0" type="line"/>
      <point x="273.65000000000003" y="480.49999999999994" type="line"/>
      <point x="858.5000000000001" y="0.0" type="line"/>
      <point x="1015.65" y="0.0" type="line"/>
      <point x="1015.65" y="700.0" type="line"/>
      <point x="847.15" y="700.0" type="line"/>
      <point x="847.15" y="206.95000000000002" type="line"/>
      <point x="262.85" y="704.5" type="line"/>
      <point x="105.14999999999999" y="704.5" type="line"/>
    </contour>
  </outline>
</glyph>
<glyph name="O" format="2">
  <advance width="1195.2"/>
  <unicode hex="004F"/>
  <anchor x="697.75" y="-1.6499999999999995" name="ogonek"/>
  <anchor x="596.75" y="700.0" name="top"/>
  <anchor x="934.3000000000001" y="673.95" name="topright"/>
  <anchor x="597.75" y="0.0" name="bottom"/>
  <outline>
    <contour>
      <point x="597.3000000000001" y="108.9" type="curve" smooth="yes"/>
      <point x="419.6" y="108.9"/>
      <point x="249.4" y="168.3"/>
      <point x="249.4" y="351.1" type="curve" smooth="yes"/>
      <point x="249.4" y="537.45"/>
      <point x="416.95000000000005" y="592.0"/>
      <point x="597.3000000000001" y="592.0" type="curve" smooth="yes"/>
      <point x="781.4" y="592.0"/>
      <point x="944.8999999999999" y="532.4"/>
      <point x="944.8999999999999" y="351.09999999999997" type="curve" smooth="yes"/>
      <point x="944.8999999999999" y="168.60000000000002"/>
      <point x="780.75" y="108.9"/>
    </contour>
    <contour>
      <point x="597.75" y="-10.0" type="curve" smooth="yes"/>
      <point x="911.5999999999999" y="-10.0"/>
      <point x="1133.55" y="84.85000000000001"/>
      <point x="1133.55" y="354.90000000000003" type="curve" smooth="yes"/>
      <point x="1133.55" y="611.3000000000001"/>
      <point x="919.3" y="710.0"/>
      <point x="597.3000000000001" y="710.0" type="curve" smooth="yes"/>
      <point x="272.3" y="710.0"/>
      <point x="61.65" y="609.4999999999999"/>
      <point x="61.65" y="352.65" type="curve" smooth="yes"/>
      <point x="61.65" y="92.5"/>
      <point x="285.4" y="-10.0"/>
    </contour>
  </outline>
</glyph>
<glyph name="P" format="2">
  <advance width="1089.15"/>
  <unicode hex="0050"/>
  <outline>
    <contour>
      <point x="105.14999999999999" y="0.0" type="line"/>
      <point x="290.15" y="0.0" type="line"/>
      <point x="290.15" y="204.35" type="line"/>
      <point x="451.59999999999997" y="200.35"/>
      <point x="453.55" y="199.89999999999998"/>
      <point x="602.65" y="199.89999999999998" type="curve" smooth="yes"/>
      <point x="936.15" y="199.89999999999998"/>
      <point x="1043.7" y="264.65000000000003"/>
      <point x="1043.7" y="458.25" type="curve" smooth="yes"/>
      <point x="1043.7" y="644.2"/>
      <point x="951.4499999999999" y="710.0"/>
      <point x="542.45" y="710.0" type="curve" smooth="yes"/>
      <point x="479.0" y="710.0"/>
      <point x="344.2" y="707.4499999999999"/>
      <point x="105.14999999999999" y="700.0" type="curve"/>
    </contour>
    <contour>
      <point x="290.15000000000003" y="581.55" type="line"/>
      <point x="444.45" y="587.3499999999999"/>
      <point x="485.24999999999994" y="588.25"/>
      <point x="557.3" y="588.25" type="curve" smooth="yes"/>
      <point x="796.3499999999999" y="588.25"/>
      <point x="854.85" y="548.5"/>
      <point x="854.85" y="457.7" type="curve" smooth="yes"/>
      <point x="854.85" y="359.95"/>
      <point x="806.3" y="323.3"/>
      <point x="525.1" y="323.3" type="curve" smooth="yes"/>
      <point x="442.35" y="323.3"/>
      <point x="396.95" y="325.2"/>
      <point x="290.15000000000003" y="328.75" type="curve"/>
    </contour>
  </outline>
</glyph>
<glyph name="Q" format="2">
  <advance width="1195.2"/>
  <unicode hex="0051"/>
  <outline>
    <contour>
      <point x="803.5999999999999" y="23.300000000000004" type="curve"/>
      <point x="631.8" y="2.3999999999999995" type="line"/>
      <point x="704.6999999999999" y="-130.1"/>
      <point x="801.4" y="-209.65"/>
      <point x="936.15" y="-209.65" type="curve" smooth="yes"/>
      <point x="981.4499999999999" y="-209.65"/>
      <point x="1032.9" y="-201.3"/>
      <point x="1088.35" y="-181.35000000000002" type="curve"/>
      <point x="1067.15" y="-58.94999999999999" type="line"/>
      <point x="1032.85" y="-72.49999999999999"/>
      <point x="1000.3499999999999" y="-79.0"/>
      <point x="971.3499999999999" y="-79.0" type="curve" smooth="yes"/>
      <point x="900.05" y="-79.0"/>
      <point x="847.55" y="-38.050000000000004"/>
    </contour>
    <component base="O"/>
  </outline>
</glyph>
<glyph name="R" format="2">
  <advance width="1106.2"/>
  <unicode hex="0052"/>
  <anchor x="553.4" y="700.0" name="top"/>
  <anchor x="566.0" y="0.0" name="bottom"/>
  <outline>
    <contour>
      <point x="1048.8000000000002" y="-10.0" type="curve" smooth="yes"/>
      <point x="1057.1999999999998" y="-10.0"/>
      <point x="1068.7" y="-9.899999999999999"/>
      <point x="1076.8000000000002" y="-8.9" type="curve"/>
      <point x="1076.8000000000002" y="139.6" type="line"/>
      <point x="1069.7" y="138.70000000000002"/>
      <point x="1061.5000000000002" y="138.60000000000002"/>
      <point x="1055.2" y="138.60000000000002" type="curve" smooth="yes"/>
      <point x="977.6" y="138.60000000000002"/>
      <point x="869.9000000000001" y="207.99999999999997"/>
      <point x="760.2" y="284.6" type="curve"/>
      <point x="918.6999999999999" y="304.7"/>
      <point x="1024.7" y="351.1"/>
      <point x="1024.7" y="497.59999999999997" type="curve" smooth="yes"/>
      <point x="1024.7" y="654.5"/>
      <point x="901.8000000000001" y="710.0"/>
      <point x="525.3000000000001" y="710.0" type="curve" smooth="yes"/>
      <point x="431.0" y="710.0"/>
      <point x="301.9" y="707.9000000000001"/>
      <point x="105.6" y="700.9" type="curve"/>
      <point x="105.6" y="0.0" type="line"/>
      <point x="290.59999999999997" y="0.0" type="line"/>
      <point x="290.59999999999997" y="250.9" type="line"/>
      <point x="351.0" y="249.1"/>
      <point x="417.59999999999997" y="248.20000000000002"/>
      <point x="469.90000000000003" y="248.20000000000002" type="curve" smooth="yes"/>
      <point x="486.3999999999999" y="248.20000000000002"/>
      <point x="518.2" y="247.29999999999998"/>
      <point x="534.7" y="247.29999999999995" type="curve"/>
      <point x="709.0" y="123.1"/>
      <point x="903.9" y="-10.0"/>
    </contour>
    <contour>
      <point x="525.2" y="372.19999999999993" type="curve" smooth="yes"/>
      <point x="450.40000000000003" y="372.19999999999993"/>
      <point x="385.3" y="374.1"/>
      <point x="290.59999999999997" y="377.20000000000005" type="curve"/>
      <point x="290.59999999999997" y="589.5" type="line"/>
      <point x="406.5" y="594.4"/>
      <point x="435.5" y="594.4"/>
      <point x="537.3000000000001" y="594.4" type="curve" smooth="yes"/>
      <point x="762.5" y="594.4"/>
      <point x="834.3" y="566.4"/>
      <point x="834.3" y="478.29999999999995" type="curve" smooth="yes"/>
      <point x="834.3" y="393.59999999999997"/>
      <point x="770.5999999999999" y="372.19999999999993"/>
    </contour>
  </outline>
</glyph>
<glyph name="S" format="2">
  <advance width="1007.6999999999999"/>
  <unicode hex="0053"/>
  <anchor x="508.7" y="700.0" name="top"/>
  <anchor x="498.4" y="0.0" name="bottom"/>
  <outline>
    <contour>
      <point x="903.6" y="666.4" type="line"/>
      <point x="844.1999999999999" y="677.5"/>
      <point x="696.1999999999999" y="710.0"/>
      <point x="519.4" y="710.0" type="curve" smooth="yes"/>
      <point x="211.6" y="710.0"/>
      <point x="62.300000000000004" y="650.4"/>
      <point x="62.300000000000004" y="491.7" type="curve" smooth="yes"/>
      <point x="62.300000000000004" y="353.9"/>
      <point x="198.2" y="306.8"/>
      <point x="387.09999999999997" y="287.7" type="curve" smooth="yes"/>
      <point x="618.1000000000001" y="264.79999999999995"/>
      <point x="773.8000000000001" y="263.0"/>
      <point x="773.8000000000001" y="192.2" type="curve" smooth="yes"/>
      <point x="773.8000000000001" y="134.7"/>
      <point x="692.1" y="112.60000000000001"/>
      <point x="515.1999999999999" y="112.60000000000001" type="curve" smooth="yes"/>
      <point x="352.5" y="112.60000000000001"/>
      <point x="158.90000000000003" y="151.4"/>
      <point x="58.0" y="181.79999999999998" type="curve"/>
      <point x="25.599999999999994" y="52.4" type="line"/>
      <point x="123.8" y="25.599999999999998"/>
      <point x="315.6" y="-10.0"/>
      <point x="488.80000000000007" y="-10.0" type="curve" smooth="yes"/>
      <point x="795.5999999999999" y="-10.0"/>
      <point x="967.6" y="49.00000000000001"/>
      <point x="967.6" y="209.8" type="curve" smooth="yes"/>
      <point x="967.6" y="353.59999999999997"/>
      <point x="819.3" y="394.1"/>
      <point x="594.9" y="414.6" type="curve" smooth="yes"/>
      <point x="380.59999999999997" y="434.1"/>
      <point x="255.1" y="435.70000000000005"/>
      <point x="255.1" y="508.0" type="curve" smooth="yes"/>
      <point x="255.1" y="562.0"/>
      <point x="338.0" y="588.6000000000001"/>
      <point x="504.00000000000006" y="588.6000000000001" type="curve" smooth="yes"/>
      <point x="657.3" y="588.6000000000001"/>
      <point x="823.9" y="555.0000000000001"/>
      <point x="873.4000000000001" y="540.7" type="curve"/>
    </contour>
  </outline>
</glyph>
<glyph name="T" format="2">
  <advance width="972.4"/>
  <unicode hex="0054"/>
  <anchor x="486.2" y="700.0" name="top"/>
  <anchor x="486.2" y="0.0" name="bottom"/>
  <outline>
    <contour>
      <point x="950.45" y="559.45" type="line"/>
      <point x="950.45" y="700.0" type="line"/>
      <point x="21.950000000000003" y="700.0" type="line"/>
      <point x="21.950000000000003" y="559.45" type="line"/>
      <point x="393.7" y="559.45" type="line"/>
      <point x="393.7" y="0.0" type="line"/>
      <point x="578.7" y="0.0" type="line"/>
      <point x="578.7" y="559.45" type="line"/>
    </contour>
  </outline>
</glyph>
<glyph name="U" format="2">
  <advance width="1131.1"/>
  <unicode hex="0055"/>
  <anchor x="668.75" y="0.0" name="ogonek"/>
  <anchor x="565.55" y="700.0" name="top"/>
  <anchor x="1043.3" y="700.0" name="topright"/>
  <anchor x="565.55" y="0.0" name="bottom"/>
  <outline>
    <contour>
      <point x="87.8" y="292.0" type="line"/>
      <point x="87.8" y="70.6"/>
      <point x="279.0" y="-10.0"/>
      <point x="565.5500000000001" y="-10.0" type="curve" smooth="yes"/>
      <point x="852.0999999999999" y="-10.0"/>
      <point x="1043.3" y="70.6"/>
      <point x="1043.3" y="292.0" type="curve" smooth="yes"/>
      <point x="1043.3" y="700.0" type="line"/>
      <point x="862.6999999999999" y="700.0" type="line"/>
      <point x="862.6999999999999" y="309.59999999999997" type="line" smooth="yes"/>
      <point x="862.6999999999999" y="165.8"/>
      <point x="728.8" y="118.35000000000001"/>
      <point x="567.2" y="118.35000000000001" type="curve" smooth="yes"/>
      <point x="409.45" y="118.35000000000001"/>
      <point x="268.40000000000003" y="160.85"/>
      <point x="268.40000000000003" y="309.59999999999997" type="curve" smooth="yes"/>
      <point x="268.40000000000003" y="700.0" type="line"/>
      <point x="87.8" y="700.0" type="line"/>
    </contour>
  </outline>
</glyph>
<glyph name="V" format="2">
  <advance width="1037.9500000000003"/>
  <unicode hex="0056"/>
  <outline>
    <contour>
      <point x="425.25" y="0.0" type="line"/>
      <point x="613.15" y="0.0" type="line"/>
      <point x="1036.0500000000002" y="697.75" type="line"/>
      <point x="835.3" y="702.6999999999999" type="line"/>
      <point x="520.3" y="152.3" type="line"/>
      <point x="204.4" y="702.6999999999999" type="line"/>
      <point x="1.8999999999999995" y="697.75" type="line"/>
    </contour>
  </outline>
</glyph>
<glyph name="W" format="2">
  <advance width="1320.6"/>
  <unicode hex="0057"/>
  <anchor x="660.35" y="700.0" name="top"/>
  <anchor x="660.35" y="0.0" name="bottom"/>
  <outline>
    <contour>
      <point x="1053.6999999999998" y="0.0" type="line"/>
      <point x="1315.5" y="698.65" type="line"/>
      <point x="1119.9499999999998" y="701.8" type="line"/>
      <point x="970.8999999999999" y="189.15" type="line"/>
      <point x="756.15" y="661.9999999999999" type="line"/>
      <point x="574.1" y="661.9999999999999" type="line"/>
      <point x="350.0" y="187.05" type="line"/>
      <point x="197.35000000000002" y="701.8" type="line"/>
      <point x="5.099999999999998" y="698.65" type="line"/>
      <point x="260.4" y="0.0" type="line"/>
      <point x="431.0" y="0.0" type="line"/>
      <point x="655.15" y="456.45000000000005" type="line"/>
      <point x="868.05" y="0.0" type="line"/>
    </contour>
  </outline>
</glyph>
<glyph name="X" format="2">
  <advance width="986.2000000000002"/>
  <unicode hex="0058"/>
  <outline>
    <contour>
      <point x="8.6" y="3.6" type="line"/>
      <point x="219.60000000000002" y="-3.5999999999999996" type="line"/>
      <point x="492.2" y="269.2" type="line"/>
      <point x="755.3" y="-3.5999999999999996" type="line"/>
      <point x="977.6000000000001" y="3.6" type="line"/>
      <point x="614.1" y="362.8" type="line"/>
      <point x="957.3" y="696.4" type="line"/>
      <point x="760.7" y="701.8" type="line"/>
      <point x="502.4" y="453.6" type="line"/>
      <point x="260.90000000000003" y="703.6" type="line"/>
      <point x="35.5" y="696.4" type="line"/>
      <point x="389.29999999999995" y="361.4" type="line"/>
    </contour>
  </outline>
</glyph>
<glyph name="Y" format="2">
  <advance width="1025.8"/>
  <unicode hex="0059"/>
  <anchor x="512.9" y="700.0" name="top"/>
  <anchor x="516.05" y="0.0" name="bottom"/>
  <outline>
    <contour>
      <point x="423.54999999999995" y="0.0" type="line"/>
      <point x="608.5500000000001" y="0.0" type="line"/>
      <point x="608.5500000000001" y="265.15" type="line"/>
      <point x="1023.9" y="696.4" type="line"/>
      <point x="822.6999999999999" y="703.6" type="line"/>
      <point x="517.15" y="361.8" type="line"/>
      <point x="205.3" y="703.6" type="line"/>
      <point x="1.8999999999999986" y="696.4" type="line"/>
      <point x="423.54999999999995" y="265.15" type="line"/>
    </contour>
  </outline>
</glyph>
<glyph name="Z" format="2">
  <advance width="992.7"/>
  <unicode hex="005A"/>
  <anchor x="495.59999999999997" y="350.0" name="center"/>
  <anchor x="495.59999999999997" y="0.0" name="bottom"/>
  <anchor x="498.75" y="700.0" name="top"/>
  <outline>
    <contour>
      <point x="41.050000000000004" y="0.0" type="line"/>
      <point x="956.1500000000001" y="0.0" type="line"/>
      <point x="956.1500000000001" y="124.95000000000002" type="line"/>
      <point x="311.3" y="124.95000000000002" type="line"/>
      <point x="311.3" y="126.50000000000001" type="line"/>
      <point x="910.3000000000001" y="589.2" type="line"/>
      <point x="910.3000000000001" y="700.0" type="line"/>
      <point x="65.35" y="700.0" type="line"/>
      <point x="65.35" y="575.9499999999999" type="line"/>
      <point x="646.25" y="575.9499999999999" type="line"/>
      <point x="646.25" y="573.5" type="line"/>
      <point x="41.050000000000004" y="111.7" type="line"/>
    </contour>
  </outline>
</glyph>
<glyph name="bracketleft" format="2">
  <advance width="484.7"/>
  <unicode hex="005B"/>
  <outline>
    <contour>
      <point x="223.45" y="-114.1" type="line"/>
      <point x="223.45" y="644.1" type="line"/>
      <point x="443.1" y="644.1" type="line"/>
      <point x="443.1" y="740.0" type="line"/>
      <point x="87.94999999999999" y="740.0" type="line"/>
      <point x="87.94999999999999" y="-210.0" type="line"/>
      <point x="443.1" y="-210.0" type="line"/>
      <point x="443.1" y="-114.1" type="line"/>
    </contour>
  </outline>
</glyph>
<glyph name="backslash" format="2">
  <advance width="553.65"/>
  <unicode hex="005C"/>
  <outline>
    <contour>
      <point x="143.65" y="740.0" type="line"/>
      <point x="10.0" y="740.0" type="line"/>
      <point x="410.0" y="-210.0" type="line"/>
      <point x="543.65" y="-210.0" type="line"/>
    </contour>
  </outline>
</glyph>
<glyph name="bracketright" format="2">
  <advance width="484.7"/>
  <unicode hex="005D"/>
  <outline>
    <contour>
      <point x="41.6" y="-114.1" type="line"/>
      <point x="41.6" y="-210.0" type="line"/>
      <point x="396.75" y="-210.0" type="line"/>
      <point x="396.75" y="740.0" type="line"/>
      <point x="41.6" y="740.0" type="line"/>
      <point x="41.6" y="644.1" type="line"/>
      <point x="261.25" y="644.1" type="line"/>
      <point x="261.25" y="-114.1" type="line"/>
    </contour>
  </outline>
</glyph>
<glyph name="asciicircum" format="2">
  <advance width="682.1"/>
  <unicode hex="005E"/>
  <outline>
    <contour>
      <point x="49.650000000000006" y="235.29999999999998" type="line"/>
      <point x="189.25000000000003" y="235.29999999999998" type="line"/>
      <point x="341.05" y="532.55" type="line"/>
      <point x="493.4" y="235.29999999999998" type="line"/>
      <point x="632.45" y="235.29999999999998" type="line"/>
      <point x="411.55" y="704.5" type="line"/>
      <point x="270.55" y="704.5" type="line"/>
    </contour>
  </outline>
</glyph>
<glyph name="underscore" format="2">
  <advance width="1022.0"/>
  <unicode hex="005F"/>
  <outline>
    <contour>
      <point x="11.0" y="-176.70000000000002" type="line"/>
      <point x="1011.0" y="-176.70000000000002" type="line"/>
      <point x="1011.0" y="-75.3" type="line"/>
      <point x="11.0" y="-75.3" type="line"/>
    </contour>
  </outline>
</glyph>
<glyph name="a" format="2">
  <advance width="839.6999999999999"/>
  <unicode hex="0061"/>
  <anchor x="798.5999999999999" y="4.600000000000001" name="ogonek"/>
  <anchor x="418.09999999999997" y="0.0" name="bottom"/>
  <anchor x="419.0" y="541.0" name="top"/>
  <outline>
    <contour>
      <point x="51.400000000000006" y="145.2" type="curve" smooth="yes"/>
      <point x="51.400000000000006" y="25.699999999999996"/>
      <point x="150.8" y="-10.0"/>
      <point x="258.1" y="-10.0" type="curve" smooth="yes"/>
      <point x="388.7" y="-10.0"/>
      <point x="486.5" y="21.699999999999996"/>
      <point x="572.9" y="79.69999999999999" type="curve"/>
      <point x="591.3" y="5.800000000000001"/>
      <point x="647.1" y="-10.0"/>
      <point x="721.6999999999999" y="-10.0" type="curve" smooth="yes"/>
      <point x="760.9999999999999" y="-10.0"/>
      <point x="801.3000000000001" y="-0.29999999999999893"/>
      <point x="831.6" y="19.900000000000002" type="curve"/>
      <point x="815.6999999999999" y="117.70000000000002" type="line"/>
      <point x="804.9" y="113.7"/>
      <point x="792.9" y="112.8"/>
      <point x="783.1" y="112.8" type="curve" smooth="yes"/>
      <point x="752.0" y="112.8"/>
      <point x="732.0" y="130.0"/>
      <point x="732.0" y="190.70000000000002" type="curve" smooth="yes"/>
      <point x="732.0" y="351.80000000000007" type="line" smooth="yes"/>
      <point x="732.0" y="491.3"/>
      <point x="618.9" y="551.0"/>
      <point x="389.2" y="551.0" type="curve" smooth="yes"/>
      <point x="291.7" y="551.0"/>
      <point x="188.6" y="535.9"/>
      <point x="97.7" y="515.1" type="curve"/>
      <point x="116.99999999999997" y="406.0" type="line"/>
      <point x="197.09999999999997" y="425.40000000000003"/>
      <point x="303.90000000000003" y="439.6"/>
      <point x="379.1" y="439.6" type="curve" smooth="yes"/>
      <point x="499.59999999999997" y="439.6"/>
      <point x="560.5" y="410.4"/>
      <point x="560.5" y="349.5" type="curve" smooth="yes"/>
      <point x="560.5" y="321.40000000000003" type="line"/>
      <point x="199.0" y="317.1"/>
      <point x="51.400000000000006" y="293.5"/>
    </contour>
    <contour>
      <point x="230.8" y="152.0" type="curve" smooth="yes"/>
      <point x="230.8" y="229.7"/>
      <point x="332.9" y="239.1"/>
      <point x="560.4999999999999" y="242.2" type="curve"/>
      <point x="560.5" y="160.6" type="line"/>
      <point x="493.40000000000003" y="112.5"/>
      <point x="379.40000000000003" y="84.9"/>
      <point x="323.7" y="84.9" type="curve" smooth="yes"/>
      <point x="264.90000000000003" y="84.9"/>
      <point x="230.8" y="106.9"/>
    </contour>
  </outline>
</glyph>
<glyph name="b" format="2">
  <advance width="898.4000000000001"/>
  <unicode hex="0062"/>
  <outline>
    <contour>
      <point x="85.5" y="22.1" type="line"/>
      <point x="224.95" y="0.5499999999999998"/>
      <point x="338.45" y="-10.0"/>
      <point x="435.6" y="-10.0" type="curve" smooth="yes"/>
      <point x="718.25" y="-10.0"/>
      <point x="849.15" y="82.85"/>
      <point x="849.15" y="281.7" type="curve" smooth="yes"/>
      <point x="849.15" y="450.15000000000003"/>
      <point x="743.65" y="551.0"/>
      <point x="566.6" y="551.0" type="curve" smooth="yes"/>
      <point x="462.5" y="551.0"/>
      <point x="372.40000000000003" y="522.8"/>
      <point x="259.5" y="453.0" type="curve"/>
      <point x="259.5" y="740.0" type="line"/>
      <point x="85.5" y="740.0" type="line"/>
    </contour>
    <contour>
      <point x="259.5" y="118.95" type="curve"/>
      <point x="259.5" y="350.7" type="line"/>
      <point x="351.4" y="403.35"/>
      <point x="422.90000000000003" y="425.4"/>
      <point x="495.65" y="425.4" type="curve" smooth="yes"/>
      <point x="607.0" y="425.4"/>
      <point x="672.95" y="369.5"/>
      <point x="672.95" y="274.0" type="curve" smooth="yes"/>
      <point x="672.95" y="157.65"/>
      <point x="592.95" y="98.10000000000001"/>
      <point x="437.25" y="98.10000000000001" type="curve" smooth="yes"/>
      <point x="385.2" y="98.10000000000001"/>
      <point x="323.85" y="104.9"/>
    </contour>
  </outline>
</glyph>
<glyph name="c" format="2">
  <advance width="833.15"/>
  <unicode hex="0063"/>
  <anchor x="462.75" y="541.0" name="top"/>
  <anchor x="461.09999999999997" y="0.0" name="bottom"/>
  <outline>
    <contour>
      <point x="49.7" y="253.1" type="curve" smooth="yes"/>
      <point x="49.7" y="78.49999999999999"/>
      <point x="187.85" y="-10.0"/>
      <point x="459.55" y="-10.0" type="curve" smooth="yes"/>
      <point x="569.5500000000001" y="-10.0"/>
      <point x="692.4" y="4.25"/>
      <point x="796.9000000000001" y="28.15" type="curve"/>
      <point x="778.15" y="128.39999999999998" type="line"/>
      <point x="677.25" y="108.80000000000001"/>
      <point x="584.9" y="97.85000000000001"/>
      <point x="492.25" y="97.85000000000001" type="curve" smooth="yes"/>
      <point x="323.85" y="97.85000000000001"/>
      <point x="224.1" y="137.95000000000002"/>
      <point x="224.1" y="259.25000000000006" type="curve" smooth="yes"/>
      <point x="224.1" y="390.75"/>
      <point x="318.15" y="440.84999999999997"/>
      <point x="479.7" y="440.84999999999997" type="curve" smooth="yes"/>
      <point x="559.95" y="440.84999999999997"/>
      <point x="665.1999999999999" y="429.24999999999994"/>
      <point x="761.8499999999999" y="410.9" type="curve"/>
      <point x="779.7" y="517.85" type="line"/>
      <point x="692.2" y="538.2"/>
      <point x="575.6" y="551.0"/>
      <point x="476.95000000000005" y="551.0" type="curve" smooth="yes"/>
      <point x="209.35000000000002" y="551.0"/>
      <point x="49.7" y="444.7"/>
    </contour>
  </outline>
</glyph>
<glyph name="d" format="2">
  <advance width="899.4000000000001"/>
  <unicode hex="0064"/>
  <anchor x="452.9" y="275.0" name="center"/>
  <anchor x="443.4" y="740.0" name="top"/>
  <anchor x="893.5000000000001" y="740.0" name="topright"/>
  <anchor x="452.9" y="0.0" name="bottom"/>
  <outline>
    <contour>
      <point x="667.8000000000001" y="-2.2" type="line"/>
      <point x="813.9000000000001" y="-2.2" type="line"/>
      <point x="813.9000000000001" y="740.0" type="line"/>
      <point x="639.9000000000001" y="740.0" type="line"/>
      <point x="639.9000000000001" y="538.1" type="line"/>
      <point x="581.2" y="546.4"/>
      <point x="518.9" y="551.0"/>
      <point x="462.8" y="551.0" type="curve" smooth="yes"/>
      <point x="180.59999999999997" y="551.0"/>
      <point x="49.7" y="458.6"/>
      <point x="49.7" y="259.3" type="curve" smooth="yes"/>
      <point x="49.7" y="91.39999999999999"/>
      <point x="155.29999999999998" y="-10.0"/>
      <point x="331.8" y="-10.0" type="curve" smooth="yes"/>
      <point x="435.9" y="-10.0"/>
      <point x="526.0" y="18.2"/>
      <point x="638.9000000000001" y="87.99999999999999" type="curve"/>
    </contour>
    <contour>
      <point x="638.9000000000001" y="190.3" type="line"/>
      <point x="547.0" y="138.1"/>
      <point x="475.5" y="115.60000000000001"/>
      <point x="403.2" y="115.60000000000001" type="curve" smooth="yes"/>
      <point x="291.40000000000003" y="115.60000000000001"/>
      <point x="225.9" y="171.5"/>
      <point x="225.9" y="267.0" type="curve" smooth="yes"/>
      <point x="225.9" y="383.79999999999995"/>
      <point x="305.9" y="442.9"/>
      <point x="461.6" y="442.9" type="curve" smooth="yes"/>
      <point x="514.2" y="442.9"/>
      <point x="575.0" y="436.09999999999997"/>
      <point x="638.9000000000001" y="422.5" type="curve"/>
    </contour>
  </outline>
</glyph>
<glyph name="e" format="2">
  <advance width="860.3000000000001"/>
  <unicode hex="0065"/>
  <anchor x="746.8000000000001" y="17.5" name="ogonek"/>
  <anchor x="441.9" y="0.0" name="bottom"/>
  <anchor x="448.5" y="541.0" name="top"/>
  <outline>
    <contour>
      <point x="447.1" y="-10.0" type="curve" smooth="yes"/>
      <point x="590.4000000000001" y="-10.0"/>
      <point x="709.5" y="7.099999999999998"/>
      <point x="805.9000000000001" y="28.700000000000003" type="curve"/>
      <point x="788.6" y="134.50000000000003" type="line"/>
      <point x="689.8" y="116.2"/>
      <point x="570.1000000000001" y="100.2"/>
      <point x="464.7" y="100.2" type="curve" smooth="yes"/>
      <point x="315.3" y="100.2"/>
      <point x="226.6" y="138.70000000000002"/>
      <point x="226.4" y="212.7" type="curve" smooth="yes"/>
      <point x="226.4" y="219.1"/>
      <point x="226.4" y="223.6"/>
      <point x="227.3" y="230.0" type="curve"/>
      <point x="506.2" y="232.30000000000004"/>
      <point x="714.8" y="245.79999999999998"/>
      <point x="807.3000000000001" y="249.89999999999998" type="curve"/>
      <point x="808.4" y="270.7"/>
      <point x="808.4" y="292.4"/>
      <point x="808.4" y="304.0" type="curve" smooth="yes"/>
      <point x="808.4" y="474.2"/>
      <point x="693.8000000000001" y="551.0"/>
      <point x="461.7" y="551.0" type="curve" smooth="yes"/>
      <point x="245.7" y="551.0"/>
      <point x="49.699999999999996" y="463.09999999999997"/>
      <point x="49.699999999999996" y="253.6" type="curve" smooth="yes"/>
      <point x="49.699999999999996" y="74.2"/>
      <point x="199.7" y="-10.0"/>
    </contour>
    <contour>
      <point x="229.20000000000002" y="324.70000000000005" type="curve"/>
      <point x="252.39999999999998" y="416.4"/>
      <point x="358.8" y="448.7"/>
      <point x="453.9" y="448.7" type="curve" smooth="yes"/>
      <point x="576.7" y="448.7"/>
      <point x="630.2" y="408.2"/>
      <point x="634.6" y="336.9" type="curve"/>
      <point x="581.1" y="334.0"/>
      <point x="415.9" y="325.8"/>
    </contour>
  </outline>
</glyph>
<glyph name="f" format="2">
  <advance width="605.25"/>
  <unicode hex="0066"/>
  <outline>
    <contour>
      <point x="148.14999999999998" y="0.0" type="line"/>
      <point x="319.95" y="0.0" type="line"/>
      <point x="319.95" y="376.54999999999995" type="line"/>
      <point x="580.35" y="376.54999999999995" type="line"/>
      <point x="580.35" y="484.0" type="line"/>
      <point x="319.95" y="484.0" type="line"/>
      <point x="319.95" y="496.25" type="line" smooth="yes"/>
      <point x="319.95" y="594.85"/>
      <point x="375.95" y="633.1"/>
      <point x="475.2" y="633.1" type="curve" smooth="yes"/>
      <point x="529.45" y="633.1"/>
      <point x="591.65" y="623.3000000000001"/>
      <point x="646.0" y="608.4499999999999" type="curve"/>
      <point x="665.85" y="717.0" type="line"/>
      <point x="589.75" y="739.8000000000001"/>
      <point x="516.3499999999999" y="750.45"/>
      <point x="439.84999999999997" y="750.45" type="curve" smooth="yes"/>
      <point x="256.0" y="750.45"/>
      <point x="148.14999999999998" y="670.5999999999999"/>
      <point x="148.14999999999998" y="499.55000000000007" type="curve" smooth="yes"/>
      <point x="148.14999999999998" y="484.0" type="line"/>
      <point x="27.950000000000003" y="470.75" type="line"/>
      <point x="27.950000000000003" y="376.54999999999995" type="line"/>
      <point x="148.14999999999998" y="376.54999999999995" type="line"/>
    </contour>
  </outline>
</glyph>
<glyph name="g" format="2">
  <advance width="889.3000000000001"/>
  <unicode hex="0067"/>
  <anchor x="432.40000000000003" y="541.0" name="top"/>
  <anchor x="413.5" y="-220.0" name="bottom"/>
  <outline>
    <contour>
      <point x="386.1" y="-220.0" type="curve" smooth="yes"/>
      <point x="729.7" y="-220.0"/>
      <point x="862.4" y="-148.2"/>
      <point x="862.4" y="-14.199999999999994" type="curve" smooth="yes"/>
      <point x="862.4" y="71.8"/>
      <point x="798.9999999999999" y="126.1"/>
      <point x="673.0" y="126.1" type="curve" smooth="yes"/>
      <point x="314.1" y="126.1" type="line" smooth="yes"/>
      <point x="245.8" y="126.1"/>
      <point x="210.4" y="142.9"/>
      <point x="210.4" y="178.70000000000002" type="curve" smooth="yes"/>
      <point x="210.4" y="206.29999999999998"/>
      <point x="233.6" y="223.6"/>
      <point x="272.5" y="239.3" type="curve"/>
      <point x="184.10000000000002" y="264.9" type="line"/>
      <point x="107.2" y="236.9"/>
      <point x="63.900000000000006" y="196.4"/>
      <point x="63.900000000000006" y="136.39999999999998" type="curve" smooth="yes"/>
      <point x="63.900000000000006" y="33.69999999999998"/>
      <point x="171.2" y="4.899999999999995"/>
      <point x="331.9" y="4.899999999999995" type="curve" smooth="yes"/>
      <point x="603.6999999999999" y="4.899999999999995" type="line" smooth="yes"/>
      <point x="666.1999999999999" y="4.899999999999995"/>
      <point x="694.1" y="-2.3000000000000016"/>
      <point x="694.1" y="-36.3" type="curve" smooth="yes"/>
      <point x="694.1" y="-87.1"/>
      <point x="625.1" y="-121.39999999999999"/>
      <point x="408.00000000000006" y="-121.39999999999999" type="curve" smooth="yes"/>
      <point x="232.1" y="-121.39999999999999"/>
      <point x="166.9" y="-96.6"/>
      <point x="166.9" y="-45.0" type="curve" smooth="yes"/>
      <point x="166.9" y="-14.999999999999998"/>
      <point x="179.3" y="11.599999999999998"/>
      <point x="254.80000000000007" y="24.5" type="curve"/>
      <point x="164.1" y="52.79999999999999" type="line"/>
      <point x="34.6" y="26.1"/>
      <point x="20.7" y="-25.1"/>
      <point x="20.7" y="-76.0" type="curve" smooth="yes"/>
      <point x="20.7" y="-172.70000000000002"/>
      <point x="139.50000000000003" y="-220.0"/>
    </contour>
    <contour>
      <point x="429.7" y="204.5" type="curve" smooth="yes"/>
      <point x="666.5999999999999" y="204.5"/>
      <point x="777.8000000000001" y="263.70000000000005"/>
      <point x="777.8000000000001" y="378.7" type="curve" smooth="yes"/>
      <point x="777.8000000000001" y="492.8"/>
      <point x="666.5999999999999" y="552.0"/>
      <point x="429.7" y="552.0" type="curve" smooth="yes"/>
      <point x="192.79999999999998" y="552.0"/>
      <point x="82.49999999999999" y="492.8"/>
      <point x="82.49999999999999" y="378.7" type="curve" smooth="yes"/>
      <point x="82.49999999999999" y="263.70000000000005"/>
      <point x="192.79999999999998" y="204.5"/>
    </contour>
    <contour>
      <point x="429.7" y="297.8" type="curve" smooth="yes"/>
      <point x="298.50000000000006" y="297.8"/>
      <point x="243.6" y="323.9"/>
      <point x="243.6" y="378.7" type="curve" smooth="yes"/>
      <point x="243.6" y="432.59999999999997"/>
      <point x="298.50000000000006" y="458.7"/>
      <point x="429.7" y="458.7" type="curve" smooth="yes"/>
      <point x="560.9000000000001" y="458.7"/>
      <point x="615.8000000000001" y="432.59999999999997"/>
      <point x="615.8000000000001" y="378.7" type="curve" smooth="yes"/>
      <point x="615.8000000000001" y="323.9"/>
      <point x="560.9000000000001" y="297.8"/>
    </contour>
    <contour>
      <point x="709.6" y="447.79999999999995" type="line"/>
      <point x="725.2" y="472.2"/>
      <point x="753.5" y="482.3999999999999"/>
      <point x="795.7" y="482.3999999999999" type="curve" smooth="yes"/>
      <point x="814.6" y="482.3999999999999"/>
      <point x="836.0" y="481.3"/>
      <point x="855.8" y="477.3" type="curve"/>
      <point x="869.8000000000001" y="584.2" type="line"/>
      <point x="846.4" y="587.1999999999999"/>
      <point x="829.0000000000001" y="588.2"/>
      <point x="805.5" y="588.2" type="curve" smooth="yes"/>
      <point x="713.7" y="588.2"/>
      <point x="656.5" y="557.5000000000001"/>
      <point x="639.9" y="495.69999999999993" type="curve"/>
    </contour>
  </outline>
</glyph>
<glyph name="h" format="2">
  <advance width="892.45"/>
  <unicode hex="0068"/>
  <anchor x="440.95000000000005" y="395.0" name="center"/>
  <anchor x="446.45000000000005" y="0.0" name="bottom"/>
  <anchor x="445.9" y="740.0" name="top"/>
  <outline>
    <contour>
      <point x="85.5" y="0.0" type="line"/>
      <point x="259.5" y="0.0" type="line"/>
      <point x="259.5" y="364.8" type="line"/>
      <point x="345.04999999999995" y="401.2"/>
      <point x="407.05" y="425.95"/>
      <point x="490.04999999999995" y="425.95" type="curve" smooth="yes"/>
      <point x="585.3" y="425.95"/>
      <point x="632.9499999999999" y="378.35"/>
      <point x="632.9499999999999" y="284.05" type="curve" smooth="yes"/>
      <point x="632.9499999999999" y="0.0" type="line"/>
      <point x="806.95" y="0.0" type="line"/>
      <point x="806.95" y="343.45" type="line" smooth="yes"/>
      <point x="806.95" y="461.9"/>
      <point x="728.5" y="551.0"/>
      <point x="557.7" y="551.0" type="curve" smooth="yes"/>
      <point x="445.1" y="551.0"/>
      <point x="367.1" y="519.85"/>
      <point x="259.5" y="469.95000000000005" type="curve"/>
      <point x="259.5" y="740.0" type="line"/>
      <point x="85.5" y="740.0" type="line"/>
    </contour>
  </outline>
</glyph>
<glyph name="i" format="2">
  <advance width="345.0"/>
  <unicode hex="0069"/>
  <anchor x="259.05" y="0.0" name="ogonek"/>
  <anchor x="172.5" y="0.0" name="bottom"/>
  <outline>
    <contour>
      <point x="172.5" y="618.15" type="curve" smooth="yes"/>
      <point x="251.20000000000002" y="618.15"/>
      <point x="279.15000000000003" y="639.5"/>
      <point x="279.15000000000003" y="686.3" type="curve" smooth="yes"/>
      <point x="279.15000000000003" y="733.1"/>
      <point x="251.20000000000002" y="754.45"/>
      <point x="172.5" y="754.45" type="curve" smooth="yes"/>
      <point x="93.8" y="754.45"/>
      <point x="65.85" y="733.1"/>
      <point x="65.85" y="686.3" type="curve" smooth="yes"/>
      <point x="65.85" y="639.5"/>
      <point x="94.25" y="618.15"/>
    </contour>
    <contour>
      <point x="85.5" y="0.0" type="line"/>
      <point x="259.5" y="0.0" type="line"/>
      <point x="259.5" y="541.0" type="line"/>
      <point x="85.5" y="541.0" type="line"/>
    </contour>
  </outline>
</glyph>
<glyph name="j" format="2">
  <advance width="361.3"/>
  <unicode hex="006A"/>
  <outline>
    <contour>
      <point x="276.25" y="541.0" type="line"/>
      <point x="102.25" y="541.0" type="line"/>
      <point x="102.25" y="53.050000000000004" type="line" smooth="yes"/>
      <point x="102.25" y="-29.299999999999994"/>
      <point x="74.15" y="-67.95"/>
      <point x="12.899999999999999" y="-82.35" type="curve" smooth="yes"/>
      <point x="5.649999999999995" y="-85.04999999999998"/>
      <point x="-1.6000000000000014" y="-87.3"/>
      <point x="-9.299999999999999" y="-89.1" type="curve"/>
      <point x="-10.3" y="-210.95000000000002" type="line"/>
      <point x="11.599999999999996" y="-210.25"/>
      <point x="48.349999999999994" y="-209.2"/>
      <point x="68.8" y="-206.5" type="curve" smooth="yes"/>
      <point x="212.70000000000002" y="-190.75"/>
      <point x="276.25" y="-103.20000000000002"/>
      <point x="276.25" y="49.2" type="curve" smooth="yes"/>
    </contour>
    <contour>
      <point x="188.35" y="618.15" type="curve" smooth="yes"/>
      <point x="267.05" y="618.15"/>
      <point x="295.0" y="639.5"/>
      <point x="295.0" y="686.3" type="curve" smooth="yes"/>
      <point x="295.0" y="733.1"/>
      <point x="267.05" y="754.45"/>
      <point x="188.35" y="754.45" type="curve" smooth="yes"/>
      <point x="109.65" y="754.45"/>
      <point x="81.7" y="733.1"/>
      <point x="81.7" y="686.3" type="curve" smooth="yes"/>
      <point x="81.7" y="639.5"/>
      <point x="110.1" y="618.15"/>
    </contour>
  </outline>
</glyph>
<glyph name="k" format="2">
  <advance width="843.8000000000001"/>
  <unicode hex="006B"/>
  <anchor x="170.20000000000002" y="740.0" name="top"/>
  <anchor x="432.2" y="0.0" name="bottom"/>
  <outline>
    <contour>
      <point x="778.7" y="-9.999999999999998" type="curve" smooth="yes"/>
      <point x="797.0" y="-9.999999999999998"/>
      <point x="807.2" y="-9.899999999999999"/>
      <point x="815.5000000000001" y="-8.9" type="curve"/>
      <point x="813.6999999999999" y="140.90000000000003" type="line"/>
      <point x="805.4" y="139.9"/>
      <point x="797.1999999999999" y="139.9"/>
      <point x="789.7" y="139.9" type="curve" smooth="yes"/>
      <point x="739.4" y="139.9"/>
      <point x="673.4000000000001" y="166.4"/>
      <point x="520.1" y="256.40000000000003" type="curve" smooth="yes"/>
      <point x="254.0" y="412.90000000000003" type="line"/>
      <point x="254.0" y="740.0" type="line"/>
      <point x="85.5" y="740.0" type="line"/>
      <point x="85.5" y="0.0" type="line"/>
      <point x="254.0" y="0.0" type="line"/>
      <point x="254.0" y="254.99999999999997" type="line"/>
      <point x="499.2" y="105.89999999999999" type="line" smooth="yes"/>
      <point x="671.4" y="1.1"/>
      <point x="724.8000000000001" y="-9.999999999999998"/>
    </contour>
    <contour>
      <point x="429.1" y="263.9" type="line"/>
      <point x="541.0" y="314.4"/>
      <point x="719.4" y="413.5"/>
      <point x="785.5000000000001" y="540.1" type="curve"/>
      <point x="594.9000000000001" y="551.0" type="line"/>
      <point x="541.5000000000001" y="460.09999999999997"/>
      <point x="421.7" y="386.1"/>
      <point x="250.89999999999998" y="287.6" type="curve"/>
    </contour>
  </outline>
</glyph>
<glyph name="l" format="2">
  <advance width="450.35"/>
  <unicode hex="006C"/>
  <anchor x="224.85" y="395.0" name="center"/>
  <anchor x="172.5" y="740.0" name="top"/>
  <anchor x="339.1" y="740.0" name="topright"/>
  <anchor x="262.85" y="0.0" name="bottom"/>
  <outline>
    <contour>
      <point x="259.5" y="740.0" type="line"/>
      <point x="85.5" y="740.0" type="line"/>
      <point x="85.5" y="203.95" type="line" smooth="yes"/>
      <point x="85.5" y="37.45"/>
      <point x="165.15" y="-10.0"/>
      <point x="295.75" y="-10.0" type="curve" smooth="yes"/>
      <point x="357.15" y="-10.0"/>
      <point x="408.2" y="0.8500000000000005"/>
      <point x="453.45000000000005" y="16.450000000000003" type="curve"/>
      <point x="432.95" y="132.70000000000002" type="line"/>
      <point x="400.90000000000003" y="123.70000000000002"/>
      <point x="371.75" y="117.80000000000001"/>
      <point x="345.8" y="117.80000000000001" type="curve" smooth="yes"/>
      <point x="296.7" y="117.80000000000001"/>
      <point x="259.5" y="132.65"/>
      <point x="259.5" y="211.64999999999998" type="curve" smooth="yes"/>
    </contour>
  </outline>
</glyph>
<glyph name="m" format="2">
  <advance width="1333.45"/>
  <unicode hex="006D"/>
  <outline>
    <contour>
      <point x="85.5" y="0.0" type="line"/>
      <point x="259.5" y="0.0" type="line"/>
      <point x="259.5" y="361.65" type="line"/>
      <point x="327.09999999999997" y="397.85"/>
      <point x="380.55" y="420.95"/>
      <point x="452.4" y="420.95" type="curve" smooth="yes"/>
      <point x="559.9" y="420.95"/>
      <point x="580.8499999999999" y="343.4"/>
      <point x="580.8499999999999" y="281.8" type="curve" smooth="yes"/>
      <point x="580.8499999999999" y="0.0" type="line"/>
      <point x="754.85" y="0.0" type="line"/>
      <point x="754.85" y="300.5" type="line" smooth="yes"/>
      <point x="754.85" y="318.75"/>
      <point x="753.95" y="342.04999999999995"/>
      <point x="748.45" y="365.25" type="curve"/>
      <point x="800.75" y="390.85"/>
      <point x="864.8000000000001" y="423.75"/>
      <point x="945.9" y="423.75" type="curve" smooth="yes"/>
      <point x="1054.65" y="423.75"/>
      <point x="1073.9499999999998" y="346.3"/>
      <point x="1073.9499999999998" y="283.6" type="curve" smooth="yes"/>
      <point x="1073.9499999999998" y="0.0" type="line"/>
      <point x="1247.9499999999998" y="0.0" type="line"/>
      <point x="1247.9499999999998" y="343.0" type="line" smooth="yes"/>
      <point x="1247.9499999999998" y="438.65000000000003"/>
      <point x="1190.35" y="551.0"/>
      <point x="1026.2" y="551.0" type="curve" smooth="yes"/>
      <point x="906.1" y="551.0"/>
      <point x="820.25" y="510.4"/>
      <point x="716.25" y="455.2" type="curve"/>
      <point x="685.1999999999999" y="513.0500000000001"/>
      <point x="632.3" y="548.75"/>
      <point x="526.65" y="548.75" type="curve" smooth="yes"/>
      <point x="425.05" y="548.75"/>
      <point x="340.15" y="514.05"/>
      <point x="242.45" y="459.90000000000003" type="curve"/>
      <point x="242.45" y="541.0" type="line"/>
      <point x="85.5" y="541.0" type="line"/>
    </contour>
  </outline>
</glyph>
<glyph name="n" format="2">
  <advance width="892.4499999999999"/>
  <unicode hex="006E"/>
  <anchor x="446.8" y="541.0" name="top"/>
  <anchor x="447.7" y="0.0" name="bottom"/>
  <outline>
    <contour>
      <point x="85.5" y="0.0" type="line"/>
      <point x="259.5" y="0.0" type="line"/>
      <point x="259.5" y="364.8" type="line"/>
      <point x="345.04999999999995" y="401.2"/>
      <point x="407.05" y="425.95"/>
      <point x="490.05" y="425.95" type="curve" smooth="yes"/>
      <point x="585.3000000000001" y="425.95"/>
      <point x="632.95" y="378.35"/>
      <point x="632.95" y="284.05" type="curve" smooth="yes"/>
      <point x="632.95" y="0.0" type="line"/>
      <point x="806.9499999999999" y="0.0" type="line"/>
      <point x="806.9499999999999" y="343.45" type="line" smooth="yes"/>
      <point x="806.9499999999999" y="461.90000000000003"/>
      <point x="728.5" y="551.0"/>
      <point x="557.6999999999999" y="551.0" type="curve" smooth="yes"/>
      <point x="440.15000000000003" y="551.0"/>
      <point x="358.95" y="517.0999999999999"/>
      <point x="242.45" y="461.70000000000005" type="curve"/>
      <point x="242.45" y="541.0" type="line"/>
      <point x="85.5" y="541.0" type="line"/>
    </contour>
  </outline>
</glyph>
<glyph name="o" format="2">
  <advance width="902.8"/>
  <unicode hex="006F"/>
  <anchor x="563.6" y="0.9999999999999998" name="ogonek"/>
  <anchor x="451.4" y="541.0" name="top"/>
  <anchor x="661.1" y="535.5" name="topright"/>
  <anchor x="451.5" y="0.0" name="bottom"/>
  <outline>
    <contour>
      <point x="49.7" y="272.5" type="curve" smooth="yes"/>
      <point x="49.7" y="86.19999999999999"/>
      <point x="172.2" y="-10.0"/>
      <point x="451.5" y="-10.0" type="curve" smooth="yes"/>
      <point x="730.6" y="-10.0"/>
      <point x="853.1" y="86.19999999999999"/>
      <point x="853.1" y="272.5" type="curve" smooth="yes"/>
      <point x="853.1" y="445.8"/>
      <point x="747.6999999999999" y="551.0"/>
      <point x="451.5" y="551.0" type="curve" smooth="yes"/>
      <point x="154.2" y="551.0"/>
      <point x="49.7" y="445.8"/>
    </contour>
    <contour>
      <point x="226.0" y="272.4" type="curve" smooth="yes"/>
      <point x="226.0" y="373.4"/>
      <point x="281.9" y="444.1"/>
      <point x="451.4" y="444.1" type="curve" smooth="yes"/>
      <point x="621.0" y="444.1"/>
      <point x="675.9" y="373.4"/>
      <point x="675.9" y="272.4" type="curve" smooth="yes"/>
      <point x="675.9" y="162.8"/>
      <point x="610.5" y="96.90000000000002"/>
      <point x="451.4" y="96.90000000000002" type="curve" smooth="yes"/>
      <point x="292.3" y="96.90000000000002"/>
      <point x="226.0" y="162.8"/>
    </contour>
  </outline>
</glyph>
<glyph name="p" format="2">
  <advance width="898.4"/>
  <unicode hex="0070"/>
  <outline>
    <contour>
      <point x="85.5" y="-210.0" type="line"/>
      <point x="260.05" y="-210.0" type="line"/>
      <point x="260.05" y="3.799999999999999" type="line"/>
      <point x="324.5" y="-5.4"/>
      <point x="381.4" y="-10.0"/>
      <point x="435.6" y="-10.0" type="curve" smooth="yes"/>
      <point x="718.25" y="-10.0"/>
      <point x="849.1500000000001" y="82.85"/>
      <point x="849.1500000000001" y="281.7" type="curve" smooth="yes"/>
      <point x="849.1500000000001" y="450.15000000000003"/>
      <point x="743.65" y="551.0"/>
      <point x="566.6" y="551.0" type="curve" smooth="yes"/>
      <point x="461.95" y="551.0"/>
      <point x="363.05" y="519.5"/>
      <point x="242.45000000000002" y="445.29999999999995" type="curve"/>
      <point x="242.45" y="541.0" type="line"/>
      <point x="85.5" y="541.0" type="line"/>
    </contour>
    <contour>
      <point x="437.25" y="98.10000000000001" type="curve" smooth="yes"/>
      <point x="385.2" y="98.10000000000001"/>
      <point x="323.85" y="104.9"/>
      <point x="259.5" y="118.95000000000002" type="curve"/>
      <point x="259.5" y="350.7" type="line"/>
      <point x="351.4" y="403.35"/>
      <point x="422.90000000000003" y="425.40000000000003"/>
      <point x="495.65000000000003" y="425.40000000000003" type="curve" smooth="yes"/>
      <point x="607.0" y="425.40000000000003"/>
      <point x="672.95" y="369.5"/>
      <point x="672.95" y="274.0" type="curve" smooth="yes"/>
      <point x="672.95" y="157.64999999999998"/>
      <point x="592.95" y="98.10000000000001"/>
    </contour>
  </outline>
</glyph>
<glyph name="q" format="2">
  <advance width="898.4"/>
  <unicode hex="0071"/>
  <outline>
    <contour>
      <point x="812.9" y="518.9" type="line"/>
      <point x="673.4499999999999" y="540.4499999999999"/>
      <point x="559.95" y="551.0"/>
      <point x="462.8" y="551.0" type="curve" smooth="yes"/>
      <point x="180.15" y="551.0"/>
      <point x="49.25" y="458.15"/>
      <point x="49.25" y="259.3" type="curve" smooth="yes"/>
      <point x="49.25" y="90.85"/>
      <point x="154.75" y="-10.0"/>
      <point x="331.79999999999995" y="-10.0" type="curve" smooth="yes"/>
      <point x="435.9" y="-10.0"/>
      <point x="526.0" y="18.200000000000003"/>
      <point x="638.9" y="88.0" type="curve"/>
      <point x="638.9" y="-210.0" type="line"/>
      <point x="812.9" y="-210.0" type="line"/>
    </contour>
    <contour>
      <point x="638.9" y="422.05" type="curve"/>
      <point x="638.9" y="190.29999999999998" type="line"/>
      <point x="547.0" y="137.65"/>
      <point x="475.50000000000006" y="115.6"/>
      <point x="402.75" y="115.6" type="curve" smooth="yes"/>
      <point x="291.40000000000003" y="115.6"/>
      <point x="225.45" y="171.5"/>
      <point x="225.45" y="267.0" type="curve" smooth="yes"/>
      <point x="225.45" y="383.35"/>
      <point x="305.45" y="442.9"/>
      <point x="461.15" y="442.9" type="curve" smooth="yes"/>
      <point x="513.75" y="442.9"/>
      <point x="574.5500000000001" y="436.1"/>
    </contour>
  </outline>
</glyph>
<glyph name="r" format="2">
  <advance width="639.1999999999999"/>
  <unicode hex="0072"/>
  <anchor x="342.2" y="541.0" name="top"/>
  <anchor x="172.5" y="0.0" name="bottom"/>
  <outline>
    <contour>
      <point x="242.45000000000002" y="541.0" type="line"/>
      <point x="85.5" y="541.0" type="line"/>
      <point x="85.5" y="0.0" type="line"/>
      <point x="259.5" y="0.0" type="line"/>
      <point x="259.5" y="339.4" type="line"/>
      <point x="342.6" y="397.85"/>
      <point x="415.5" y="418.25"/>
      <point x="481.5" y="418.25" type="curve" smooth="yes"/>
      <point x="521.75" y="418.25"/>
      <point x="564.3" y="411.35"/>
      <point x="605.5" y="401.90000000000003" type="curve"/>
      <point x="629.3000000000001" y="535.75" type="line"/>
      <point x="595.0" y="544.1999999999999"/>
      <point x="551.0" y="551.0"/>
      <point x="508.30000000000007" y="551.0" type="curve" smooth="yes"/>
      <point x="417.20000000000005" y="551.0"/>
      <point x="347.59999999999997" y="521.5"/>
      <point x="242.45000000000002" y="439.34999999999997" type="curve"/>
    </contour>
  </outline>
</glyph>
<glyph name="s" format="2">
  <advance width="750.4999999999999"/>
  <unicode hex="0073"/>
  <anchor x="366.49999999999994" y="541.0" name="top"/>
  <anchor x="371.00000000000006" y="0.0" name="bottom"/>
  <outline>
    <contour>
      <point x="41.3" y="29.8" type="line"/>
      <point x="117.8" y="11.199999999999998"/>
      <point x="248.39999999999995" y="-10.0"/>
      <point x="363.49999999999994" y="-10.0" type="curve" smooth="yes"/>
      <point x="546.1" y="-10.0"/>
      <point x="713.4" y="19.299999999999994"/>
      <point x="713.4" y="165.3" type="curve" smooth="yes"/>
      <point x="713.4" y="278.8"/>
      <point x="590.9" y="310.49999999999994"/>
      <point x="441.29999999999995" y="325.99999999999994" type="curve" smooth="yes"/>
      <point x="316.09999999999997" y="339.40000000000003"/>
      <point x="222.50000000000006" y="337.0"/>
      <point x="222.50000000000006" y="392.5" type="curve" smooth="yes"/>
      <point x="222.50000000000006" y="432.3"/>
      <point x="285.6" y="446.40000000000003"/>
      <point x="391.2" y="446.40000000000003" type="curve" smooth="yes"/>
      <point x="492.2" y="446.40000000000003"/>
      <point x="610.3000000000001" y="421.5"/>
      <point x="648.6" y="410.79999999999995" type="curve"/>
      <point x="666.8" y="517.1999999999999" type="line"/>
      <point x="620.5999999999999" y="528.2"/>
      <point x="517.3999999999999" y="551.0"/>
      <point x="394.49999999999994" y="551.0" type="curve" smooth="yes"/>
      <point x="171.50000000000003" y="551.0"/>
      <point x="63.6" y="497.5"/>
      <point x="63.6" y="372.3" type="curve" smooth="yes"/>
      <point x="63.6" y="268.09999999999997"/>
      <point x="158.79999999999998" y="232.3"/>
      <point x="299.5" y="217.9" type="curve" smooth="yes"/>
      <point x="424.3" y="205.39999999999998"/>
      <point x="550.5" y="200.19999999999996"/>
      <point x="550.5" y="151.2" type="curve" smooth="yes"/>
      <point x="550.5" y="112.5"/>
      <point x="488.09999999999997" y="93.00000000000001"/>
      <point x="376.8" y="93.00000000000001" type="curve" smooth="yes"/>
      <point x="275.5" y="93.00000000000001"/>
      <point x="123.8" y="119.9"/>
      <point x="59.500000000000014" y="137.4" type="curve"/>
    </contour>
  </outline>
</glyph>
<glyph name="t" format="2">
  <advance width="643.25"/>
  <unicode hex="0074"/>
  <anchor x="314.7" y="275.0" name="center"/>
  <anchor x="245.9" y="665.0" name="top"/>
  <anchor x="473.05" y="792.25" name="topright"/>
  <anchor x="363.8" y="0.0" name="bottom"/>
  <outline>
    <contour>
      <point x="377.4" y="-10.0" type="curve" smooth="yes"/>
      <point x="455.55" y="-10.0"/>
      <point x="531.6" y="3.0"/>
      <point x="619.8" y="26.049999999999997" type="curve"/>
      <point x="598.4" y="147.35000000000002" type="line"/>
      <point x="537.25" y="131.5"/>
      <point x="486.79999999999995" y="120.0"/>
      <point x="435.3" y="120.0" type="curve" smooth="yes"/>
      <point x="356.84999999999997" y="120.0"/>
      <point x="323.75" y="152.0"/>
      <point x="323.75" y="222.3" type="curve" smooth="yes"/>
      <point x="323.75" y="433.55" type="line"/>
      <point x="590.25" y="433.55" type="line"/>
      <point x="590.25" y="541.0" type="line"/>
      <point x="323.75" y="541.0" type="line"/>
      <point x="323.75" y="665.0" type="line"/>
      <point x="168.05" y="665.0" type="line"/>
      <point x="149.75" y="541.0" type="line"/>
      <point x="7.6" y="527.75" type="line"/>
      <point x="7.6" y="433.55" type="line"/>
      <point x="149.75" y="433.55" type="line"/>
      <point x="149.75" y="214.6" type="line" smooth="yes"/>
      <point x="149.75" y="44.849999999999994"/>
      <point x="237.39999999999998" y="-10.0"/>
    </contour>
  </outline>
</glyph>
<glyph name="u" format="2">
  <advance width="895.3000000000001"/>
  <unicode hex="0075"/>
  <anchor x="887.65" y="19.900000000000002" name="ogonek"/>
  <anchor x="443.70000000000005" y="541.0" name="top"/>
  <anchor x="787.6" y="541.0" name="topright"/>
  <anchor x="448.20000000000005" y="0.0" name="bottom"/>
  <outline>
    <contour>
      <point x="327.55" y="-10.0" type="curve" smooth="yes"/>
      <point x="445.0" y="-10.0"/>
      <point x="529.6500000000001" y="23.899999999999995"/>
      <point x="635.9499999999999" y="77.55000000000001" type="curve"/>
      <point x="658.7" y="16.15"/>
      <point x="701.85" y="-10.0"/>
      <point x="767.5" y="-10.0" type="curve" smooth="yes"/>
      <point x="810.0" y="-10.0"/>
      <point x="860.2" y="2.9000000000000004"/>
      <point x="887.65" y="19.900000000000002" type="curve"/>
      <point x="871.75" y="115.1" type="line"/>
      <point x="861.85" y="110.65"/>
      <point x="852.15" y="108.75000000000001"/>
      <point x="841.8" y="108.75000000000001" type="curve" smooth="yes"/>
      <point x="813.2" y="108.75000000000001"/>
      <point x="787.6" y="127.30000000000001"/>
      <point x="787.6" y="185.2" type="curve" smooth="yes"/>
      <point x="787.6" y="541.0" type="line"/>
      <point x="613.6" y="541.0" type="line"/>
      <point x="613.6" y="172.45000000000002" type="line"/>
      <point x="530.6999999999999" y="135.3"/>
      <point x="476.55" y="112.85"/>
      <point x="396.84999999999997" y="112.85" type="curve" smooth="yes"/>
      <point x="307.70000000000005" y="112.85"/>
      <point x="259.5" y="158.2"/>
      <point x="259.5" y="240.25" type="curve" smooth="yes"/>
      <point x="259.5" y="541.0" type="line"/>
      <point x="85.5" y="541.0" type="line"/>
      <point x="85.5" y="188.55" type="line" smooth="yes"/>
      <point x="85.5" y="69.2"/>
      <point x="173.79999999999998" y="-10.0"/>
    </contour>
  </outline>
</glyph>
<glyph name="v" format="2">
  <advance width="820.45"/>
  <unicode hex="0076"/>
  <outline>
    <contour>
      <point x="325.25" y="0.0" type="line"/>
      <point x="494.75" y="0.0" type="line"/>
      <point x="810.75" y="538.3000000000001" type="line"/>
      <point x="617.65" y="543.6999999999999" type="line"/>
      <point x="417.6" y="129.95" type="line"/>
      <point x="202.8" y="543.6999999999999" type="line"/>
      <point x="9.7" y="538.3000000000001" type="line"/>
    </contour>
  </outline>
</glyph>
<glyph name="w" format="2">
  <advance width="1166.85"/>
  <unicode hex="0077"/>
  <anchor x="583.7" y="541.0" name="top"/>
  <anchor x="583.7" y="0.0" name="bottom"/>
  <outline>
    <contour>
      <point x="232.3" y="0.0" type="line"/>
      <point x="417.9" y="0.0" type="line"/>
      <point x="577.65" y="375.55" type="line"/>
      <point x="747.85" y="0.0" type="line"/>
      <point x="924.65" y="0.0" type="line"/>
      <point x="1154.15" y="538.75" type="line"/>
      <point x="987.1000000000001" y="543.25" type="line"/>
      <point x="842.1" y="144.4" type="line"/>
      <point x="674.55" y="541.0" type="line"/>
      <point x="492.3" y="541.0" type="line"/>
      <point x="327.65" y="145.05" type="line"/>
      <point x="185.25" y="543.25" type="line"/>
      <point x="12.7" y="538.75" type="line"/>
    </contour>
  </outline>
</glyph>
<glyph name="x" format="2">
  <advance width="856.4"/>
  <unicode hex="0078"/>
  <outline>
    <contour>
      <point x="9.7" y="3.5999999999999996" type="line"/>
      <point x="226.4" y="-3.6" type="line"/>
      <point x="429.0" y="187.89999999999998" type="line"/>
      <point x="635.5" y="-3.6" type="line"/>
      <point x="846.7" y="3.5999999999999996" type="line"/>
      <point x="535.9000000000001" y="281.3" type="line"/>
      <point x="830.0999999999999" y="537.4" type="line"/>
      <point x="633.6999999999999" y="544.6" type="line"/>
      <point x="438.59999999999997" y="363.40000000000003" type="line"/>
      <point x="245.2" y="544.6" type="line"/>
      <point x="31.900000000000002" y="537.4" type="line"/>
      <point x="332.3" y="273.40000000000003" type="line"/>
    </contour>
  </outline>
</glyph>
<glyph name="y" format="2">
  <advance width="824.3000000000001"/>
  <unicode hex="0079"/>
  <anchor x="412.20000000000005" y="541.0" name="top"/>
  <anchor x="655.8" y="0.0" name="bottom"/>
  <outline>
    <contour>
      <point x="250.29999999999995" y="-208.20000000000002" type="line"/>
      <point x="418.9" y="-212.7" type="line"/>
      <point x="814.6" y="541.0" type="line"/>
      <point x="639.3000000000001" y="545.4999999999999" type="line"/>
      <point x="433.9" y="122.7" type="line"/>
      <point x="207.3" y="545.5" type="line"/>
      <point x="9.7" y="540.1" type="line"/>
      <point x="330.70000000000005" y="0.0" type="line"/>
      <point x="358.1" y="0.0" type="line"/>
    </contour>
  </outline>
</glyph>
<glyph name="z" format="2">
  <advance width="809.6"/>
  <unicode hex="007A"/>
  <anchor x="411.09999999999997" y="541.0" name="top"/>
  <outline>
    <contour>
      <point x="41.800000000000004" y="0.0" type="line"/>
      <point x="770.3000000000001" y="0.0" type="line"/>
      <point x="770.3000000000001" y="111.30000000000001" type="line"/>
      <point x="287.0" y="111.30000000000001" type="line"/>
      <point x="733.7" y="444.9" type="line"/>
      <point x="733.7" y="541.0" type="line"/>
      <point x="63.099999999999994" y="541.0" type="line"/>
      <point x="63.099999999999994" y="429.7" type="line"/>
      <point x="493.99999999999994" y="429.7" type="line"/>
      <point x="41.800000000000004" y="96.1" type="line"/>
    </contour>
  </outline>
</glyph>
<glyph name="braceleft" format="2">
  <advance width="484.7"/>
  <unicode hex="007B"/>
  <outline>
    <contour>
      <point x="124.64999999999999" y="-49.199999999999996" type="curve" smooth="yes"/>
      <point x="124.64999999999999" y="-152.20000000000002"/>
      <point x="200.64999999999998" y="-210.0"/>
      <point x="332.8" y="-210.0" type="curve" smooth="yes"/>
      <point x="438.6" y="-210.0" type="line"/>
      <point x="438.6" y="-114.1" type="line"/>
      <point x="379.0" y="-114.1" type="line" smooth="yes"/>
      <point x="301.9" y="-114.1"/>
      <point x="278.84999999999997" y="-76.2"/>
      <point x="278.84999999999997" y="-31.049999999999997" type="curve" smooth="yes"/>
      <point x="278.84999999999997" y="24.549999999999997"/>
      <point x="317.34999999999997" y="81.60000000000001"/>
      <point x="317.34999999999997" y="141.70000000000002" type="curve" smooth="yes"/>
      <point x="317.34999999999997" y="187.0"/>
      <point x="306.05" y="240.7"/>
      <point x="229.45" y="265.0" type="curve"/>
      <point x="305.59999999999997" y="292.2"/>
      <point x="317.34999999999997" y="342.1"/>
      <point x="317.34999999999997" y="387.40000000000003" type="curve" smooth="yes"/>
      <point x="317.34999999999997" y="449.29999999999995"/>
      <point x="278.84999999999997" y="504.09999999999997"/>
      <point x="278.84999999999997" y="560.15" type="curve" smooth="yes"/>
      <point x="278.84999999999997" y="605.3000000000001"/>
      <point x="301.9" y="644.1"/>
      <point x="379.0" y="644.1" type="curve" smooth="yes"/>
      <point x="438.6" y="644.1" type="line"/>
      <point x="438.6" y="740.0" type="line"/>
      <point x="332.8" y="740.0" type="line" smooth="yes"/>
      <point x="200.64999999999998" y="740.0"/>
      <point x="124.64999999999999" y="681.3000000000001"/>
      <point x="124.64999999999999" y="578.3" type="curve" smooth="yes"/>
      <point x="124.64999999999999" y="497.15"/>
      <point x="165.35" y="442.34999999999997"/>
      <point x="165.35" y="386.85" type="curve" smooth="yes"/>
      <point x="165.35" y="349.0"/>
      <point x="152.45" y="312.4"/>
      <point x="103.24999999999999" y="312.4" type="curve" smooth="yes"/>
      <point x="83.9" y="312.4" type="line"/>
      <point x="83.9" y="217.60000000000002" type="line"/>
      <point x="103.24999999999999" y="217.60000000000002" type="line" smooth="yes"/>
      <point x="152.45" y="217.60000000000002"/>
      <point x="165.35" y="180.1"/>
      <point x="165.35" y="142.25" type="curve" smooth="yes"/>
      <point x="165.35" y="87.65"/>
      <point x="124.64999999999999" y="31.050000000000004"/>
    </contour>
  </outline>
</glyph>
<glyph name="braceright" format="2">
  <advance width="484.7"/>
  <unicode hex="007D"/>
  <outline>
    <contour>
      <point x="46.1" y="-114.1" type="line"/>
      <point x="46.1" y="-210.0" type="line"/>
      <point x="151.9" y="-210.0" type="line" smooth="yes"/>
      <point x="284.05" y="-210.0"/>
      <point x="360.05" y="-152.20000000000002"/>
      <point x="360.05" y="-49.199999999999996" type="curve" smooth="yes"/>
      <point x="360.05" y="31.050000000000004"/>
      <point x="319.35" y="87.65"/>
      <point x="319.35" y="142.25" type="curve" smooth="yes"/>
      <point x="319.35" y="180.1"/>
      <point x="332.25" y="217.60000000000002"/>
      <point x="381.45" y="217.60000000000002" type="curve" smooth="yes"/>
      <point x="400.8" y="217.60000000000002" type="line"/>
      <point x="400.8" y="312.4" type="line"/>
      <point x="381.45" y="312.4" type="line" smooth="yes"/>
      <point x="332.25" y="312.4"/>
      <point x="319.35" y="349.0"/>
      <point x="319.35" y="386.85" type="curve" smooth="yes"/>
      <point x="319.35" y="442.34999999999997"/>
      <point x="360.05" y="497.15"/>
      <point x="360.05" y="578.3" type="curve" smooth="yes"/>
      <point x="360.05" y="681.3000000000001"/>
      <point x="284.05" y="740.0"/>
      <point x="151.9" y="740.0" type="curve" smooth="yes"/>
      <point x="46.1" y="740.0" type="line"/>
      <point x="46.1" y="644.1" type="line"/>
      <point x="105.69999999999999" y="644.1" type="line" smooth="yes"/>
      <point x="182.8" y="644.1"/>
      <point x="205.85" y="605.3000000000001"/>
      <point x="205.85" y="560.15" type="curve" smooth="yes"/>
      <point x="205.85" y="504.09999999999997"/>
      <point x="167.35" y="449.29999999999995"/>
      <point x="167.35" y="387.40000000000003" type="curve" smooth="yes"/>
      <point x="167.35" y="342.1"/>
      <point x="179.1" y="292.2"/>
      <point x="255.25" y="265.0" type="curve"/>
      <point x="178.64999999999998" y="240.7"/>
      <point x="167.35" y="187.0"/>
      <point x="167.35" y="141.70000000000002" type="curve" smooth="yes"/>
      <point x="167.35" y="81.60000000000001"/>
      <point x="205.85" y="24.549999999999997"/>
      <point x="205.85" y="-31.049999999999997" type="curve" smooth="yes"/>
      <point x="205.85" y="-76.2"/>
      <point x="182.8" y="-114.1"/>
      <point x="105.69999999999999" y="-114.1" type="curve" smooth="yes"/>
    </contour>
  </outline>
</glyph>
<glyph name="asciitilde" format="2">
  <advance width="682.1"/>
  <unicode hex="007E"/>
  <outline>
    <contour>
      <point x="615.35" y="240.75" type="curve"/>
      <point x="615.35" y="364.85" type="line"/>
      <point x="586.05" y="339.9"/>
      <point x="548.7" y="320.6"/>
      <point x="497.35" y="320.6" type="curve" smooth="yes"/>
      <point x="367.05" y="320.6"/>
      <point x="292.09999999999997" y="412.7"/>
      <point x="186.25" y="412.7" type="curve" smooth="yes"/>
      <point x="120.35000000000001" y="412.7"/>
      <point x="85.69999999999999" y="383.55"/>
      <point x="67.3" y="371.15" type="curve"/>
      <point x="67.3" y="246.6" type="line"/>
      <point x="99.2" y="267.35"/>
      <point x="127.00000000000001" y="288.2"/>
      <point x="181.1" y="288.2" type="curve" smooth="yes"/>
      <point x="289.40000000000003" y="288.2"/>
      <point x="370.95" y="195.55"/>
      <point x="498.8" y="195.55" type="curve" smooth="yes"/>
      <point x="548.4" y="195.55"/>
      <point x="589.7" y="218.45"/>
    </contour>
  </outline>
</glyph>
<glyph name="exclamdown" format="2">
  <advance width="365.7"/>
  <unicode hex="00A1"/>
  <outline>
    <contour>
      <point x="258.3" y="279.2" type="line"/>
      <point x="111.25" y="279.2" type="line"/>
      <point x="100.25" y="-199.55" type="line"/>
      <point x="269.3" y="-199.55" type="line"/>
    </contour>
    <contour>
      <point x="280.15000000000003" y="476.15" type="curve" smooth="yes"/>
      <point x="280.15000000000003" y="524.6"/>
      <point x="254.95" y="546.5"/>
      <point x="182.85" y="546.5" type="curve" smooth="yes"/>
      <point x="111.20000000000002" y="546.5"/>
      <point x="85.54999999999998" y="524.6"/>
      <point x="85.54999999999998" y="476.15" type="curve" smooth="yes"/>
      <point x="85.54999999999998" y="427.15000000000003"/>
      <point x="110.75" y="405.25"/>
      <point x="182.85" y="405.25" type="curve" smooth="yes"/>
      <point x="254.95" y="405.25"/>
      <point x="280.15000000000003" y="427.15000000000003"/>
    </contour>
  </outline>
</glyph>
<glyph name="cent" format="2">
  <advance width="1042.8"/>
  <unicode hex="00A2"/>
  <outline>
    <contour>
      <point x="530.4" y="-10.0" type="curve" smooth="yes"/>
      <point x="647.8000000000001" y="-10.0"/>
      <point x="779.9000000000001" y="3.3500000000000014"/>
      <point x="879.1" y="25.450000000000003" type="curve"/>
      <point x="861.35" y="132.9" type="line"/>
      <point x="766.9" y="115.10000000000001"/>
      <point x="663.6" y="104.60000000000001"/>
      <point x="571.9" y="104.60000000000001" type="curve" smooth="yes"/>
      <point x="413.09999999999997" y="104.60000000000001"/>
      <point x="321.20000000000005" y="158.4"/>
      <point x="321.20000000000005" y="262.54999999999995" type="curve" smooth="yes"/>
      <point x="321.20000000000005" y="371.8"/>
      <point x="414.04999999999995" y="433.65000000000003"/>
      <point x="571.95" y="433.65000000000003" type="curve" smooth="yes"/>
      <point x="664.5999999999999" y="433.65000000000003"/>
      <point x="744.7" y="425.2"/>
      <point x="845.15" y="403.25" type="curve"/>
      <point x="862.9000000000001" y="517.85" type="line"/>
      <point x="763.15" y="541.0999999999999"/>
      <point x="684.3000000000001" y="551.0"/>
      <point x="566.4499999999999" y="551.0" type="curve" smooth="yes"/>
      <point x="286.0" y="551.0"/>
      <point x="152.7" y="425.05"/>
      <point x="152.7" y="259.25" type="curve" smooth="yes"/>
      <point x="152.7" y="87.30000000000001"/>
      <point x="288.85" y="-10.0"/>
    </contour>
    <contour>
      <point x="467.9" y="-105.0" type="line"/>
      <point x="587.45" y="-105.0" type="line"/>
      <point x="587.45" y="2.6000000000000005" type="line"/>
      <point x="467.9" y="5.450000000000001" type="line"/>
    </contour>
    <contour>
      <point x="467.9" y="532.35" type="line"/>
      <point x="587.45" y="539.4000000000001" type="line"/>
      <point x="587.45" y="646.0" type="line"/>
      <point x="467.9" y="646.0" type="line"/>
    </contour>
  </outline>
</glyph>
<glyph name="sterling" format="2">
  <advance width="1042.8"/>
  <unicode hex="00A3"/>
  <outline>
    <contour>
      <point x="118.20000000000002" y="0.0" type="line"/>
      <point x="950.0999999999999" y="0.0" type="line"/>
      <point x="950.0999999999999" y="123.50000000000001" type="line"/>
      <point x="329.1" y="123.50000000000001" type="line"/>
      <point x="405.4000000000001" y="171.10000000000002"/>
      <point x="436.20000000000005" y="213.99999999999997"/>
      <point x="436.20000000000005" y="258.8" type="curve" smooth="yes"/>
      <point x="436.20000000000005" y="335.5"/>
      <point x="351.3" y="389.1"/>
      <point x="351.3" y="469.5" type="curve" smooth="yes"/>
      <point x="351.3" y="544.3999999999999"/>
      <point x="433.6" y="583.3"/>
      <point x="580.2" y="583.3" type="curve" smooth="yes"/>
      <point x="685.4" y="583.3"/>
      <point x="813.3999999999999" y="568.6"/>
      <point x="905.3999999999999" y="544.4999999999999" type="curve"/>
      <point x="926.8999999999999" y="665.7" type="line"/>
      <point x="829.1999999999999" y="692.1999999999999"/>
      <point x="698.6999999999999" y="710.0"/>
      <point x="569.2" y="710.0" type="curve" smooth="yes"/>
      <point x="312.2" y="710.0"/>
      <point x="175.0" y="633.4"/>
      <point x="175.0" y="501.4" type="curve" smooth="yes"/>
      <point x="175.0" y="404.2"/>
      <point x="269.79999999999995" y="332.09999999999997"/>
      <point x="269.79999999999995" y="261.1" type="curve" smooth="yes"/>
      <point x="269.79999999999995" y="201.0"/>
      <point x="232.6" y="176.4"/>
      <point x="118.20000000000002" y="105.9" type="curve"/>
    </contour>
    <contour>
      <point x="113.7" y="308.0" type="line"/>
      <point x="790.0999999999999" y="308.0" type="line"/>
      <point x="790.0999999999999" y="408.2" type="line"/>
      <point x="113.7" y="408.2" type="line"/>
    </contour>
  </outline>
</glyph>
<glyph name="currency" format="2">
  <advance width="545.75"/>
  <unicode hex="00A4"/>
  <outline>
    <contour>
      <point x="61.900000000000006" y="446.6" type="line"/>
      <point x="127.1" y="380.4" type="line"/>
      <point x="114.69999999999999" y="359.05"/>
      <point x="107.10000000000001" y="334.0"/>
      <point x="107.10000000000001" y="306.05" type="curve" smooth="yes"/>
      <point x="107.10000000000001" y="277.55"/>
      <point x="114.69999999999999" y="251.95000000000002"/>
      <point x="128.1" y="230.6" type="curve"/>
      <point x="61.900000000000006" y="164.39999999999998" type="line"/>
      <point x="132.0" y="94.3" type="line"/>
      <point x="209.20000000000002" y="170.95" type="line"/>
      <point x="226.7" y="160.85"/>
      <point x="247.9" y="155.9"/>
      <point x="271.0" y="155.9" type="curve" smooth="yes"/>
      <point x="295.2" y="155.9"/>
      <point x="317.4" y="161.4"/>
      <point x="336.0" y="171.5" type="curve"/>
      <point x="413.75" y="94.3" type="line"/>
      <point x="483.85" y="164.39999999999998" type="line"/>
      <point x="414.9" y="233.35" type="line"/>
      <point x="427.2" y="254.15"/>
      <point x="434.79999999999995" y="278.65"/>
      <point x="434.79999999999995" y="306.05" type="curve" smooth="yes"/>
      <point x="434.79999999999995" y="332.90000000000003"/>
      <point x="427.75" y="356.85"/>
      <point x="414.9" y="377.65" type="curve"/>
      <point x="483.85" y="446.6" type="line"/>
      <point x="413.75" y="516.7" type="line"/>
      <point x="336.0" y="438.95" type="line"/>
      <point x="317.40000000000003" y="449.6"/>
      <point x="295.65" y="455.55"/>
      <point x="271.0" y="455.55" type="curve" smooth="yes"/>
      <point x="247.45" y="455.55"/>
      <point x="226.25" y="449.6"/>
      <point x="208.75" y="439.5" type="curve"/>
      <point x="132.0" y="516.7" type="line"/>
    </contour>
    <contour>
      <point x="270.45000000000005" y="236.4" type="curve" smooth="yes"/>
      <point x="231.54999999999998" y="236.4"/>
      <point x="200.79999999999998" y="266.6"/>
      <point x="200.79999999999998" y="306.04999999999995" type="curve" smooth="yes"/>
      <point x="200.79999999999998" y="344.3"/>
      <point x="231.0" y="375.05"/>
      <point x="270.45000000000005" y="375.05" type="curve" smooth="yes"/>
      <point x="310.35" y="375.05"/>
      <point x="341.1" y="344.3"/>
      <point x="341.1" y="306.04999999999995" type="curve" smooth="yes"/>
      <point x="341.1" y="266.6"/>
      <point x="309.8" y="236.4"/>
    </contour>
  </outline>
</glyph>
<glyph name="yen" format="2">
  <advance width="1042.8"/>
  <unicode hex="00A5"/>
  <outline>
    <contour>
      <point x="149.6" y="321.59999999999997" type="line"/>
      <point x="430.30000000000007" y="321.59999999999997" type="line"/>
      <point x="430.30000000000007" y="260.79999999999995" type="line"/>
      <point x="149.6" y="260.79999999999995" type="line"/>
      <point x="149.6" y="184.20000000000002" type="line"/>
      <point x="430.30000000000007" y="184.20000000000002" type="line"/>
      <point x="430.30000000000007" y="0.0" type="line"/>
      <point x="619.7" y="0.0" type="line"/>
      <point x="619.7" y="184.20000000000002" type="line"/>
      <point x="908.0" y="184.20000000000002" type="line"/>
      <point x="908.0" y="260.79999999999995" type="line"/>
      <point x="619.7" y="260.79999999999995" type="line"/>
      <point x="619.7" y="321.59999999999997" type="line"/>
      <point x="908.0" y="321.59999999999997" type="line"/>
      <point x="908.0" y="399.1" type="line"/>
      <point x="619.7" y="399.1" type="line"/>
      <point x="948.0" y="696.4" type="line"/>
      <point x="761.7" y="703.6" type="line"/>
      <point x="525.5" y="487.6000000000001" type="line"/>
      <point x="282.1" y="703.6" type="line"/>
      <point x="95.7" y="696.4" type="line"/>
      <point x="430.30000000000007" y="399.1" type="line"/>
      <point x="149.6" y="399.1" type="line"/>
    </contour>
  </outline>
</glyph>
<glyph name="brokenbar" format="2">
  <advance width="334.8"/>
  <unicode hex="00A6"/>
  <outline>
    <contour>
      <point x="235.15" y="391.0" type="line"/>
      <point x="235.15" y="790.0" type="line"/>
      <point x="99.64999999999999" y="790.0" type="line"/>
      <point x="99.64999999999999" y="391.0" type="line"/>
    </contour>
    <contour>
      <point x="99.64999999999999" y="190.0" type="line"/>
      <point x="99.64999999999999" y="-210.0" type="line"/>
      <point x="235.15" y="-210.0" type="line"/>
      <point x="235.15" y="190.0" type="line"/>
    </contour>
  </outline>
</glyph>
<glyph name="section" format="2">
  <advance width="784.7"/>
  <unicode hex="00A7"/>
  <outline>
    <contour>
      <point x="333.15" y="-220.0" type="curve" smooth="yes"/>
      <point x="572.3" y="-220.0"/>
      <point x="719.15" y="-110.64999999999999"/>
      <point x="719.15" y="72.5" type="curve" smooth="yes"/>
      <point x="719.15" y="171.75"/>
      <point x="683.65" y="246.35000000000002"/>
      <point x="579.4" y="379.8" type="curve" smooth="yes"/>
      <point x="511.05" y="468.55"/>
      <point x="487.45" y="506.05000000000007"/>
      <point x="487.45" y="541.9" type="curve" smooth="yes"/>
      <point x="487.45" y="585.1"/>
      <point x="522.25" y="613.0"/>
      <point x="577.6" y="613.0" type="curve" smooth="yes"/>
      <point x="600.5999999999999" y="613.0"/>
      <point x="626.3" y="608.75"/>
      <point x="663.3" y="597.3499999999999" type="curve"/>
      <point x="683.0500000000001" y="722.6" type="line"/>
      <point x="608.0" y="742.85"/>
      <point x="539.75" y="750.0"/>
      <point x="475.0" y="750.0" type="curve" smooth="yes"/>
      <point x="219.5" y="750.0"/>
      <point x="86.2" y="637.1500000000001"/>
      <point x="85.75" y="454.20000000000005" type="curve" smooth="yes"/>
      <point x="85.75" y="349.3"/>
      <point x="124.99999999999999" y="267.5"/>
      <point x="219.29999999999998" y="145.75" type="curve" smooth="yes"/>
      <point x="278.59999999999997" y="68.9"/>
      <point x="308.90000000000003" y="34.050000000000004"/>
      <point x="309.35" y="-14.349999999999998" type="curve" smooth="yes"/>
      <point x="309.8" y="-51.75"/>
      <point x="272.75" y="-82.8"/>
      <point x="219.2" y="-82.8" type="curve" smooth="yes"/>
      <point x="177.95000000000002" y="-82.8"/>
      <point x="146.85" y="-71.39999999999999"/>
      <point x="91.5" y="-40.349999999999994" type="curve"/>
      <point x="62.800000000000004" y="-157.0" type="line"/>
      <point x="160.04999999999998" y="-203.6"/>
      <point x="233.0" y="-220.0"/>
    </contour>
    <contour>
      <point x="352.4" y="-141.05" type="curve" smooth="yes"/>
      <point x="313.1" y="-141.05"/>
      <point x="278.0" y="-137.5"/>
      <point x="249.2" y="-125.64999999999999" type="curve"/>
      <point x="272.0" y="-146.2" type="line"/>
      <point x="369.1" y="-155.04999999999998"/>
      <point x="452.65" y="-96.85"/>
      <point x="452.65" y="-15.449999999999989" type="curve" smooth="yes"/>
      <point x="452.65" y="43.400000000000006"/>
      <point x="426.29999999999995" y="92.9"/>
      <point x="343.75" y="202.4" type="curve" smooth="yes"/>
      <point x="257.5" y="316.1"/>
      <point x="225.1" y="391.8"/>
      <point x="225.1" y="467.95000000000005" type="curve" smooth="yes"/>
      <point x="225.1" y="583.8000000000001"/>
      <point x="314.2" y="661.6999999999999"/>
      <point x="445.84999999999997" y="661.6999999999999" type="curve" smooth="yes"/>
      <point x="476.05" y="661.6999999999999"/>
      <point x="497.9" y="657.9499999999999"/>
      <point x="524.5" y="647.15" type="curve"/>
      <point x="500.84999999999997" y="670.1" type="line"/>
      <point x="419.3" y="675.4"/>
      <point x="351.84999999999997" y="619.35"/>
      <point x="351.4" y="542.1" type="curve" smooth="yes"/>
      <point x="351.4" y="482.44999999999993"/>
      <point x="377.0" y="438.45"/>
      <point x="454.95" y="325.90000000000003" type="curve" smooth="yes"/>
      <point x="552.45" y="184.7"/>
      <point x="586.95" y="120.35000000000001"/>
      <point x="586.95" y="50.5" type="curve" smooth="yes"/>
      <point x="587.4" y="-44.650000000000006"/>
      <point x="515.0" y="-140.6"/>
    </contour>
  </outline>
</glyph>
<glyph name="copyright" format="2">
  <advance width="977.3000000000001"/>
  <unicode hex="00A9"/>
  <outline>
    <contour>
      <point x="489.1" y="58.300000000000004" type="curve" smooth="yes"/>
      <point x="275.7" y="58.300000000000004"/>
      <point x="140.79999999999998" y="157.50000000000003"/>
      <point x="140.79999999999998" y="348.90000000000003" type="curve" smooth="yes"/>
      <point x="140.79999999999998" y="541.4000000000001"/>
      <point x="276.7" y="637.4000000000001"/>
      <point x="489.1" y="637.4000000000001" type="curve" smooth="yes"/>
      <point x="700.6" y="637.4000000000001"/>
      <point x="836.5" y="541.4000000000001"/>
      <point x="836.5" y="348.90000000000003" type="curve" smooth="yes"/>
      <point x="836.5" y="157.50000000000003"/>
      <point x="701.5999999999999" y="58.300000000000004"/>
    </contour>
    <contour>
      <point x="489.1" y="710.0" type="curve" smooth="yes"/>
      <point x="235.2" y="710.0"/>
      <point x="60.900000000000006" y="580.6"/>
      <point x="60.900000000000006" y="348.90000000000003" type="curve" smooth="yes"/>
      <point x="60.900000000000006" y="117.4"/>
      <point x="234.0" y="-10.0"/>
      <point x="489.1" y="-10.0" type="curve" smooth="yes"/>
      <point x="743.3000000000001" y="-10.0"/>
      <point x="916.4" y="117.4"/>
      <point x="916.4" y="348.90000000000003" type="curve" smooth="yes"/>
      <point x="916.4" y="580.6"/>
      <point x="743.0" y="710.0"/>
    </contour>
    <contour>
      <point x="261.0" y="339.29999999999995" type="curve" smooth="yes"/>
      <point x="261.0" y="209.3"/>
      <point x="362.0" y="164.8"/>
      <point x="488.1" y="164.8" type="curve" smooth="yes"/>
      <point x="574.8" y="164.8"/>
      <point x="656.4" y="183.8"/>
      <point x="705.5" y="205.2" type="curve"/>
      <point x="689.2" y="280.09999999999997" type="line"/>
      <point x="652.8000000000001" y="269.2"/>
      <point x="585.3" y="253.29999999999998"/>
      <point x="514.1" y="253.29999999999998" type="curve" smooth="yes"/>
      <point x="425.2" y="253.29999999999998"/>
      <point x="378.5" y="278.3"/>
      <point x="378.5" y="343.4" type="curve" smooth="yes"/>
      <point x="378.5" y="420.99999999999994"/>
      <point x="433.19999999999993" y="445.2"/>
      <point x="526.0999999999999" y="445.2" type="curve" smooth="yes"/>
      <point x="576.5" y="445.2"/>
      <point x="629.4" y="435.1"/>
      <point x="671.6" y="423.3" type="curve"/>
      <point x="690.0999999999999" y="502.3" type="line"/>
      <point x="637.5" y="524.5000000000001"/>
      <point x="575.3" y="534.8000000000001"/>
      <point x="511.49999999999994" y="534.8000000000001" type="curve" smooth="yes"/>
      <point x="372.19999999999993" y="534.8000000000001"/>
      <point x="261.0" y="479.70000000000005"/>
    </contour>
  </outline>
</glyph>
<glyph name="ordfeminine" format="2">
  <advance width="584.95"/>
  <unicode hex="00AA"/>
  <outline>
    <contour>
      <point x="71.5" y="201.29999999999998" type="line"/>
      <point x="544.1" y="201.29999999999998" type="line"/>
      <point x="544.1" y="293.20000000000005" type="line"/>
      <point x="71.5" y="293.20000000000005" type="line"/>
    </contour>
    <component base="a.superior" xOffset="11.15"/>
  </outline>
</glyph>
<glyph name="logicalnot" format="2">
  <advance width="682.1"/>
  <unicode hex="00AC"/>
  <outline>
    <contour>
      <point x="61.35" y="327.34999999999997" type="line"/>
      <point x="499.0" y="327.34999999999997" type="line"/>
      <point x="499.0" y="163.25" type="line"/>
      <point x="620.75" y="163.25" type="line"/>
      <point x="620.75" y="449.09999999999997" type="line"/>
      <point x="61.35" y="449.09999999999997" type="line"/>
    </contour>
  </outline>
</glyph>
<glyph name="registered" format="2">
  <advance width="938.7999999999998"/>
  <unicode hex="00AE"/>
  <outline>
    <contour>
      <point x="460.9" y="206.9" type="curve" smooth="yes"/>
      <point x="712.5" y="206.9"/>
      <point x="877.9" y="323.9"/>
      <point x="877.9" y="549.9" type="curve" smooth="yes"/>
      <point x="877.9" y="770.6"/>
      <point x="713.5" y="894.0"/>
      <point x="460.9" y="894.0" type="curve" smooth="yes"/>
      <point x="219.9" y="894.0"/>
      <point x="60.900000000000006" y="770.6"/>
      <point x="60.900000000000006" y="549.9" type="curve" smooth="yes"/>
      <point x="60.900000000000006" y="330.19999999999993"/>
      <point x="217.79999999999998" y="206.9"/>
    </contour>
    <contour>
      <point x="460.9" y="272.1" type="curve" smooth="yes"/>
      <point x="258.4" y="272.1"/>
      <point x="136.7" y="368.30000000000007"/>
      <point x="136.7" y="549.9" type="curve" smooth="yes"/>
      <point x="136.7" y="732.6"/>
      <point x="258.49999999999994" y="824.5999999999999"/>
      <point x="460.9" y="824.5999999999999" type="curve" smooth="yes"/>
      <point x="672.9999999999999" y="824.5999999999999"/>
      <point x="802.1" y="732.5000000000001"/>
      <point x="802.1" y="549.9" type="curve" smooth="yes"/>
      <point x="802.1" y="367.3"/>
      <point x="671.9" y="272.1"/>
    </contour>
    <contour>
      <point x="696.0999999999999" y="397.00000000000006" type="curve" smooth="yes"/>
      <point x="698.1" y="397.00000000000006"/>
      <point x="699.9" y="397.00000000000006"/>
      <point x="701.9000000000001" y="397.00000000000006" type="curve"/>
      <point x="701.9" y="478.29999999999995" type="line"/>
      <point x="700.9000000000001" y="478.3"/>
      <point x="699.0" y="478.3"/>
      <point x="698.1" y="478.3" type="curve" smooth="yes"/>
      <point x="669.0" y="478.4"/>
      <point x="616.9" y="500.8"/>
      <point x="570.5000000000001" y="529.8000000000001" type="curve"/>
      <point x="634.1" y="533.7"/>
      <point x="678.6999999999999" y="552.4"/>
      <point x="678.6999999999999" y="616.9" type="curve" smooth="yes"/>
      <point x="678.6999999999999" y="684.4"/>
      <point x="624.3" y="710.6"/>
      <point x="456.90000000000003" y="710.6" type="curve" smooth="yes"/>
      <point x="421.0" y="710.6"/>
      <point x="359.20000000000005" y="709.5999999999999"/>
      <point x="266.29999999999995" y="706.5" type="curve"/>
      <point x="266.29999999999995" y="400.20000000000005" type="line"/>
      <point x="368.20000000000005" y="400.20000000000005" type="line"/>
      <point x="368.20000000000005" y="505.79999999999995" type="line"/>
      <point x="389.40000000000003" y="505.80000000000007"/>
      <point x="405.09999999999997" y="504.9"/>
      <point x="423.5" y="504.9" type="curve" smooth="yes"/>
      <point x="430.40000000000003" y="504.9"/>
      <point x="437.2" y="504.9"/>
      <point x="444.1" y="504.9" type="curve"/>
      <point x="527.5" y="453.20000000000005"/>
      <point x="617.3000000000001" y="397.00000000000006"/>
    </contour>
    <contour>
      <point x="448.5" y="563.1999999999999" type="curve" smooth="yes"/>
      <point x="424.8999999999999" y="563.1999999999999"/>
      <point x="404.99999999999994" y="564.1999999999999"/>
      <point x="368.20000000000005" y="564.2" type="curve"/>
      <point x="368.20000000000005" y="642.1" type="line"/>
      <point x="416.49999999999994" y="644.0"/>
      <point x="424.19999999999993" y="644.0"/>
      <point x="464.1" y="644.0" type="curve" smooth="yes"/>
      <point x="552.7" y="644.0"/>
      <point x="573.6" y="635.1999999999999"/>
      <point x="573.6" y="605.5" type="curve" smooth="yes"/>
      <point x="573.6" y="567.3000000000001"/>
      <point x="543.0" y="563.1999999999999"/>
    </contour>
  </outline>
</glyph>
<glyph name="degree" format="2">
  <advance width="395.6"/>
  <unicode hex="00B0"/>
  <outline>
    <contour>
      <point x="197.79999999999998" y="405.6" type="curve" smooth="yes"/>
      <point x="304.3" y="405.6"/>
      <point x="361.20000000000005" y="483.4"/>
      <point x="361.20000000000005" y="561.4" type="curve" smooth="yes"/>
      <point x="361.20000000000005" y="636.0"/>
      <point x="308.8" y="718.1"/>
      <point x="197.79999999999998" y="718.1" type="curve" smooth="yes"/>
      <point x="85.9" y="718.1"/>
      <point x="34.4" y="636.0"/>
      <point x="34.4" y="561.4" type="curve" smooth="yes"/>
      <point x="34.4" y="483.4"/>
      <point x="91.3" y="405.6"/>
    </contour>
    <contour>
      <point x="197.79999999999998" y="501.3" type="curve" smooth="yes"/>
      <point x="164.29999999999998" y="501.3"/>
      <point x="140.0" y="526.7"/>
      <point x="140.0" y="561.3000000000001" type="curve" smooth="yes"/>
      <point x="140.0" y="593.9"/>
      <point x="163.20000000000002" y="621.1"/>
      <point x="197.79999999999998" y="621.1" type="curve" smooth="yes"/>
      <point x="231.50000000000003" y="621.1"/>
      <point x="256.5" y="593.9"/>
      <point x="256.5" y="561.3000000000001" type="curve" smooth="yes"/>
      <point x="256.5" y="526.7"/>
      <point x="231.3" y="501.3"/>
    </contour>
  </outline>
</glyph>
<glyph name="plusminus" format="2">
  <advance width="682.1"/>
  <unicode hex="00B1"/>
  <outline>
    <contour>
      <point x="61.35000000000001" y="31.849999999999998" type="line"/>
      <point x="620.75" y="31.849999999999998" type="line"/>
      <point x="620.75" y="153.60000000000002" type="line"/>
      <point x="412.65" y="153.60000000000002" type="line"/>
      <point x="412.65" y="304.04999999999995" type="line"/>
      <point x="620.75" y="304.04999999999995" type="line"/>
      <point x="620.75" y="425.79999999999995" type="line"/>
      <point x="412.65" y="425.79999999999995" type="line"/>
      <point x="412.65" y="589.35" type="line"/>
      <point x="268.9" y="589.35" type="line"/>
      <point x="268.9" y="425.79999999999995" type="line"/>
      <point x="61.35000000000001" y="425.79999999999995" type="line"/>
      <point x="61.35000000000001" y="304.04999999999995" type="line"/>
      <point x="268.9" y="304.04999999999995" type="line"/>
      <point x="268.9" y="153.60000000000002" type="line"/>
      <point x="61.35000000000001" y="153.60000000000002" type="line"/>
    </contour>
  </outline>
</glyph>
<glyph name="uni00B2" format="2">
  <advance width="631.7"/>
  <unicode hex="00B2"/>
  <outline>
    <contour>
      <point x="58.2" y="370.0" type="line"/>
      <point x="574.95" y="370.0" type="line"/>
      <point x="574.95" y="445.95" type="line"/>
      <point x="275.1" y="445.95" type="line"/>
      <point x="461.5" y="526.0500000000001"/>
      <point x="499.4" y="567.85"/>
      <point x="499.4" y="636.55" type="curve" smooth="yes"/>
      <point x="499.4" y="718.95"/>
      <point x="418.5" y="771.6500000000001"/>
      <point x="288.45" y="771.6500000000001" type="curve" smooth="yes"/>
      <point x="216.9" y="771.6500000000001"/>
      <point x="124.99999999999999" y="752.25"/>
      <point x="70.25" y="725.95" type="curve"/>
      <point x="99.89999999999999" y="648.8000000000001" type="line"/>
      <point x="161.54999999999998" y="673.65"/>
      <point x="208.75" y="684.45"/>
      <point x="257.29999999999995" y="684.45" type="curve" smooth="yes"/>
      <point x="323.0" y="684.45"/>
      <point x="357.29999999999995" y="658.1"/>
      <point x="357.29999999999995" y="615.8499999999999" type="curve" smooth="yes"/>
      <point x="357.29999999999995" y="559.5"/>
      <point x="290.29999999999995" y="526.15"/>
      <point x="56.849999999999994" y="436.8" type="curve"/>
    </contour>
  </outline>
</glyph>
<glyph name="uni00B3" format="2">
  <advance width="616.0"/>
  <unicode hex="00B3"/>
  <outline>
    <contour>
      <point x="23.450000000000003" y="400.9" type="line"/>
      <point x="102.4" y="371.05"/>
      <point x="188.65" y="361.65000000000003"/>
      <point x="286.3" y="361.65000000000003" type="curve" smooth="yes"/>
      <point x="463.35" y="361.65000000000003"/>
      <point x="580.2" y="400.40000000000003"/>
      <point x="580.2" y="487.2" type="curve" smooth="yes"/>
      <point x="580.2" y="537.7"/>
      <point x="539.9000000000001" y="567.3"/>
      <point x="457.15" y="579.1999999999999" type="curve"/>
      <point x="514.1" y="586.3000000000001"/>
      <point x="553.7" y="617.5500000000001"/>
      <point x="553.7" y="666.9000000000001" type="curve" smooth="yes"/>
      <point x="553.7" y="731.9"/>
      <point x="471.1" y="772.55"/>
      <point x="292.2" y="772.55" type="curve" smooth="yes"/>
      <point x="180.5" y="772.55"/>
      <point x="91.35" y="759.85"/>
      <point x="47.199999999999996" y="749.1" type="curve"/>
      <point x="64.5" y="672.8000000000001" type="line"/>
      <point x="86.1" y="676.85"/>
      <point x="137.95" y="694.6"/>
      <point x="258.2" y="694.6" type="curve" smooth="yes"/>
      <point x="356.34999999999997" y="694.6"/>
      <point x="428.65" y="675.35"/>
      <point x="428.65" y="645.75" type="curve" smooth="yes"/>
      <point x="428.65" y="616.95"/>
      <point x="390.75" y="603.35"/>
      <point x="321.0" y="603.35" type="curve" smooth="yes"/>
      <point x="159.9" y="603.35" type="line"/>
      <point x="159.9" y="536.65" type="line"/>
      <point x="300.2" y="536.65" type="line" smooth="yes"/>
      <point x="412.75" y="536.65"/>
      <point x="449.09999999999997" y="524.1"/>
      <point x="449.09999999999997" y="493.8" type="curve" smooth="yes"/>
      <point x="449.09999999999997" y="457.15000000000003"/>
      <point x="390.95000000000005" y="434.3"/>
      <point x="274.75" y="434.3" type="curve" smooth="yes"/>
      <point x="157.1" y="434.3"/>
      <point x="98.35000000000001" y="445.90000000000003"/>
      <point x="44.85" y="469.15" type="curve"/>
    </contour>
  </outline>
</glyph>
<glyph name="uni00B5" format="2">
  <advance width="895.3"/>
  <unicode hex="00B5"/>
  <outline>
    <contour>
      <point x="85.5" y="-210.0" type="line"/>
      <point x="259.5" y="-210.0" type="line"/>
      <point x="259.5" y="36.29999999999999" type="line"/>
      <point x="282.25" y="7.199999999999996"/>
      <point x="321.65000000000003" y="-10.0"/>
      <point x="378.7" y="-10.0" type="curve" smooth="yes"/>
      <point x="480.19999999999993" y="-10.0"/>
      <point x="548.9" y="23.899999999999995"/>
      <point x="635.95" y="77.55" type="curve"/>
      <point x="658.6999999999999" y="16.15"/>
      <point x="701.8499999999999" y="-10.0"/>
      <point x="767.5" y="-10.0" type="curve" smooth="yes"/>
      <point x="810.0" y="-10.0"/>
      <point x="860.2" y="2.9000000000000004"/>
      <point x="887.65" y="19.900000000000002" type="curve"/>
      <point x="871.75" y="115.10000000000001" type="line"/>
      <point x="861.85" y="110.65"/>
      <point x="852.15" y="108.75"/>
      <point x="841.8" y="108.75" type="curve" smooth="yes"/>
      <point x="813.2" y="108.75"/>
      <point x="787.6" y="127.3"/>
      <point x="787.6" y="185.2" type="curve" smooth="yes"/>
      <point x="787.6" y="541.0" type="line"/>
      <point x="613.6" y="541.0" type="line"/>
      <point x="613.6" y="172.45000000000002" type="line"/>
      <point x="530.7" y="135.3"/>
      <point x="476.55" y="112.85"/>
      <point x="396.85" y="112.85" type="curve" smooth="yes"/>
      <point x="307.7" y="112.85"/>
      <point x="259.5" y="158.2"/>
      <point x="259.5" y="240.25" type="curve" smooth="yes"/>
      <point x="259.5" y="541.0" type="line"/>
      <point x="85.5" y="541.0" type="line"/>
    </contour>
  </outline>
</glyph>
<glyph name="paragraph" format="2">
  <advance width="896.8499999999999"/>
  <unicode hex="00B6"/>
  <outline>
    <contour>
      <point x="645.0" y="-210.0" type="line"/>
      <point x="780.5" y="-210.0" type="line"/>
      <point x="780.5" y="740.0" type="line"/>
      <point x="645.0" y="740.0" type="line"/>
    </contour>
    <contour>
      <point x="354.65000000000003" y="278.05" type="line"/>
      <point x="260.05" y="288.95000000000005"/>
      <point x="216.45000000000002" y="346.15000000000003"/>
      <point x="216.45000000000002" y="450.3" type="curve" smooth="yes"/>
      <point x="216.45000000000002" y="572.8000000000001"/>
      <point x="274.7" y="616.9"/>
      <point x="411.5" y="618.25" type="curve"/>
      <point x="411.5" y="-210.0" type="line"/>
      <point x="547.0" y="-210.0" type="line"/>
      <point x="547.0" y="740.0" type="line"/>
      <point x="447.65" y="740.0" type="line" smooth="yes"/>
      <point x="175.8" y="740.0"/>
      <point x="70.5" y="657.3000000000001"/>
      <point x="70.5" y="469.0" type="curve" smooth="yes"/>
      <point x="70.5" y="297.29999999999995"/>
      <point x="155.85" y="204.95"/>
      <point x="340.55" y="191.5" type="curve"/>
    </contour>
  </outline>
</glyph>
<glyph name="periodcentered" format="2">
  <advance width="314.4"/>
  <unicode hex="00B7"/>
  <outline>
    <contour>
      <point x="59.9" y="303.40000000000003" type="curve" smooth="yes"/>
      <point x="59.9" y="254.49999999999997"/>
      <point x="85.99999999999999" y="232.6"/>
      <point x="157.2" y="232.6" type="curve" smooth="yes"/>
      <point x="229.3" y="232.6"/>
      <point x="254.5" y="254.49999999999997"/>
      <point x="254.5" y="303.40000000000003" type="curve" smooth="yes"/>
      <point x="254.5" y="352.40000000000003"/>
      <point x="229.3" y="374.29999999999995"/>
      <point x="157.2" y="374.29999999999995" type="curve" smooth="yes"/>
      <point x="85.09999999999998" y="374.29999999999995"/>
      <point x="59.9" y="352.40000000000003"/>
    </contour>
  </outline>
</glyph>
<glyph name="uni00B9" format="2">
  <advance width="587.1"/>
  <unicode hex="00B9"/>
  <outline>
    <contour>
      <point x="59.10000000000001" y="370.0" type="line"/>
      <point x="560.15" y="370.0" type="line"/>
      <point x="560.15" y="448.7" type="line"/>
      <point x="393.95" y="448.7" type="line"/>
      <point x="393.95" y="765.8000000000001" type="line"/>
      <point x="324.1" y="765.8000000000001" type="line"/>
      <point x="30.9" y="663.75" type="line"/>
      <point x="65.5" y="579.0" type="line"/>
      <point x="253.39999999999998" y="646.5500000000001" type="line"/>
      <point x="253.39999999999998" y="448.7" type="line"/>
      <point x="59.10000000000001" y="448.7" type="line"/>
    </contour>
  </outline>
</glyph>
<glyph name="ordmasculine" format="2">
  <advance width="596.5"/>
  <unicode hex="00BA"/>
  <outline>
    <contour>
      <point x="61.85" y="201.75" type="line"/>
      <point x="538.05" y="201.75" type="line"/>
      <point x="538.05" y="293.65000000000003" type="line"/>
      <point x="61.85" y="293.65000000000003" type="line"/>
    </contour>
    <component base="o.superior" xOffset="7.999999999999999"/>
  </outline>
</glyph>
<glyph name="questiondown" format="2">
  <advance width="736.5"/>
  <unicode hex="00BF"/>
  <outline>
    <contour>
      <point x="464.35" y="280.55" type="line"/>
      <point x="317.3" y="280.55" type="line"/>
      <point x="316.2" y="226.64999999999998" type="line"/>
      <point x="116.6" y="184.65"/>
      <point x="37.25" y="121.25"/>
      <point x="37.25" y="11.400000000000002" type="curve" smooth="yes"/>
      <point x="37.25" y="-155.1"/>
      <point x="203.79999999999998" y="-209.55"/>
      <point x="358.75" y="-209.55" type="curve" smooth="yes"/>
      <point x="470.2" y="-209.55"/>
      <point x="614.55" y="-178.4"/>
      <point x="707.4499999999999" y="-124.05" type="curve"/>
      <point x="666.1" y="-8.699999999999992" type="line"/>
      <point x="575.75" y="-53.89999999999999"/>
      <point x="474.45" y="-80.64999999999998"/>
      <point x="386.8" y="-80.64999999999998" type="curve" smooth="yes"/>
      <point x="299.05" y="-80.64999999999998"/>
      <point x="217.85000000000002" y="-58.79999999999998"/>
      <point x="217.85000000000002" y="18.550000000000004" type="curve" smooth="yes"/>
      <point x="217.85000000000002" y="71.6"/>
      <point x="259.15" y="112.05000000000001"/>
      <point x="468.2" y="146.85" type="curve"/>
    </contour>
    <contour>
      <point x="485.79999999999995" y="476.15" type="curve" smooth="yes"/>
      <point x="485.79999999999995" y="524.5999999999999"/>
      <point x="460.15" y="546.5"/>
      <point x="388.5" y="546.5" type="curve" smooth="yes"/>
      <point x="316.4" y="546.5"/>
      <point x="291.2" y="524.5999999999999"/>
      <point x="291.2" y="476.15" type="curve" smooth="yes"/>
      <point x="291.2" y="427.15000000000003"/>
      <point x="316.4" y="405.25"/>
      <point x="388.5" y="405.25" type="curve" smooth="yes"/>
      <point x="460.6" y="405.25"/>
      <point x="485.79999999999995" y="427.15000000000003"/>
    </contour>
  </outline>
</glyph>
<glyph name="AE" format="2">
  <advance width="1613.7"/>
  <unicode hex="00C6"/>
  <anchor x="833.9" y="700.0" name="top"/>
  <outline>
    <contour>
      <point x="0.900000000000001" y="0.0" type="line"/>
      <point x="214.10000000000002" y="0.0" type="line"/>
      <point x="411.9" y="208.6" type="line"/>
      <point x="737.8" y="208.6" type="line"/>
      <point x="737.8" y="0.0" type="line"/>
      <point x="1566.2" y="0.0" type="line"/>
      <point x="1566.2" y="137.5" type="line"/>
      <point x="918.5000000000001" y="137.5" type="line"/>
      <point x="918.5000000000001" y="300.59999999999997" type="line"/>
      <point x="1505.2" y="300.59999999999997" type="line"/>
      <point x="1505.2" y="431.1" type="line"/>
      <point x="918.5000000000001" y="431.1" type="line"/>
      <point x="918.5000000000001" y="562.5" type="line"/>
      <point x="1537.1999999999998" y="562.5" type="line"/>
      <point x="1537.1999999999998" y="700.0" type="line"/>
      <point x="664.3" y="700.0" type="line"/>
    </contour>
    <contour>
      <point x="517.1999999999999" y="340.1" type="line"/>
      <point x="737.8" y="571.2" type="line"/>
      <point x="737.8" y="340.1" type="line"/>
    </contour>
  </outline>
</glyph>
<glyph name="multiply" format="2">
  <advance width="627.1"/>
  <unicode hex="00D7"/>
  <outline>
    <contour>
      <point x="133.29999999999998" y="63.050000000000004" type="line"/>
      <point x="314.0" y="225.60000000000002" type="line"/>
      <point x="493.34999999999997" y="64.39999999999999" type="line"/>
      <point x="570.6" y="158.7" type="line"/>
      <point x="409.95000000000005" y="304.5" type="line"/>
      <point x="571.5" y="451.75" type="line"/>
      <point x="494.25" y="546.05" type="line"/>
      <point x="314.0" y="383.4" type="line"/>
      <point x="132.85" y="546.95" type="line"/>
      <point x="55.6" y="452.65" type="line"/>
      <point x="217.5" y="304.5" type="line"/>
      <point x="56.050000000000004" y="157.35" type="line"/>
    </contour>
  </outline>
</glyph>
<glyph name="Oslash" format="2">
  <advance width="1195.2"/>
  <unicode hex="00D8"/>
  <anchor x="596.75" y="700.0" name="top"/>
  <outline>
    <contour>
      <point x="223.10000000000002" y="-15.5" type="line"/>
      <point x="348.4" y="63.10000000000001" type="line"/>
      <point x="349.35" y="59.250000000000014" type="line"/>
      <point x="948.4000000000001" y="552.0500000000001" type="line"/>
      <point x="949.55" y="548.9499999999999" type="line"/>
      <point x="1139.5" y="715.5" type="line"/>
      <point x="970.5500000000001" y="715.5" type="line"/>
      <point x="848.4" y="622.75" type="line"/>
      <point x="847.45" y="626.5999999999999" type="line"/>
      <point x="242.05" y="141.6" type="line"/>
      <point x="241.89999999999998" y="142.9" type="line"/>
      <point x="55.69999999999999" y="-15.5" type="line"/>
    </contour>
    <contour>
      <point x="597.3000000000001" y="102.95000000000002" type="curve" smooth="yes"/>
      <point x="415.75" y="102.95000000000002"/>
      <point x="243.89999999999998" y="165.10000000000002"/>
      <point x="243.89999999999998" y="351.1" type="curve" smooth="yes"/>
      <point x="243.89999999999998" y="540.85"/>
      <point x="415.3" y="597.05"/>
      <point x="597.3000000000001" y="597.05" type="curve" smooth="yes"/>
      <point x="777.55" y="597.05"/>
      <point x="950.3999999999999" y="540.75"/>
      <point x="950.3999999999999" y="351.09999999999997" type="curve" smooth="yes"/>
      <point x="950.3999999999999" y="159.90000000000003"/>
      <point x="777.45" y="102.95000000000002"/>
    </contour>
    <contour>
      <point x="597.75" y="-10.0" type="curve" smooth="yes"/>
      <point x="911.6000000000001" y="-10.0"/>
      <point x="1133.55" y="84.85000000000001"/>
      <point x="1133.55" y="354.90000000000003" type="curve" smooth="yes"/>
      <point x="1133.55" y="611.3000000000001"/>
      <point x="919.3000000000001" y="710.0"/>
      <point x="597.3000000000001" y="710.0" type="curve" smooth="yes"/>
      <point x="272.29999999999995" y="710.0"/>
      <point x="61.64999999999999" y="609.4999999999999"/>
      <point x="61.64999999999999" y="352.65" type="curve" smooth="yes"/>
      <point x="61.64999999999999" y="92.5"/>
      <point x="285.4" y="-10.0"/>
    </contour>
  </outline>
</glyph>
<glyph name="Thorn" format="2">
  <advance width="1101.9"/>
  <unicode hex="00DE"/>
  <outline>
    <contour>
      <point x="105.14999999999999" y="0.0" type="line"/>
      <point x="290.15" y="0.0" type="line"/>
      <point x="290.15" y="128.85" type="line"/>
      <point x="451.59999999999997" y="124.85000000000001"/>
      <point x="453.55" y="124.4"/>
      <point x="602.65" y="124.4" type="curve" smooth="yes"/>
      <point x="936.15" y="124.4"/>
      <point x="1043.7" y="189.14999999999998"/>
      <point x="1043.7" y="382.75" type="curve" smooth="yes"/>
      <point x="1043.7" y="568.7"/>
      <point x="951.4499999999999" y="634.5"/>
      <point x="542.45" y="634.5" type="curve" smooth="yes"/>
      <point x="495.3" y="634.5"/>
      <point x="419.9" y="633.05"/>
      <point x="290.15000000000003" y="628.9" type="curve"/>
      <point x="290.15000000000003" y="700.0" type="line"/>
      <point x="105.14999999999999" y="700.0" type="line"/>
    </contour>
    <contour>
      <point x="525.1" y="247.8" type="curve" smooth="yes"/>
      <point x="442.34999999999997" y="247.8"/>
      <point x="396.95000000000005" y="249.70000000000002"/>
      <point x="290.15000000000003" y="253.25" type="curve"/>
      <point x="290.15000000000003" y="506.04999999999995" type="line"/>
      <point x="444.45" y="511.84999999999997"/>
      <point x="485.24999999999994" y="512.75"/>
      <point x="557.3" y="512.75" type="curve" smooth="yes"/>
      <point x="796.3499999999999" y="512.75"/>
      <point x="854.85" y="473.0"/>
      <point x="854.85" y="382.2" type="curve" smooth="yes"/>
      <point x="854.85" y="284.45"/>
      <point x="806.3" y="247.8"/>
    </contour>
  </outline>
</glyph>
<glyph name="germandbls" format="2">
  <advance width="1030.6000000000001"/>
  <unicode hex="00DF"/>
  <outline>
    <contour>
      <point x="147.7" y="0.0" type="line"/>
      <point x="321.70000000000005" y="0.0" type="line"/>
      <point x="321.70000000000005" y="469.7" type="line" smooth="yes"/>
      <point x="321.70000000000005" y="589.0"/>
      <point x="412.59999999999997" y="640.8000000000001"/>
      <point x="575.9000000000001" y="640.8000000000001" type="curve" smooth="yes"/>
      <point x="723.3999999999999" y="640.8000000000001"/>
      <point x="759.8" y="624.2"/>
      <point x="759.8" y="584.4" type="curve" smooth="yes"/>
      <point x="759.8" y="554.7999999999998"/>
      <point x="730.7000000000002" y="542.5000000000001"/>
      <point x="638.5999999999999" y="530.6000000000001" type="curve" smooth="yes"/>
      <point x="485.90000000000003" y="512.2"/>
      <point x="432.3" y="454.5"/>
      <point x="432.3" y="373.2" type="curve" smooth="yes"/>
      <point x="432.3" y="268.5"/>
      <point x="490.2" y="225.49999999999997"/>
      <point x="722.8" y="203.4" type="curve" smooth="yes"/>
      <point x="829.8000000000001" y="192.9"/>
      <point x="867.8000000000001" y="180.8"/>
      <point x="867.8000000000001" y="143.10000000000002" type="curve" smooth="yes"/>
      <point x="867.8000000000001" y="105.49999999999999"/>
      <point x="799.4" y="91.7"/>
      <point x="724.0000000000001" y="91.7" type="curve" smooth="yes"/>
      <point x="635.9000000000001" y="91.7"/>
      <point x="500.7" y="110.50000000000001"/>
      <point x="411.9000000000001" y="135.90000000000003" type="curve"/>
      <point x="393.8" y="28.7" type="line"/>
      <point x="497.9" y="2.199999999999999"/>
      <point x="612.9999999999999" y="-10.9"/>
      <point x="709.8" y="-10.9" type="curve" smooth="yes"/>
      <point x="863.2" y="-10.9"/>
      <point x="1029.0" y="22.1"/>
      <point x="1029.0" y="156.20000000000002" type="curve" smooth="yes"/>
      <point x="1029.0" y="260.40000000000003"/>
      <point x="957.2" y="305.20000000000005"/>
      <point x="745.9" y="325.5" type="curve" smooth="yes"/>
      <point x="625.0999999999999" y="336.70000000000005"/>
      <point x="584.1" y="342.2"/>
      <point x="584.1" y="382.1" type="curve" smooth="yes"/>
      <point x="584.1" y="415.30000000000007"/>
      <point x="621.7" y="421.99999999999994"/>
      <point x="705.9000000000001" y="434.1" type="curve" smooth="yes"/>
      <point x="843.9" y="454.0"/>
      <point x="914.8" y="485.79999999999995"/>
      <point x="914.8" y="579.6999999999999" type="curve" smooth="yes"/>
      <point x="914.8" y="697.9"/>
      <point x="801.1999999999999" y="750.0"/>
      <point x="571.3000000000001" y="750.0" type="curve" smooth="yes"/>
      <point x="285.90000000000003" y="750.0"/>
      <point x="147.7" y="674.1"/>
      <point x="147.7" y="497.3" type="curve" smooth="yes"/>
      <point x="147.7" y="484.0" type="line"/>
      <point x="28.400000000000002" y="471.2" type="line"/>
      <point x="28.400000000000002" y="377.0" type="line"/>
      <point x="147.7" y="377.0" type="line"/>
    </contour>
  </outline>
</glyph>
<glyph name="ae" format="2">
  <advance width="1341.6999999999998"/>
  <unicode hex="00E6"/>
  <anchor x="685.7" y="541.0" name="top"/>
  <outline>
    <contour>
      <point x="258.09999999999997" y="-10.0" type="curve" smooth="yes"/>
      <point x="418.79999999999995" y="-10.0"/>
      <point x="491.70000000000005" y="19.799999999999997"/>
      <point x="604.0" y="85.6" type="curve"/>
      <point x="605.0999999999999" y="85.6" type="line"/>
      <point x="669.0999999999999" y="19.5"/>
      <point x="777.7" y="-10.0"/>
      <point x="946.4000000000001" y="-10.0" type="curve" smooth="yes"/>
      <point x="1094.2" y="-10.0"/>
      <point x="1190.7" y="4.4"/>
      <point x="1288.2" y="24.7" type="curve"/>
      <point x="1268.9" y="133.79999999999998" type="line"/>
      <point x="1179.8" y="116.7"/>
      <point x="1072.8" y="101.2"/>
      <point x="956.3" y="101.2" type="curve" smooth="yes"/>
      <point x="808.3000000000001" y="101.2"/>
      <point x="739.3" y="143.9"/>
      <point x="732.9" y="219.7" type="curve" smooth="yes"/>
      <point x="731.9" y="226.2"/>
      <point x="731.9" y="228.1"/>
      <point x="732.8" y="238.1" type="curve"/>
      <point x="1011.7" y="241.29999999999998"/>
      <point x="1196.0" y="254.79999999999998"/>
      <point x="1287.6" y="258.9" type="curve"/>
      <point x="1288.6000000000001" y="269.6"/>
      <point x="1289.6000000000001" y="283.5"/>
      <point x="1289.6000000000001" y="301.3" type="curve" smooth="yes"/>
      <point x="1289.6000000000001" y="466.8"/>
      <point x="1171.7" y="551.0"/>
      <point x="942.9" y="551.0" type="curve" smooth="yes"/>
      <point x="799.4" y="551.0"/>
      <point x="718.1" y="507.30000000000007"/>
      <point x="669.1" y="440.8" type="curve"/>
      <point x="668.0" y="440.8" type="line"/>
      <point x="620.4" y="515.9"/>
      <point x="547.6" y="551.0"/>
      <point x="389.2" y="551.0" type="curve" smooth="yes"/>
      <point x="301.1" y="551.0"/>
      <point x="199.1" y="539.0"/>
      <point x="97.7" y="515.1" type="curve"/>
      <point x="116.99999999999999" y="406.0" type="line"/>
      <point x="199.79999999999995" y="425.6"/>
      <point x="307.5" y="439.6"/>
      <point x="379.09999999999997" y="439.6" type="curve" smooth="yes"/>
      <point x="502.7" y="439.6"/>
      <point x="559.7" y="409.2"/>
      <point x="559.7" y="348.6" type="curve" smooth="yes"/>
      <point x="559.7" y="324.09999999999997" type="line"/>
      <point x="160.5" y="317.8"/>
      <point x="51.4" y="279.29999999999995"/>
      <point x="51.4" y="145.20000000000002" type="curve" smooth="yes"/>
      <point x="51.4" y="44.8"/>
      <point x="124.4" y="-10.0"/>
    </contour>
    <contour>
      <point x="326.4" y="86.7" type="curve" smooth="yes"/>
      <point x="264.9" y="86.7"/>
      <point x="230.79999999999998" y="104.8"/>
      <point x="230.79999999999998" y="149.0" type="curve" smooth="yes"/>
      <point x="230.79999999999998" y="218.29999999999998"/>
      <point x="292.4" y="236.1"/>
      <point x="558.9" y="243.70000000000002" type="curve"/>
      <point x="558.9" y="237.7"/>
      <point x="558.9" y="231.70000000000002"/>
      <point x="558.9" y="220.29999999999998" type="curve" smooth="yes"/>
      <point x="558.9" y="203.39999999999998"/>
      <point x="559.8" y="188.29999999999998"/>
      <point x="563.4000000000001" y="175.89999999999998" type="curve"/>
      <point x="504.79999999999995" y="120.0"/>
      <point x="406.20000000000005" y="86.7"/>
    </contour>
    <contour>
      <point x="734.7" y="325.09999999999997" type="curve"/>
      <point x="754.1999999999999" y="405.5"/>
      <point x="824.5000000000001" y="447.29999999999995"/>
      <point x="932.0" y="447.29999999999995" type="curve" smooth="yes"/>
      <point x="1037.0" y="447.29999999999995"/>
      <point x="1101.4" y="406.6"/>
      <point x="1110.3" y="336.4" type="curve"/>
      <point x="1043.6" y="333.4"/>
      <point x="913.5999999999999" y="325.2"/>
    </contour>
  </outline>
</glyph>
<glyph name="eth" format="2">
  <advance width="888.3"/>
  <unicode hex="00F0"/>
  <outline>
    <contour>
      <point x="702.7" y="363.50000000000006" type="curve"/>
      <point x="703.8" y="458.4000000000001" type="line"/>
      <point x="621.5" y="504.1"/>
      <point x="536.8" y="526.1"/>
      <point x="415.9" y="526.1" type="curve" smooth="yes"/>
      <point x="165.1" y="526.1"/>
      <point x="47.5" y="423.00000000000006"/>
      <point x="47.5" y="249.29999999999998" type="curve" smooth="yes"/>
      <point x="47.5" y="82.39999999999999"/>
      <point x="175.7" y="-10.0"/>
      <point x="419.59999999999997" y="-10.0" type="curve" smooth="yes"/>
      <point x="705.5" y="-10.0"/>
      <point x="843.6000000000001" y="104.1"/>
      <point x="843.6000000000001" y="370.8" type="curve" smooth="yes"/>
      <point x="843.6000000000001" y="638.2"/>
      <point x="661.8000000000001" y="741.9"/>
      <point x="362.4" y="741.9" type="curve" smooth="yes"/>
      <point x="268.79999999999995" y="741.9"/>
      <point x="175.2" y="734.0"/>
      <point x="60.6" y="713.1999999999999" type="curve"/>
      <point x="71.3" y="622.1" type="line"/>
      <point x="182.5" y="638.7"/>
      <point x="246.9" y="646.9"/>
      <point x="326.29999999999995" y="646.9" type="curve" smooth="yes"/>
      <point x="581.9" y="646.9"/>
      <point x="677.4" y="575.4"/>
      <point x="677.4" y="357.7" type="curve" smooth="yes"/>
      <point x="677.4" y="170.0"/>
      <point x="606.9000000000001" y="97.9"/>
      <point x="441.5" y="97.9" type="curve" smooth="yes"/>
      <point x="298.6" y="97.9"/>
      <point x="224.70000000000002" y="152.6"/>
      <point x="224.70000000000002" y="257.90000000000003" type="curve" smooth="yes"/>
      <point x="224.70000000000002" y="369.8"/>
      <point x="298.40000000000003" y="426.80000000000007"/>
      <point x="447.09999999999997" y="426.80000000000007" type="curve" smooth="yes"/>
      <point x="548.6" y="426.80000000000007"/>
      <point x="632.6999999999999" y="401.6"/>
    </contour>
    <contour>
      <point x="278.7" y="540.9000000000001" type="line"/>
      <point x="566.1" y="650.4999999999999" type="line"/>
      <point x="559.0999999999999" y="654.5000000000001" type="line"/>
      <point x="823.3000000000001" y="755.2999999999998" type="line"/>
      <point x="641.1" y="755.2999999999998" type="line"/>
      <point x="468.59999999999997" y="689.2" type="line"/>
      <point x="484.79999999999995" y="688.6999999999999" type="line"/>
      <point x="96.4" y="540.9" type="line"/>
    </contour>
  </outline>
</glyph>
<glyph name="divide" format="2">
  <advance width="682.1"/>
  <unicode hex="00F7"/>
  <outline>
    <contour>
      <point x="265.2" y="109.4" type="curve" smooth="yes"/>
      <point x="265.2" y="70.39999999999999"/>
      <point x="285.79999999999995" y="53.89999999999999"/>
      <point x="341.5" y="53.89999999999999" type="curve" smooth="yes"/>
      <point x="398.20000000000005" y="53.89999999999999"/>
      <point x="417.90000000000003" y="70.39999999999999"/>
      <point x="417.90000000000003" y="109.4" type="curve" smooth="yes"/>
      <point x="417.90000000000003" y="148.6"/>
      <point x="398.2" y="166.0"/>
      <point x="341.5" y="166.0" type="curve" smooth="yes"/>
      <point x="284.9" y="166.0"/>
      <point x="265.2" y="148.6"/>
    </contour>
    <contour>
      <point x="265.2" y="501.5" type="curve" smooth="yes"/>
      <point x="265.2" y="463.4"/>
      <point x="285.8" y="446.0"/>
      <point x="341.5" y="446.0" type="curve" smooth="yes"/>
      <point x="398.20000000000005" y="446.0"/>
      <point x="417.90000000000003" y="463.4"/>
      <point x="417.90000000000003" y="501.5" type="curve" smooth="yes"/>
      <point x="417.90000000000003" y="541.6"/>
      <point x="398.20000000000005" y="558.0999999999999"/>
      <point x="341.5" y="558.0999999999999" type="curve" smooth="yes"/>
      <point x="284.9" y="558.0999999999999"/>
      <point x="265.2" y="541.6"/>
    </contour>
    <contour>
      <point x="61.79999999999999" y="244.79999999999995" type="line"/>
      <point x="621.2" y="244.79999999999995" type="line"/>
      <point x="621.2" y="366.09999999999997" type="line"/>
      <point x="61.79999999999999" y="366.09999999999997" type="line"/>
    </contour>
  </outline>
</glyph>
<glyph name="oslash" format="2">
  <advance width="902.8"/>
  <unicode hex="00F8"/>
  <anchor x="451.40000000000003" y="541.0" name="top"/>
  <outline>
    <contour>
      <point x="451.50000000000006" y="-10.0" type="curve" smooth="yes"/>
      <point x="172.20000000000002" y="-10.0"/>
      <point x="49.699999999999996" y="86.19999999999997"/>
      <point x="49.699999999999996" y="272.5" type="curve" smooth="yes"/>
      <point x="49.699999999999996" y="445.80000000000007"/>
      <point x="154.20000000000002" y="551.0"/>
      <point x="451.50000000000006" y="551.0" type="curve" smooth="yes"/>
      <point x="747.7" y="551.0"/>
      <point x="853.0999999999999" y="445.80000000000007"/>
      <point x="853.0999999999999" y="272.5" type="curve" smooth="yes"/>
      <point x="853.0999999999999" y="86.19999999999997"/>
      <point x="730.6" y="-10.0"/>
    </contour>
    <contour>
      <point x="451.40000000000003" y="89.19999999999999" type="curve" smooth="yes"/>
      <point x="613.9" y="89.19999999999999"/>
      <point x="681.3" y="156.80000000000004"/>
      <point x="681.3" y="272.40000000000003" type="curve" smooth="yes"/>
      <point x="681.3" y="380.2"/>
      <point x="625.3" y="451.8"/>
      <point x="451.40000000000003" y="451.8" type="curve" smooth="yes"/>
      <point x="277.6" y="451.8"/>
      <point x="221.50000000000003" y="380.2"/>
      <point x="221.50000000000003" y="272.40000000000003" type="curve" smooth="yes"/>
      <point x="221.50000000000003" y="156.80000000000004"/>
      <point x="288.00000000000006" y="89.19999999999999"/>
    </contour>
    <contour>
      <point x="49.7" y="-10.0" type="line"/>
      <point x="199.29999999999998" y="116.7" type="line"/>
      <point x="199.3" y="116.69999999999999" type="line"/>
      <point x="633.9000000000001" y="483.49999999999994" type="line"/>
      <point x="633.9000000000001" y="483.5" type="line"/>
      <point x="714.2" y="551.0" type="line"/>
      <point x="853.0999999999999" y="551.0" type="line"/>
      <point x="712.3" y="432.9" type="line"/>
      <point x="712.3" y="432.9" type="line"/>
      <point x="274.4" y="63.900000000000006" type="line"/>
      <point x="274.40000000000003" y="63.900000000000006" type="line"/>
      <point x="186.50000000000003" y="-10.0" type="line"/>
    </contour>
  </outline>
</glyph>
<glyph name="thorn" format="2">
  <advance width="898.4000000000001"/>
  <unicode hex="00FE"/>
  <outline>
    <contour>
      <point x="85.5" y="-210.0" type="line"/>
      <point x="260.05" y="-210.0" type="line"/>
      <point x="260.05" y="3.3499999999999996" type="line"/>
      <point x="318.20000000000005" y="-5.4"/>
      <point x="380.05" y="-10.0"/>
      <point x="435.59999999999997" y="-10.0" type="curve" smooth="yes"/>
      <point x="722.75" y="-10.0"/>
      <point x="849.15" y="76.55"/>
      <point x="849.15" y="272.7" type="curve" smooth="yes"/>
      <point x="849.15" y="449.70000000000005"/>
      <point x="732.4" y="551.0"/>
      <point x="525.65" y="551.0" type="curve" smooth="yes"/>
      <point x="440.9" y="551.0"/>
      <point x="353.8" y="534.85"/>
      <point x="260.05" y="501.35" type="curve"/>
      <point x="260.05" y="740.0" type="line"/>
      <point x="85.5" y="740.0" type="line"/>
    </contour>
    <contour>
      <point x="437.25" y="98.10000000000001" type="curve" smooth="yes"/>
      <point x="385.20000000000005" y="98.10000000000001"/>
      <point x="323.84999999999997" y="104.9"/>
      <point x="259.5" y="118.95" type="curve"/>
      <point x="259.5" y="398.4" type="line"/>
      <point x="329.35" y="416.40000000000003"/>
      <point x="397.7" y="425.84999999999997"/>
      <point x="451.54999999999995" y="425.84999999999997" type="curve" smooth="yes"/>
      <point x="597.55" y="425.84999999999997"/>
      <point x="672.95" y="371.3"/>
      <point x="672.95" y="265.0" type="curve" smooth="yes"/>
      <point x="672.95" y="151.35"/>
      <point x="597.45" y="98.10000000000001"/>
    </contour>
  </outline>
</glyph>
<glyph name="Dcroat" format="2">
  <advance width="1149.7"/>
  <unicode hex="0110"/>
  <outline>
    <contour>
      <point x="9.600000000000001" y="301.49999999999994" type="line"/>
      <point x="513.2" y="301.49999999999994" type="line"/>
      <point x="513.2" y="411.8" type="line"/>
      <point x="9.600000000000001" y="411.8" type="line"/>
    </contour>
    <component base="D" xOffset="4.3999999999999995"/>
  </outline>
</glyph>
<glyph name="dcroat" format="2">
  <advance width="904.9000000000001"/>
  <unicode hex="0111"/>
  <outline>
    <contour>
      <point x="389.4" y="600.3000000000001" type="line"/>
      <point x="914.4" y="600.3000000000001" type="line"/>
      <point x="914.4" y="676.4" type="line"/>
      <point x="389.4" y="676.4" type="line"/>
    </contour>
    <component base="d"/>
  </outline>
</glyph>
<glyph name="Hbar" format="2">
  <advance width="1166.8"/>
  <unicode hex="0126"/>
  <outline>
    <contour>
      <point x="33.60000000000001" y="493.7" type="line"/>
      <point x="106.1" y="493.7" type="line"/>
      <point x="106.1" y="0.0" type="line"/>
      <point x="291.09999999999997" y="0.0" type="line"/>
      <point x="291.09999999999997" y="247.0" type="line"/>
      <point x="881.1999999999999" y="247.0" type="line"/>
      <point x="881.1999999999999" y="0.0" type="line"/>
      <point x="1060.7" y="0.0" type="line"/>
      <point x="1060.7" y="493.7" type="line"/>
      <point x="1133.2" y="493.7" type="line"/>
      <point x="1133.2" y="591.4" type="line"/>
      <point x="1060.7" y="591.4" type="line"/>
      <point x="1060.7" y="700.0" type="line"/>
      <point x="881.1999999999999" y="700.0" type="line"/>
      <point x="881.1999999999999" y="591.4" type="line"/>
      <point x="291.09999999999997" y="591.4" type="line"/>
      <point x="291.09999999999997" y="700.0" type="line"/>
      <point x="106.1" y="700.0" type="line"/>
      <point x="106.1" y="591.4" type="line"/>
      <point x="33.60000000000001" y="591.4" type="line"/>
    </contour>
    <contour>
      <point x="291.09999999999997" y="387.99999999999994" type="line"/>
      <point x="291.09999999999997" y="493.7" type="line"/>
      <point x="881.1999999999999" y="493.7" type="line"/>
      <point x="881.1999999999999" y="387.99999999999994" type="line"/>
    </contour>
  </outline>
</glyph>
<glyph name="hbar" format="2">
  <advance width="892.45"/>
  <unicode hex="0127"/>
  <outline>
    <contour>
      <point x="-10.5" y="599.85" type="line"/>
      <point x="542.0500000000001" y="599.85" type="line"/>
      <point x="542.0500000000001" y="665.15" type="line"/>
      <point x="-10.5" y="665.15" type="line"/>
    </contour>
    <component base="h"/>
  </outline>
</glyph>
<glyph name="Idotaccent" format="2">
  <advance width="395.29999999999995"/>
  <unicode hex="0130"/>
  <outline>
    <contour>
      <point x="197.65" y="772.65" type="curve" smooth="yes"/>
      <point x="276.35" y="772.65"/>
      <point x="304.3" y="794.0"/>
      <point x="304.3" y="840.8" type="curve" smooth="yes"/>
      <point x="304.3" y="887.6"/>
      <point x="276.35" y="908.95"/>
      <point x="197.65" y="908.95" type="curve" smooth="yes"/>
      <point x="118.94999999999999" y="908.95"/>
      <point x="91.0" y="887.6"/>
      <point x="91.0" y="840.8" type="curve" smooth="yes"/>
      <point x="91.0" y="794.0"/>
      <point x="119.4" y="772.65"/>
    </contour>
    <component base="I"/>
  </outline>
</glyph>
<glyph name="dotlessi" format="2">
  <advance width="345.0"/>
  <unicode hex="0131"/>
  <anchor x="242.54999999999998" y="5.5" name="ogonek"/>
  <anchor x="172.5" y="0.0" name="bottom"/>
  <anchor x="172.5" y="541.0" name="top"/>
  <outline>
    <contour>
      <point x="85.5" y="0.0" type="line"/>
      <point x="259.5" y="0.0" type="line"/>
      <point x="259.5" y="541.0" type="line"/>
      <point x="85.5" y="541.0" type="line"/>
    </contour>
  </outline>
</glyph>
<glyph name="kgreenlandic" format="2">
  <advance width="843.8000000000001"/>
  <unicode hex="0138"/>
  <anchor x="417.5" y="541.0" name="top"/>
  <anchor x="417.5" y="0.0" name="bottom"/>
  <outline>
    <contour>
      <point x="778.7" y="-9.999999999999998" type="curve" smooth="yes"/>
      <point x="797.0" y="-9.999999999999998"/>
      <point x="807.2" y="-9.899999999999999"/>
      <point x="815.5000000000001" y="-8.9" type="curve"/>
      <point x="813.6999999999999" y="140.90000000000003" type="line"/>
      <point x="805.4" y="139.9"/>
      <point x="797.1999999999999" y="139.9"/>
      <point x="789.7" y="139.9" type="curve" smooth="yes"/>
      <point x="739.4" y="139.9"/>
      <point x="673.4" y="166.4"/>
      <point x="520.1" y="256.40000000000003" type="curve" smooth="yes"/>
      <point x="254.0" y="412.90000000000003" type="line"/>
      <point x="254.0" y="541.0" type="line"/>
      <point x="85.5" y="541.0" type="line"/>
      <point x="85.5" y="0.0" type="line"/>
      <point x="254.0" y="0.0" type="line"/>
      <point x="254.0" y="254.99999999999997" type="line"/>
      <point x="499.2" y="105.89999999999999" type="line" smooth="yes"/>
      <point x="671.4" y="1.1"/>
      <point x="724.8000000000001" y="-9.999999999999998"/>
    </contour>
    <contour>
      <point x="429.1" y="263.9" type="line"/>
      <point x="541.0" y="314.4"/>
      <point x="719.4" y="412.7"/>
      <point x="785.5000000000001" y="539.3000000000002" type="curve"/>
      <point x="594.9000000000001" y="550.2" type="line"/>
      <point x="541.5000000000001" y="459.29999999999995"/>
      <point x="421.7" y="386.1"/>
      <point x="250.89999999999998" y="287.6" type="curve"/>
    </contour>
  </outline>
</glyph>
<glyph name="Ldot" format="2">
  <advance width="922.35"/>
  <unicode hex="013F"/>
  <outline>
    <contour>
      <point x="553.2" y="417.4" type="curve" smooth="yes"/>
      <point x="553.2" y="368.95"/>
      <point x="578.85" y="347.05"/>
      <point x="650.5" y="347.05" type="curve" smooth="yes"/>
      <point x="722.6" y="347.05"/>
      <point x="747.8" y="368.95"/>
      <point x="747.8" y="417.4" type="curve" smooth="yes"/>
      <point x="747.8" y="466.4"/>
      <point x="722.6" y="488.29999999999995"/>
      <point x="650.5" y="488.29999999999995" type="curve" smooth="yes"/>
      <point x="578.4" y="488.29999999999995"/>
      <point x="553.2" y="466.4"/>
    </contour>
    <component base="L"/>
  </outline>
</glyph>
<glyph name="ldot" format="2">
  <advance width="470.65"/>
  <unicode hex="0140"/>
  <outline>
    <contour>
      <point x="424.85" y="343.4" type="curve" smooth="yes"/>
      <point x="464.5" y="343.4"/>
      <point x="477.05" y="358.7"/>
      <point x="477.05" y="395.05" type="curve" smooth="yes"/>
      <point x="477.05" y="431.4"/>
      <point x="464.5" y="446.7"/>
      <point x="424.85" y="446.7" type="curve" smooth="yes"/>
      <point x="385.2" y="446.7"/>
      <point x="372.65000000000003" y="431.4"/>
      <point x="372.65000000000003" y="395.05" type="curve" smooth="yes"/>
      <point x="372.65000000000003" y="358.7"/>
      <point x="385.65" y="343.4"/>
    </contour>
    <component base="l"/>
  </outline>
</glyph>
<glyph name="Lslash" format="2">
  <advance width="922.35"/>
  <unicode hex="0141"/>
  <outline>
    <contour>
      <point x="10.600000000000001" y="156.1" type="line"/>
      <point x="105.14999999999999" y="203.85" type="line"/>
      <point x="105.14999999999999" y="0.0" type="line"/>
      <point x="890.0500000000001" y="0.0" type="line"/>
      <point x="890.0500000000001" y="141.0" type="line"/>
      <point x="290.15000000000003" y="141.0" type="line"/>
      <point x="290.15000000000003" y="283.6" type="line"/>
      <point x="611.75" y="445.9" type="line"/>
      <point x="611.75" y="582.0999999999999" type="line"/>
      <point x="290.15000000000003" y="419.8" type="line"/>
      <point x="290.15000000000003" y="700.0" type="line"/>
      <point x="105.14999999999999" y="700.0" type="line"/>
      <point x="105.14999999999999" y="340.05" type="line"/>
      <point x="10.600000000000001" y="292.3" type="line"/>
    </contour>
  </outline>
</glyph>
<glyph name="lslash" format="2">
  <advance width="470.65"/>
  <unicode hex="0142"/>
  <outline>
    <contour>
      <point x="283.75" y="-10.0" type="curve" smooth="yes"/>
      <point x="353.0" y="-10.0"/>
      <point x="422.45" y="1.3000000000000003"/>
      <point x="478.95" y="16.0" type="curve"/>
      <point x="458.45" y="136.1" type="line"/>
      <point x="417.9" y="128.0"/>
      <point x="381.45" y="121.65"/>
      <point x="350.29999999999995" y="121.65" type="curve" smooth="yes"/>
      <point x="302.8" y="121.65"/>
      <point x="265.0" y="139.75000000000003"/>
      <point x="265.0" y="213.25" type="curve" smooth="yes"/>
      <point x="265.0" y="295.4" type="line"/>
      <point x="411.9" y="399.95" type="line"/>
      <point x="411.9" y="520.9" type="line"/>
      <point x="265.0" y="416.34999999999997" type="line"/>
      <point x="265.0" y="740.0" type="line"/>
      <point x="91.0" y="740.0" type="line"/>
      <point x="91.0" y="335.3" type="line"/>
      <point x="13.799999999999997" y="280.55" type="line"/>
      <point x="13.799999999999997" y="159.6" type="line"/>
      <point x="92.10000000000001" y="214.9" type="line"/>
      <point x="93.2" y="166.5" type="line" smooth="yes"/>
      <point x="102.55000000000001" y="30.800000000000004"/>
      <point x="172.9" y="-10.0"/>
    </contour>
  </outline>
</glyph>
<glyph name="Eng" format="2">
  <advance width="1120.8"/>
  <unicode hex="014A"/>
  <outline>
    <contour>
      <point x="105.14999999999999" y="0.0" type="line"/>
      <point x="273.65000000000003" y="0.0" type="line"/>
      <point x="273.65000000000003" y="480.5" type="line"/>
      <point x="847.1500000000001" y="6.85" type="line"/>
      <point x="847.1500000000001" y="-2.0" type="line" smooth="yes"/>
      <point x="844.45" y="-72.89999999999999"/>
      <point x="774.15" y="-103.19999999999999"/>
      <point x="674.05" y="-103.19999999999999" type="curve" smooth="yes"/>
      <point x="623.0" y="-103.19999999999999"/>
      <point x="563.1" y="-95.15"/>
      <point x="505.59999999999997" y="-83.8" type="curve"/>
      <point x="480.79999999999995" y="-200.04999999999998" type="line"/>
      <point x="545.45" y="-211.95000000000002"/>
      <point x="618.35" y="-220.00000000000003"/>
      <point x="687.25" y="-220.00000000000003" type="curve" smooth="yes"/>
      <point x="874.5" y="-220.00000000000003"/>
      <point x="1015.65" y="-159.60000000000002"/>
      <point x="1015.65" y="-10.0" type="curve" smooth="yes"/>
      <point x="1015.65" y="700.0" type="line"/>
      <point x="847.15" y="700.0" type="line"/>
      <point x="847.15" y="202.45000000000002" type="line"/>
      <point x="262.85" y="704.5" type="line"/>
      <point x="105.14999999999999" y="704.5" type="line"/>
    </contour>
  </outline>
</glyph>
<glyph name="eng" format="2">
  <advance width="892.4499999999999"/>
  <unicode hex="014B"/>
  <outline>
    <contour>
      <point x="806.9499999999999" y="34.25" type="curve"/>
      <point x="806.9499999999999" y="343.45" type="line" smooth="yes"/>
      <point x="806.9499999999999" y="461.90000000000003"/>
      <point x="728.5" y="551.0"/>
      <point x="557.6999999999999" y="551.0" type="curve" smooth="yes"/>
      <point x="440.15" y="551.0"/>
      <point x="358.95" y="517.1"/>
      <point x="242.45" y="461.70000000000005" type="curve"/>
      <point x="242.45" y="541.0" type="line"/>
      <point x="85.5" y="541.0" type="line"/>
      <point x="85.5" y="0.0" type="line"/>
      <point x="259.5" y="0.0" type="line"/>
      <point x="259.5" y="364.8" type="line"/>
      <point x="345.05" y="401.20000000000005"/>
      <point x="407.05" y="425.95"/>
      <point x="490.05" y="425.95" type="curve" smooth="yes"/>
      <point x="585.3" y="425.95"/>
      <point x="632.95" y="378.35"/>
      <point x="632.95" y="284.05" type="curve" smooth="yes"/>
      <point x="632.95" y="34.650000000000006" type="line" smooth="yes"/>
      <point x="632.95" y="-37.35"/>
      <point x="609.3499999999999" y="-70.05"/>
      <point x="563.95" y="-84.44999999999999" type="curve" smooth="yes"/>
      <point x="552.3" y="-87.14999999999999"/>
      <point x="538.4499999999999" y="-88.29999999999998"/>
      <point x="524.15" y="-89.0" type="curve"/>
      <point x="518.1999999999999" y="-208.75" type="line"/>
      <point x="543.9499999999999" y="-210.25"/>
      <point x="568.5999999999999" y="-209.2"/>
      <point x="591.25" y="-206.5" type="curve" smooth="yes"/>
      <point x="723.05" y="-190.75"/>
      <point x="806.9499999999999" y="-103.19999999999999"/>
    </contour>
  </outline>
</glyph>
<glyph name="OE" format="2">
  <advance width="1747.2"/>
  <unicode hex="0152"/>
  <outline>
    <contour>
      <point x="1699.6999999999998" y="0.0" type="line"/>
      <point x="1699.6999999999998" y="137.5" type="line"/>
      <point x="1038.8" y="137.5" type="line"/>
      <point x="1038.8" y="300.6" type="line"/>
      <point x="1638.7" y="300.6" type="line"/>
      <point x="1638.7" y="431.09999999999997" type="line"/>
      <point x="1038.8" y="431.09999999999997" type="line"/>
      <point x="1038.8" y="562.5" type="line"/>
      <point x="1670.6999999999998" y="562.5" type="line"/>
      <point x="1670.6999999999998" y="700.0" type="line"/>
      <point x="1038.8" y="700.0" type="line"/>
      <point x="891.7" y="704.0"/>
      <point x="750.5" y="710.0"/>
      <point x="588.2" y="710.0" type="curve" smooth="yes"/>
      <point x="255.5" y="710.0"/>
      <point x="61.199999999999996" y="588.4"/>
      <point x="61.199999999999996" y="356.0" type="curve" smooth="yes"/>
      <point x="61.199999999999996" y="78.8"/>
      <point x="278.1" y="-10.0"/>
      <point x="619.1999999999999" y="-10.0" type="curve" smooth="yes"/>
      <point x="783.5" y="-10.0"/>
      <point x="902.5" y="-5.1"/>
      <point x="1038.8" y="0.0" type="curve"/>
    </contour>
    <contour>
      <point x="854.7" y="114.60000000000001" type="line"/>
      <point x="803.4" y="112.60000000000001"/>
      <point x="706.6999999999999" y="107.9"/>
      <point x="600.8" y="107.9" type="curve" smooth="yes"/>
      <point x="424.9" y="107.9"/>
      <point x="249.40000000000003" y="155.9"/>
      <point x="249.40000000000003" y="353.9" type="curve" smooth="yes"/>
      <point x="249.40000000000003" y="534.6"/>
      <point x="425.59999999999997" y="592.0"/>
      <point x="581.7" y="592.0" type="curve" smooth="yes"/>
      <point x="652.8" y="592.0"/>
      <point x="799.7" y="585.4"/>
      <point x="854.7" y="584.3000000000001" type="curve"/>
    </contour>
  </outline>
</glyph>
<glyph name="oe" format="2">
  <advance width="1487.6"/>
  <unicode hex="0153"/>
  <outline>
    <contour>
      <point x="49.25" y="272.5" type="curve" smooth="yes"/>
      <point x="49.25" y="86.19999999999999"/>
      <point x="171.75" y="-10.0"/>
      <point x="451.5" y="-10.0" type="curve" smooth="yes"/>
      <point x="611.1" y="-10.0"/>
      <point x="712.05" y="29.25"/>
      <point x="763.55" y="104.2" type="curve"/>
      <point x="819.9000000000001" y="28.699999999999996"/>
      <point x="930.0999999999999" y="-10.0"/>
      <point x="1068.9" y="-10.0" type="curve" smooth="yes"/>
      <point x="1217.15" y="-10.0"/>
      <point x="1335.6999999999998" y="6.649999999999997"/>
      <point x="1433.2" y="26.5" type="curve"/>
      <point x="1414.35" y="135.6" type="line"/>
      <point x="1316.0" y="117.30000000000001"/>
      <point x="1188.6000000000001" y="99.65"/>
      <point x="1078.25" y="99.65" type="curve" smooth="yes"/>
      <point x="923.35" y="99.65"/>
      <point x="854.4" y="146.45000000000002"/>
      <point x="854.4" y="222.6" type="curve" smooth="yes"/>
      <point x="854.4" y="229.55"/>
      <point x="854.8499999999999" y="234.4"/>
      <point x="855.3" y="240.35000000000002" type="curve"/>
      <point x="1131.45" y="243.10000000000002"/>
      <point x="1341.0" y="256.6"/>
      <point x="1433.05" y="260.7" type="curve"/>
      <point x="1434.6" y="273.85"/>
      <point x="1434.6" y="291.95"/>
      <point x="1434.6" y="303.55" type="curve" smooth="yes"/>
      <point x="1434.6" y="473.75"/>
      <point x="1320.0" y="551.0"/>
      <point x="1087.8999999999999" y="551.0" type="curve" smooth="yes"/>
      <point x="957.2" y="551.0"/>
      <point x="836.45" y="511.55000000000007"/>
      <point x="775.6999999999999" y="426.2" type="curve"/>
      <point x="726.6999999999999" y="504.7"/>
      <point x="628.0500000000001" y="551.0"/>
      <point x="451.5" y="551.0" type="curve" smooth="yes"/>
      <point x="154.2" y="551.0"/>
      <point x="49.25" y="445.8"/>
    </contour>
    <contour>
      <point x="226.0" y="271.95" type="curve" smooth="yes"/>
      <point x="226.0" y="377.0"/>
      <point x="281.45000000000005" y="449.05"/>
      <point x="450.95000000000005" y="449.05" type="curve" smooth="yes"/>
      <point x="621.0" y="449.05"/>
      <point x="675.9" y="377.0"/>
      <point x="675.9" y="271.95" type="curve" smooth="yes"/>
      <point x="675.9" y="159.65"/>
      <point x="610.05" y="91.95"/>
      <point x="450.95000000000005" y="91.95" type="curve" smooth="yes"/>
      <point x="291.85" y="91.95"/>
      <point x="226.0" y="159.65"/>
    </contour>
    <contour>
      <point x="857.65" y="326.90000000000003" type="curve"/>
      <point x="880.85" y="417.85"/>
      <point x="985.0999999999999" y="446.84999999999997"/>
      <point x="1077.45" y="446.84999999999997" type="curve" smooth="yes"/>
      <point x="1195.1000000000001" y="446.84999999999997"/>
      <point x="1247.5" y="408.55"/>
      <point x="1255.75" y="338.65" type="curve"/>
      <point x="1202.25" y="336.2"/>
      <point x="1043.15" y="327.45"/>
    </contour>
  </outline>
</glyph>
<glyph name="uni0162" format="2">
  <advance width="961.4"/>
  <unicode hex="0162"/>
  <outline>
    <contour>
      <point x="330.9" y="-104.15" type="curve"/>
      <point x="324.0" y="-195.85" type="line"/>
      <point x="377.45" y="-212.4"/>
      <point x="423.55" y="-220.0"/>
      <point x="462.5" y="-220.0" type="curve" smooth="yes"/>
      <point x="586.25" y="-220.0"/>
      <point x="637.85" y="-161.75"/>
      <point x="637.85" y="-91.8" type="curve" smooth="yes"/>
      <point x="637.85" y="-52.00000000000001"/>
      <point x="610.95" y="-18.950000000000003"/>
      <point x="561.3" y="7.750000000000001" type="curve"/>
      <point x="419.55" y="5.5" type="line"/>
      <point x="459.1" y="-14.049999999999999"/>
      <point x="493.0" y="-34.5"/>
      <point x="493.0" y="-65.39999999999999" type="curve" smooth="yes"/>
      <point x="493.0" y="-102.44999999999999"/>
      <point x="467.74999999999994" y="-121.89999999999999"/>
      <point x="414.1" y="-121.89999999999999" type="curve" smooth="yes"/>
      <point x="392.55" y="-121.89999999999999"/>
      <point x="361.0" y="-115.95000000000002"/>
    </contour>
    <component base="T"/>
  </outline>
</glyph>
<glyph name="Tbar" format="2">
  <advance width="972.4"/>
  <unicode hex="0166"/>
  <outline>
    <contour>
      <point x="146.65" y="264.4" type="line"/>
      <point x="393.7" y="264.4" type="line"/>
      <point x="393.7" y="0.0" type="line"/>
      <point x="578.7" y="0.0" type="line"/>
      <point x="578.7" y="264.4" type="line"/>
      <point x="825.75" y="264.4" type="line"/>
      <point x="825.75" y="388.90000000000003" type="line"/>
      <point x="578.7" y="388.90000000000003" type="line"/>
      <point x="578.7" y="559.9" type="line"/>
      <point x="950.45" y="559.9" type="line"/>
      <point x="950.45" y="700.0" type="line"/>
      <point x="21.950000000000003" y="700.0" type="line"/>
      <point x="21.950000000000003" y="559.9" type="line"/>
      <point x="393.7" y="559.9" type="line"/>
      <point x="393.7" y="388.90000000000003" type="line"/>
      <point x="146.65" y="388.90000000000003" type="line"/>
    </contour>
  </outline>
</glyph>
<glyph name="tbar" format="2">
  <advance width="643.7"/>
  <unicode hex="0167"/>
  <outline>
    <contour>
      <point x="324.2" y="272.29999999999995" type="line"/>
      <point x="545.9" y="272.29999999999995" type="line"/>
      <point x="545.9" y="357.2" type="line"/>
      <point x="324.2" y="357.2" type="line"/>
      <point x="324.2" y="437.19999999999993" type="line"/>
      <point x="590.6999999999999" y="437.19999999999993" type="line"/>
      <point x="590.6999999999999" y="541.0" type="line"/>
      <point x="324.2" y="541.0" type="line"/>
      <point x="324.2" y="665.0" type="line"/>
      <point x="168.5" y="665.0" type="line"/>
      <point x="150.20000000000002" y="541.0" type="line"/>
      <point x="7.6" y="528.2" type="line"/>
      <point x="7.6" y="437.2" type="line"/>
      <point x="150.20000000000002" y="437.2" type="line"/>
      <point x="150.20000000000002" y="357.2" type="line"/>
      <point x="43.6" y="357.2" type="line"/>
      <point x="43.6" y="272.29999999999995" type="line"/>
      <point x="150.20000000000002" y="272.29999999999995" type="line"/>
      <point x="150.20000000000002" y="205.8" type="line" smooth="yes"/>
      <point x="150.20000000000002" y="49.800000000000004"/>
      <point x="237.40000000000003" y="-10.0"/>
      <point x="377.40000000000003" y="-10.0" type="curve" smooth="yes"/>
      <point x="456.0" y="-10.0"/>
      <point x="531.6" y="2.9999999999999996"/>
      <point x="619.8" y="26.499999999999996" type="curve"/>
      <point x="598.4" y="147.8" type="line"/>
      <point x="541.1000000000001" y="130.3"/>
      <point x="487.79999999999995" y="120.00000000000001"/>
      <point x="437.4" y="120.00000000000001" type="curve" smooth="yes"/>
      <point x="357.3" y="120.00000000000001"/>
      <point x="324.2" y="150.9"/>
      <point x="324.2" y="205.79999999999998" type="curve" smooth="yes"/>
    </contour>
  </outline>
</glyph>
<glyph name="uogonek" format="2">
  <advance width="895.3000000000001"/>
  <unicode hex="0173"/>
  <outline>
    <contour>
      <point x="805.4" y="-200.1" type="curve" smooth="yes"/>
      <point x="842.0" y="-200.1"/>
      <point x="869.75" y="-197.0"/>
      <point x="890.0" y="-190.8" type="curve"/>
      <point x="886.7" y="-106.25" type="line"/>
      <point x="878.0" y="-108.14999999999999"/>
      <point x="868.3" y="-109.6"/>
      <point x="855.7" y="-109.6" type="curve" smooth="yes"/>
      <point x="820.85" y="-109.6"/>
      <point x="793.8" y="-97.99999999999999"/>
      <point x="793.8" y="-61.35" type="curve" smooth="yes"/>
      <point x="793.8" y="-20.749999999999993"/>
      <point x="832.4" y="7.100000000000003"/>
      <point x="887.65" y="19.900000000000002" type="curve"/>
      <point x="871.75" y="115.1" type="line"/>
      <point x="861.85" y="110.65"/>
      <point x="852.15" y="108.75000000000001"/>
      <point x="841.8" y="108.75000000000001" type="curve" smooth="yes"/>
      <point x="813.2" y="108.75000000000001"/>
      <point x="787.6" y="127.30000000000001"/>
      <point x="787.6" y="185.2" type="curve" smooth="yes"/>
      <point x="787.6" y="541.0" type="line"/>
      <point x="613.6" y="541.0" type="line"/>
      <point x="613.6" y="172.45000000000002" type="line"/>
      <point x="530.6999999999999" y="135.3"/>
      <point x="476.55" y="112.85"/>
      <point x="396.84999999999997" y="112.85" type="curve" smooth="yes"/>
      <point x="307.70000000000005" y="112.85"/>
      <point x="259.5" y="158.2"/>
      <point x="259.5" y="240.25" type="curve" smooth="yes"/>
      <point x="259.5" y="541.0" type="line"/>
      <point x="85.5" y="541.0" type="line"/>
      <point x="85.5" y="188.55" type="line" smooth="yes"/>
      <point x="85.5" y="69.2"/>
      <point x="173.79999999999998" y="-10.0"/>
      <point x="327.55" y="-10.0" type="curve" smooth="yes"/>
      <point x="445.0" y="-10.0"/>
      <point x="529.6500000000001" y="23.899999999999995"/>
      <point x="635.9499999999999" y="77.55000000000001" type="curve"/>
      <point x="658.7" y="16.15"/>
      <point x="701.85" y="-10.0"/>
      <point x="767.5" y="-10.0" type="curve" smooth="yes"/>
      <point x="786.5" y="-10.0"/>
      <point x="802.85" y="-7.55"/>
      <point x="821.3" y="-2.8" type="curve"/>
      <point x="794.3" y="17.6" type="line"/>
      <point x="732.5999999999999" y="5.0000000000000036"/>
      <point x="668.4" y="-41.0"/>
      <point x="668.4" y="-104.05" type="curve" smooth="yes"/>
      <point x="668.4" y="-169.1"/>
      <point x="729.25" y="-200.1"/>
    </contour>
  </outline>
</glyph>
